<?xml version="1.0" encoding="utf-8"?>
<!-- Generator: Adobe Illustrator 25.2.0, SVG Export Plug-In . SVG Version: 6.00 Build 0)  -->
<svg version="1.1" id="Layer_1" xmlns="http://www.w3.org/2000/svg" xmlns:xlink="http://www.w3.org/1999/xlink" x="0px" y="0px"
	 viewBox="0 0 250 250" style="enable-background:new 0 0 250 250;" xml:space="preserve">
<style type="text/css">
	.st0{fill:#FFFFFF;}
	.st1{fill:#7F8183;}
	.st2{fill:#37A8DF;}
</style>
<path class="st0" d="M124.53,15.98C64.32,15.98,15.51,64.79,15.51,125s48.81,109.02,109.02,109.02S233.54,185.21,233.54,125
	S184.73,15.98,124.53,15.98z M109.86,175.34c0-7.94,0-15.52,0-23.32c4.82,1.36,9.46,2.68,14.31,4.05
	C119.39,162.5,114.73,168.78,109.86,175.34z M154.66,159.18c-14.48-4.4-28.87-8.77-43.49-13.22c12.46-14.49,24.83-28.88,37.21-43.27
	c-0.07-0.07-0.13-0.14-0.2-0.21c-0.33,0.25-0.66,0.49-0.97,0.75c-15.51,12.97-31.02,25.95-46.55,38.89
	c-0.35,0.3-1.05,0.47-1.48,0.35c-13.06-3.85-26.11-7.75-39.16-11.64c-0.12-0.04-0.22-0.13-0.54-0.32
	c39.2-18.69,78.26-37.32,117.57-56.07C169.55,102.83,162.13,130.92,154.66,159.18z"/>
<path class="st0" d="M369.35-129.51c-34.58,0-62.61,28.03-62.61,62.61s28.03,62.61,62.61,62.61s62.61-28.03,62.61-62.61
	S403.93-129.51,369.35-129.51z M400.63-74.61c-1.95,1.91-3.91,3.81-5.86,5.71c-2.46,2.39-4.91,4.78-7.38,7.15
	c-0.33,0.32-0.42,0.62-0.35,1.06c1.05,5.98,2.08,11.96,3.11,17.95c0.03,0.19,0.03,0.38,0.04,0.47c0.01,2.02-1.86,3.12-3.63,2.2
	c-3.56-1.85-7.1-3.72-10.65-5.58c-1.89-0.99-3.78-1.97-5.66-2.98c-0.36-0.2-0.63-0.17-0.98,0.01c-5.41,2.85-10.83,5.69-16.25,8.52
	c-1.53,0.8-3.24,0.16-3.58-1.41c-0.14-0.63-0.02-1.34,0.09-2c0.98-5.76,1.98-11.51,2.99-17.26c0.08-0.43-0.08-0.7-0.38-0.99
	c-4.36-4.22-8.7-8.45-13.06-12.67c-0.63-0.61-0.97-1.31-0.88-2.2c0.1-1,0.89-1.88,1.96-2.04c3.15-0.48,6.3-0.93,9.45-1.39
	c3.03-0.44,6.06-0.86,9.08-1.33c0.26-0.04,0.58-0.33,0.7-0.58c2.71-5.43,5.41-10.88,8.1-16.32c0.44-0.9,1.09-1.5,2.13-1.55
	c1.15-0.06,1.91,0.51,2.41,1.51c2.45,4.95,4.9,9.9,7.35,14.86c0.25,0.51,0.54,1.01,0.75,1.54c0.16,0.43,0.46,0.55,0.86,0.6
	c5.8,0.84,11.61,1.68,17.41,2.52c0.31,0.05,0.63,0.08,0.94,0.14c0.96,0.17,1.61,0.71,1.9,1.64
	C401.54-76.12,401.33-75.29,400.63-74.61z"/>
<path class="st1" d="M369.35-158.54c-34.58,0-62.61,28.03-62.61,62.61s28.03,62.61,62.61,62.61s62.61-28.03,62.61-62.61
	S403.93-158.54,369.35-158.54z M400.63-103.64c-1.95,1.91-3.91,3.81-5.86,5.71c-2.46,2.39-4.91,4.78-7.38,7.15
	c-0.33,0.32-0.42,0.62-0.35,1.06c1.05,5.98,2.08,11.96,3.11,17.95c0.03,0.19,0.03,0.38,0.04,0.47c0.01,2.02-1.86,3.12-3.63,2.2
	c-3.56-1.85-7.1-3.72-10.65-5.58c-1.89-0.99-3.78-1.97-5.66-2.98c-0.36-0.2-0.63-0.17-0.98,0.01c-5.41,2.85-10.83,5.69-16.25,8.52
	c-1.53,0.8-3.24,0.16-3.58-1.41c-0.14-0.63-0.02-1.34,0.09-2c0.98-5.76,1.98-11.51,2.99-17.26c0.08-0.43-0.08-0.7-0.38-0.99
	c-4.36-4.22-8.7-8.45-13.06-12.67c-0.63-0.61-0.97-1.31-0.88-2.2c0.1-1,0.89-1.88,1.96-2.04c3.15-0.48,6.3-0.93,9.45-1.39
	c3.03-0.44,6.06-0.86,9.08-1.33c0.26-0.04,0.58-0.33,0.7-0.58c2.71-5.43,5.41-10.88,8.1-16.32c0.44-0.9,1.09-1.5,2.13-1.55
	c1.15-0.06,1.91,0.51,2.41,1.51c2.45,4.95,4.9,9.9,7.35,14.86c0.25,0.51,0.54,1.01,0.75,1.54c0.16,0.43,0.46,0.55,0.86,0.6
	c5.8,0.84,11.61,1.68,17.41,2.52c0.31,0.05,0.63,0.08,0.94,0.14c0.96,0.17,1.61,0.71,1.9,1.64
	C401.54-105.15,401.33-104.32,400.63-103.64z"/>
<path class="st2" d="M373.33-192.12c-34.58,0-62.61,28.03-62.61,62.61s28.03,62.61,62.61,62.61s62.61-28.03,62.61-62.61
	S407.91-192.12,373.33-192.12z M404.62-137.22c-1.95,1.91-3.91,3.81-5.86,5.71c-2.46,2.39-4.91,4.78-7.38,7.15
	c-0.33,0.32-0.42,0.62-0.35,1.06c1.05,5.98,2.08,11.96,3.11,17.95c0.03,0.19,0.03,0.38,0.04,0.47c0.01,2.02-1.86,3.12-3.63,2.2
	c-3.56-1.85-7.1-3.72-10.65-5.58c-1.89-0.99-3.78-1.97-5.66-2.98c-0.36-0.2-0.63-0.17-0.98,0.01c-5.41,2.85-10.83,5.69-16.25,8.52
	c-1.53,0.8-3.24,0.16-3.58-1.41c-0.14-0.63-0.02-1.34,0.09-2c0.98-5.76,1.98-11.51,2.99-17.26c0.08-0.43-0.08-0.7-0.38-0.99
	c-4.36-4.22-8.7-8.45-13.06-12.67c-0.63-0.61-0.97-1.31-0.88-2.2c0.1-1,0.89-1.88,1.96-2.04c3.15-0.48,6.3-0.93,9.45-1.39
	c3.03-0.44,6.06-0.86,9.08-1.33c0.26-0.04,0.58-0.33,0.7-0.58c2.71-5.43,5.41-10.88,8.1-16.32c0.44-0.9,1.09-1.5,2.13-1.55
	c1.15-0.06,1.91,0.51,2.41,1.51c2.45,4.95,4.9,9.9,7.35,14.86c0.25,0.51,0.54,1.01,0.75,1.54c0.16,0.43,0.46,0.55,0.86,0.6
	c5.8,0.84,11.61,1.68,17.41,2.52c0.31,0.05,0.63,0.08,0.94,0.14c0.96,0.17,1.61,0.71,1.9,1.64
	C405.53-138.73,405.31-137.9,404.62-137.22z"/>
</svg>
