<?xml version="1.0" encoding="utf-8"?>
<!-- Generator: Adobe Illustrator 25.2.0, SVG Export Plug-In . SVG Version: 6.00 Build 0)  -->
<svg version="1.1" id="Layer_1" xmlns="http://www.w3.org/2000/svg" xmlns:xlink="http://www.w3.org/1999/xlink" x="0px" y="0px"
	 viewBox="0 0 250 250" style="enable-background:new 0 0 250 250;" xml:space="preserve">
<style type="text/css">
	.st0{fill:#7F8183;}
</style>
<path class="st0" d="M124.53,15.56c-60.21,0-109.02,48.81-109.02,109.02s48.81,109.02,109.02,109.02s109.02-48.81,109.02-109.02
	S184.73,15.56,124.53,15.56z M179,111.16c-3.39,3.32-6.8,6.63-10.2,9.93c-4.27,4.15-8.54,8.32-12.84,12.45
	c-0.58,0.55-0.74,1.08-0.6,1.84c1.82,10.41,3.62,20.83,5.42,31.25c0.06,0.32,0.06,0.66,0.07,0.82c0.02,3.52-3.25,5.43-6.32,3.83
	c-6.19-3.22-12.37-6.47-18.55-9.71c-3.29-1.72-6.58-3.42-9.85-5.18c-0.63-0.34-1.1-0.3-1.71,0.02c-9.43,4.96-18.86,9.9-28.3,14.84
	c-2.67,1.39-5.65,0.27-6.23-2.46c-0.24-1.1-0.04-2.34,0.16-3.48c1.71-10.02,3.45-20.04,5.2-30.06c0.13-0.75-0.14-1.22-0.66-1.72
	c-7.59-7.35-15.15-14.72-22.74-22.06c-1.1-1.07-1.68-2.29-1.54-3.83c0.17-1.75,1.55-3.27,3.41-3.55c5.48-0.84,10.97-1.62,16.46-2.42
	c5.27-0.76,10.55-1.49,15.81-2.31c0.46-0.07,1-0.57,1.23-1.02c4.73-9.46,9.42-18.94,14.1-28.42c0.77-1.57,1.89-2.61,3.71-2.71
	c2.01-0.11,3.33,0.89,4.19,2.63c4.26,8.62,8.53,17.25,12.8,25.87c0.44,0.89,0.95,1.75,1.3,2.67c0.29,0.75,0.8,0.95,1.5,1.05
	c10.11,1.46,20.21,2.92,30.31,4.39c0.55,0.08,1.09,0.15,1.63,0.24c1.67,0.29,2.81,1.24,3.31,2.86
	C180.58,108.52,180.21,109.97,179,111.16z"/>
</svg>
