<?xml version="1.0" encoding="utf-8"?>
<!-- Generator: Adobe Illustrator 25.2.0, SVG Export Plug-In . SVG Version: 6.00 Build 0)  -->
<svg version="1.1" id="Layer_1" xmlns="http://www.w3.org/2000/svg" xmlns:xlink="http://www.w3.org/1999/xlink" x="0px" y="0px"
	 viewBox="0 0 250 250" style="enable-background:new 0 0 250 250;" xml:space="preserve">
<style type="text/css">
	.st0{fill:#37A8DF;}
	.st1{fill:#FFFFFF;}
	.st2{fill:#7F8183;}
</style>
<g>
	<path class="st0" d="M140.22,172.6c-9.9,0-19.8,0-29.69,0c-1.26,0-1.82,0.56-1.82,1.82c0,2.3,0,4.61,0,6.91
		c0,1.4,0.52,1.92,1.92,1.92c4.9,0,9.81,0,14.71,0c4.97,0,9.94,0,14.91,0c1.21,0,1.78-0.57,1.78-1.78c0.01-2.35,0-4.7,0-7.05
		C142.03,173.16,141.48,172.6,140.22,172.6z"/>
	<path class="st0" d="M124.17,15.98C63.96,15.98,15.15,64.79,15.15,125s48.81,109.02,109.02,109.02S233.18,185.21,233.18,125
		S184.38,15.98,124.17,15.98z M82.46,113.06c-4.21-2.19-6.57-5.81-7.81-10.26c-0.33-1.17-0.59-2.37-0.77-3.57
		c-0.19-1.27-0.25-2.56-0.32-3.34c0.03-4.21,0.61-7.8,2.44-11.09c2.84-5.09,8.6-7.01,13.94-4.69c0.56,0.24,0.92,0.61,0.96,1.19
		c0.08,1.06,0.14,2.12,0.13,3.18c-0.01,0.67-0.54,0.98-1.29,0.99c-1.03,0-2.08-0.05-3.09,0.12c-1.63,0.28-2.71,1.3-3.17,2.9
		c-1.4,4.83-1.09,9.6,0.57,14.31c1.05,2.97,4.93,5.78,8.39,5.12c0.53-0.1,0.88,0.15,1.02,0.58c0.46,1.39,0.88,2.79,1.29,4.2
		c0.13,0.46-0.11,0.73-0.55,0.93C90.19,115.45,86.28,115.04,82.46,113.06z M157.19,187.43c0,2.39-1.14,3.53-3.53,3.53
		c-18.87,0-37.75,0-56.62,0c-2.35,0-3.5-1.15-3.5-3.49c0-4.9,0-9.81,0-14.71c0-2.28,1.18-3.46,3.48-3.46c4.88,0,9.76,0,14.65,0
		c2.26,0,3.81-1.13,4.53-3.26c2.44-7.31,4.09-14.8,5.36-22.39c0.35-2.09-0.43-3.81-2.09-5.13c-5.9-4.68-11.3-9.87-15.97-15.79
		c-3.22-4.09-6.12-8.4-7.58-13.44c-0.83-2.87-1.32-5.86-1.7-8.83c-1.2-9.28-1.35-18.61-1.1-27.95c0.06-2.29,1.29-3.47,3.59-3.47
		c9.56,0,19.12,0,28.68,0c9.52,0,19.03,0,28.55,0c2.47,0,3.64,1.15,3.71,3.64c0.22,8.07,0.08,16.14-0.69,24.18
		c-0.4,4.16-0.82,8.33-2.05,12.35c-1.39,4.51-3.82,8.47-6.63,12.21c-4.76,6.35-10.4,11.85-16.59,16.78
		c-2.06,1.64-2.85,3.56-2.39,6.16c1.32,7.37,2.91,14.67,5.29,21.78c0.67,2.01,2.27,3.17,4.39,3.17c4.88,0,9.76,0,14.65,0
		c2.44,0,3.58,1.14,3.58,3.56C157.2,177.71,157.2,182.57,157.19,187.43z M174.19,107.36c-3.04,5.07-7.58,7.59-13.55,7.38
		c-1.48-0.05-2.9-0.49-4.2-1.2c-0.23-0.12-0.49-0.56-0.43-0.77c0.39-1.46,0.83-2.9,1.3-4.33c0.14-0.41,0.5-0.61,0.98-0.52
		c3.54,0.65,7.33-2.25,8.38-5.06c1.06-2.84,1.54-5.77,1.42-8.77c-0.07-1.64-0.31-3.28-0.63-4.89c-0.51-2.59-2.09-3.88-5.39-3.83
		c-0.43,0.01-0.86,0.08-1.28,0.08c-0.61,0-1.08-0.38-1.09-0.98c-0.01-1.06,0.05-2.12,0.13-3.18c0.04-0.58,0.4-0.95,0.96-1.19
		c5.25-2.31,11.04-0.41,13.88,4.58c1.66,2.91,2.54,6.67,2.49,11.34C177.08,99.6,176.38,103.7,174.19,107.36z"/>
</g>
<path class="st1" d="M369.35-129.51c-34.58,0-62.61,28.03-62.61,62.61s28.03,62.61,62.61,62.61s62.61-28.03,62.61-62.61
	S403.93-129.51,369.35-129.51z M400.63-74.61c-1.95,1.91-3.91,3.81-5.86,5.71c-2.46,2.39-4.91,4.78-7.38,7.15
	c-0.33,0.32-0.42,0.62-0.35,1.06c1.05,5.98,2.08,11.96,3.11,17.95c0.03,0.19,0.03,0.38,0.04,0.47c0.01,2.02-1.86,3.12-3.63,2.2
	c-3.56-1.85-7.1-3.72-10.65-5.58c-1.89-0.99-3.78-1.97-5.66-2.98c-0.36-0.2-0.63-0.17-0.98,0.01c-5.41,2.85-10.83,5.69-16.25,8.52
	c-1.53,0.8-3.24,0.16-3.58-1.41c-0.14-0.63-0.02-1.34,0.09-2c0.98-5.76,1.98-11.51,2.99-17.26c0.08-0.43-0.08-0.7-0.38-0.99
	c-4.36-4.22-8.7-8.45-13.06-12.67c-0.63-0.61-0.97-1.31-0.88-2.2c0.1-1,0.89-1.88,1.96-2.04c3.15-0.48,6.3-0.93,9.45-1.39
	c3.03-0.44,6.06-0.86,9.08-1.33c0.26-0.04,0.58-0.33,0.7-0.58c2.71-5.43,5.41-10.88,8.1-16.32c0.44-0.9,1.09-1.5,2.13-1.55
	c1.15-0.06,1.91,0.51,2.41,1.51c2.45,4.95,4.9,9.9,7.35,14.86c0.25,0.51,0.54,1.01,0.75,1.54c0.16,0.43,0.46,0.55,0.86,0.6
	c5.8,0.84,11.61,1.68,17.41,2.52c0.31,0.05,0.63,0.08,0.94,0.14c0.96,0.17,1.61,0.71,1.9,1.64
	C401.54-76.12,401.33-75.29,400.63-74.61z"/>
<path class="st2" d="M369.35-158.54c-34.58,0-62.61,28.03-62.61,62.61s28.03,62.61,62.61,62.61s62.61-28.03,62.61-62.61
	S403.93-158.54,369.35-158.54z M400.63-103.64c-1.95,1.91-3.91,3.81-5.86,5.71c-2.46,2.39-4.91,4.78-7.38,7.15
	c-0.33,0.32-0.42,0.62-0.35,1.06c1.05,5.98,2.08,11.96,3.11,17.95c0.03,0.19,0.03,0.38,0.04,0.47c0.01,2.02-1.86,3.12-3.63,2.2
	c-3.56-1.85-7.1-3.72-10.65-5.58c-1.89-0.99-3.78-1.97-5.66-2.98c-0.36-0.2-0.63-0.17-0.98,0.01c-5.41,2.85-10.83,5.69-16.25,8.52
	c-1.53,0.8-3.24,0.16-3.58-1.41c-0.14-0.63-0.02-1.34,0.09-2c0.98-5.76,1.98-11.51,2.99-17.26c0.08-0.43-0.08-0.7-0.38-0.99
	c-4.36-4.22-8.7-8.45-13.06-12.67c-0.63-0.61-0.97-1.31-0.88-2.2c0.1-1,0.89-1.88,1.96-2.04c3.15-0.48,6.3-0.93,9.45-1.39
	c3.03-0.44,6.06-0.86,9.08-1.33c0.26-0.04,0.58-0.33,0.7-0.58c2.71-5.43,5.41-10.88,8.1-16.32c0.44-0.9,1.09-1.5,2.13-1.55
	c1.15-0.06,1.91,0.51,2.41,1.51c2.45,4.95,4.9,9.9,7.35,14.86c0.25,0.51,0.54,1.01,0.75,1.54c0.16,0.43,0.46,0.55,0.86,0.6
	c5.8,0.84,11.61,1.68,17.41,2.52c0.31,0.05,0.63,0.08,0.94,0.14c0.96,0.17,1.61,0.71,1.9,1.64
	C401.54-105.15,401.33-104.32,400.63-103.64z"/>
<path class="st0" d="M373.33-192.12c-34.58,0-62.61,28.03-62.61,62.61s28.03,62.61,62.61,62.61s62.61-28.03,62.61-62.61
	S407.91-192.12,373.33-192.12z M404.62-137.22c-1.95,1.91-3.91,3.81-5.86,5.71c-2.46,2.39-4.91,4.78-7.38,7.15
	c-0.33,0.32-0.42,0.62-0.35,1.06c1.05,5.98,2.08,11.96,3.11,17.95c0.03,0.19,0.03,0.38,0.04,0.47c0.01,2.02-1.86,3.12-3.63,2.2
	c-3.56-1.85-7.1-3.72-10.65-5.58c-1.89-0.99-3.78-1.97-5.66-2.98c-0.36-0.2-0.63-0.17-0.98,0.01c-5.41,2.85-10.83,5.69-16.25,8.52
	c-1.53,0.8-3.24,0.16-3.58-1.41c-0.14-0.63-0.02-1.34,0.09-2c0.98-5.76,1.98-11.51,2.99-17.26c0.08-0.43-0.08-0.7-0.38-0.99
	c-4.36-4.22-8.7-8.45-13.06-12.67c-0.63-0.61-0.97-1.31-0.88-2.2c0.1-1,0.89-1.88,1.96-2.04c3.15-0.48,6.3-0.93,9.45-1.39
	c3.03-0.44,6.06-0.86,9.08-1.33c0.26-0.04,0.58-0.33,0.7-0.58c2.71-5.43,5.41-10.88,8.1-16.32c0.44-0.9,1.09-1.5,2.13-1.55
	c1.15-0.06,1.91,0.51,2.41,1.51c2.45,4.95,4.9,9.9,7.35,14.86c0.25,0.51,0.54,1.01,0.75,1.54c0.16,0.43,0.46,0.55,0.86,0.6
	c5.8,0.84,11.61,1.68,17.41,2.52c0.31,0.05,0.63,0.08,0.94,0.14c0.96,0.17,1.61,0.71,1.9,1.64
	C405.53-138.73,405.31-137.9,404.62-137.22z"/>
<g>
	<path class="st2" d="M288.21,599.31c1.16,2.33,2.2,4.52,3.33,6.66c1.82,3.43,3.15,7.01,3.49,10.92
		c1.04,12.19-3.54,21.99-12.61,29.91c-0.83,0.72-1.75,1.33-2.81,2.14c0.9-3.61,1.87-6.89,2.53-10.24c0.66-3.34,1.1-6.75,0.02-10.24
		c-4.78,13.84-14.34,22-28.77,24.76c9.18,9.65,22.78,14.35,37.53,8.48c13.64-5.43,22.64-21.14,20.45-35.2
		C309.36,613.74,299,601.49,288.21,599.31z"/>
	<path class="st2" d="M275.59,509.69c-60.21,0-109.02,48.81-109.02,109.02s48.81,109.02,109.02,109.02s109.02-48.81,109.02-109.02
		S335.8,509.69,275.59,509.69z M320.06,648.78c-6.72,16.14-18.83,26.27-36.15,29.19c-26.37,4.44-49.61-15.78-52.5-39.84
		c-1.78-14.83,0.65-28.86,9.5-41.32c1.19-1.67,2.53-3.23,3.8-4.84c0.25,11.01,1.84,21.23,10.41,28.91c0.18-0.03,0.36-0.06,0.55-0.1
		c0-0.75,0.15-1.53-0.02-2.24c-1.74-7.02-1.57-14.16-1.53-21.3c0.09-14.77,5.96-26.99,16.65-36.92c3.21-2.99,7-5.36,10.53-8
		c0.28-0.21,0.63-0.33,1.06-0.56c-0.5,1.9-1.04,3.63-1.4,5.41c-1.43,7,0.51,13.19,4.68,18.8c3.38,4.54,7.74,8.04,12.19,11.46
		c4.77,3.66,9.64,7.21,13.59,11.82c5.6,6.56,9.84,13.86,10.82,22.53C323.24,630.88,323.66,640.15,320.06,648.78z"/>
</g>
<g>
	<path class="st2" d="M514.68,327.11c0,2.77-0.03,5.54,0.01,8.31c0.03,1.99,1.58,3.68,3.49,3.9c1.8,0.21,3.55-1.07,4.05-3
		c0.12-0.47,0.17-0.97,0.17-1.46c0.01-5.16,0.01-10.32,0-15.48c0-0.38-0.03-0.76-0.09-1.13c-0.39-2.33-2.71-3.82-4.89-3.13
		c-1.57,0.49-2.72,2.05-2.74,3.83C514.65,321.66,514.67,324.38,514.68,327.11C514.67,327.11,514.68,327.11,514.68,327.11z"/>
	<path class="st2" d="M488.02,335.25c0.03,1.76,0.85,3.1,2.5,3.79c1.47,0.62,2.81,0.26,3.95-0.82c0.93-0.88,1.27-2.02,1.27-3.28
		c0-5.23,0-10.45-0.01-15.68c0-0.36-0.03-0.72-0.09-1.07c-0.31-1.73-1.71-3.07-3.38-3.24c-1.68-0.17-3.29,0.8-3.91,2.45
		c-0.22,0.59-0.32,1.26-0.33,1.9c-0.04,2.61-0.01,5.23-0.01,7.84c0,0,0,0,0,0C488.01,329.85,487.97,332.55,488.02,335.25z"/>
	<path class="st2" d="M541.35,335.41c0.02,1.99,1.56,3.68,3.47,3.9c1.78,0.2,3.53-1.05,4.04-2.93c0.13-0.49,0.18-1.01,0.18-1.52
		c0.01-5.16,0.01-10.32,0-15.48c0-0.36-0.01-0.72-0.08-1.07c-0.31-1.56-1.16-2.71-2.71-3.2c-2.41-0.76-4.89,1.12-4.92,3.74
		c-0.03,2.75-0.01,5.5-0.01,8.24C541.34,329.87,541.32,332.64,541.35,335.41z"/>
	<path class="st2" d="M517.67,264.21c-60.21,0-109.02,48.81-109.02,109.02s48.81,109.02,109.02,109.02s109.02-48.81,109.02-109.02
		S577.88,264.21,517.67,264.21z M571.63,415.9c0,7.17-4.75,12.86-11.81,14.15c-0.61,0.11-1.24,0.17-1.86,0.17
		c-17.8,0.01-35.61,0.01-53.41,0.01c-8.58,0-17.15,0-25.73,0c-7.24,0-12.85-4.62-14.2-11.72c-0.17-0.89-0.2-1.82-0.2-2.73
		c-0.01-19.79-0.01-39.58-0.01-59.38c0-6.43-0.02-12.87,0-19.3c0.02-6.49,4.18-11.93,10.46-13.6c1.19-0.32,2.46-0.42,3.7-0.49
		c1.46-0.08,2.94-0.02,4.48-0.02c0-1.45-0.02-2.79,0-4.13c0.08-5,4.14-8.96,9.1-8.88c3.92,0.06,7.57,3.1,8.29,7.11
		c0.28,1.59,0.18,3.24,0.25,4.87c0.01,0.31,0,0.62,0,0.98c3.01,0,5.97,0,9.03,0c0-0.75-0.03-1.5,0.01-2.25
		c0.07-1.29,0.03-2.61,0.29-3.86c0.85-4,4.51-6.87,8.57-6.86c4.41,0.01,8.34,3.59,8.67,8.01c0.12,1.62,0.02,3.26,0.02,4.94
		c3.08,0,6.03,0,9.1,0c0-0.28-0.01-0.58,0-0.88c0.09-1.76-0.04-3.56,0.32-5.26c0.87-4.07,4.54-6.84,8.66-6.81
		c4.08,0.03,7.81,3.2,8.44,7.34c0.24,1.58,0.13,3.21,0.18,4.81c0.01,0.26,0,0.53,0,0.87c1.23,0,2.39-0.01,3.54,0
		c2.79,0.02,5.4,0.71,7.72,2.28c4.12,2.79,6.36,6.7,6.37,11.67C571.66,363.27,571.64,389.59,571.63,415.9z"/>
	<path class="st2" d="M472.64,343.66c0,0.35,0,0.63,0,0.92c0,9,0,18.01,0,27.01c0,14.7,0,29.4,0,44.1c0,1.08,0.11,2.14,0.64,3.11
		c1.19,2.2,3.07,3.21,5.54,3.21c19.57,0,39.14,0,58.71,0c6.61,0,13.23,0.01,19.84,0c3.46-0.01,6.01-2.49,6.01-5.85
		c0-23.93,0-47.85,0-71.78c0-0.23-0.03-0.47-0.05-0.72C533.08,343.66,502.93,343.66,472.64,343.66z M480.13,358.3
		c5.01,0,10.01,0,15.09,0c0,4.48,0,8.9,0,13.37c-5.03,0-10.04,0-15.09,0C480.13,367.22,480.13,362.79,480.13,358.3z M495.19,376.26
		c0,4.49,0,8.94,0,13.44c-5.01,0-10,0-15.05,0c0-4.45,0-8.9,0-13.44C485.17,376.26,490.15,376.26,495.19,376.26z M494.6,407.74
		c-4.67-0.02-9.33-0.02-14-0.02c-0.13,0-0.26-0.02-0.47-0.04c0-4.48,0-8.89,0-13.37c5.02,0,10.02,0,15.08,0
		c0.01,0.2,0.04,0.39,0.04,0.59c0,4.04,0,8.08,0.01,12.13C495.25,407.53,495.16,407.74,494.6,407.74z M515.42,407.68
		c-0.19,0.01-0.41,0.04-0.62,0.04c-4.6,0-9.2,0.01-13.8,0.01c-0.37,0-0.69,0.05-0.69-0.52c0.02-4.2,0.01-8.4,0.02-12.6
		c0-0.09,0.02-0.17,0.05-0.33c5.04,0,10.01,0,15.05,0C515.42,398.73,515.42,403.17,515.42,407.68z M515.43,389.69
		c-5,0-9.99,0-15.05,0c0-4.46,0-8.92,0-13.43c5.01,0,10,0,15.05,0C515.43,380.74,515.43,385.19,515.43,389.69z M515.48,371.01
		c0,0.2,0,0.4,0,0.65c-5.06,0-10.06,0-15.14,0c0-4.47,0-8.89,0-13.38c0.26-0.01,0.49-0.04,0.73-0.04c4.55,0,9.11,0,13.66-0.02
		c0.56,0,0.77,0.11,0.77,0.73C515.47,362.97,515.48,366.99,515.48,371.01z M535.67,407.68c-0.24,0.02-0.45,0.04-0.67,0.04
		c-4.56,0-9.11,0-13.67,0.02c-0.6,0-0.8-0.14-0.79-0.77c0.03-4,0.01-7.99,0.01-11.99c0-0.2,0-0.4,0-0.68c5.08,0,10.07,0,15.11,0
		C535.67,398.76,535.67,403.19,535.67,407.68z M520.62,389.69c0-4.45,0-8.9,0-13.43c5.02,0,10.01,0,15.05,0c0,4.49,0,8.94,0,13.43
		C530.66,389.69,525.67,389.69,520.62,389.69z M535.69,371.66c-5.02,0-10.02,0-15.08,0c0-4.44,0-8.86,0-13.36c5,0,10,0,15.08,0
		C535.69,362.77,535.69,367.18,535.69,371.66z M541.54,358.22c4.58,0.03,9.15,0.02,13.73,0.02c0.2,0,0.39,0.02,0.64,0.03
		c0,4.46,0,8.9,0,13.39c-5,0-10.01,0-15.12,0c0-1.01,0-1.97,0-2.93c0-3.24,0.01-6.47-0.01-9.71
		C540.78,358.45,540.89,358.22,541.54,358.22z M555.91,407.69c-0.26,0.01-0.49,0.04-0.73,0.04c-4.56,0-9.11,0-13.67,0
		c-0.39,0-0.73,0.05-0.73-0.55c0.02-4.18,0.01-8.35,0.01-12.53c0-0.09,0.02-0.17,0.04-0.35c5.04,0,10.04,0,15.07,0
		C555.91,398.76,555.91,403.19,555.91,407.69z M555.92,389.7c-5.02,0-10.02,0-15.07,0c0-4.45,0-8.9,0-13.41c5,0,10,0,15.07,0
		C555.92,380.78,555.92,385.22,555.92,389.7z"/>
</g>
</svg>
