<?xml version="1.0" encoding="utf-8"?>
<!-- Generator: Adobe Illustrator 25.2.0, SVG Export Plug-In . SVG Version: 6.00 Build 0)  -->
<svg version="1.1" id="Layer_1" xmlns="http://www.w3.org/2000/svg" xmlns:xlink="http://www.w3.org/1999/xlink" x="0px" y="0px"
	 viewBox="0 0 250 250" style="enable-background:new 0 0 250 250;" xml:space="preserve">
<style type="text/css">
	.st0{fill:#7F8183;}
	.st1{fill:#FFFFFF;}
	.st2{fill:#37A8DF;}
</style>
<g>
	<path class="st0" d="M137.61,106.04c1.16,2.33,2.2,4.52,3.33,6.66c1.82,3.43,3.15,7.01,3.49,10.92
		c1.04,12.19-3.54,21.99-12.61,29.91c-0.83,0.72-1.75,1.33-2.81,2.14c0.9-3.61,1.87-6.89,2.53-10.24c0.66-3.34,1.1-6.75,0.02-10.24
		c-4.78,13.84-14.34,22-28.77,24.76c9.18,9.65,22.78,14.35,37.53,8.48c13.64-5.43,22.64-21.14,20.45-35.2
		C158.76,120.47,148.4,108.21,137.61,106.04z"/>
	<path class="st0" d="M124.99,16.42c-60.21,0-109.02,48.81-109.02,109.02s48.81,109.02,109.02,109.02s109.02-48.81,109.02-109.02
		S185.2,16.42,124.99,16.42z M169.47,155.51c-6.72,16.14-18.83,26.27-36.15,29.19c-26.37,4.44-49.61-15.78-52.5-39.84
		c-1.78-14.83,0.65-28.86,9.5-41.32c1.19-1.67,2.53-3.23,3.8-4.84c0.25,11.01,1.84,21.23,10.41,28.91c0.18-0.03,0.36-0.06,0.55-0.1
		c0-0.75,0.15-1.53-0.02-2.24c-1.74-7.02-1.57-14.16-1.53-21.3c0.09-14.77,5.96-26.99,16.65-36.92c3.21-2.99,7-5.36,10.53-8
		c0.28-0.21,0.63-0.33,1.06-0.56c-0.5,1.9-1.04,3.63-1.4,5.41c-1.43,7,0.51,13.19,4.68,18.8c3.38,4.54,7.74,8.04,12.19,11.46
		c4.77,3.66,9.64,7.21,13.59,11.82c5.6,6.56,9.84,13.86,10.82,22.53C172.65,137.61,173.06,146.88,169.47,155.51z"/>
</g>
<path class="st1" d="M369.35-129.51c-34.58,0-62.61,28.03-62.61,62.61s28.03,62.61,62.61,62.61s62.61-28.03,62.61-62.61
	S403.93-129.51,369.35-129.51z M400.63-74.61c-1.95,1.91-3.91,3.81-5.86,5.71c-2.46,2.39-4.91,4.78-7.38,7.15
	c-0.33,0.32-0.42,0.62-0.35,1.06c1.05,5.98,2.08,11.96,3.11,17.95c0.03,0.19,0.03,0.38,0.04,0.47c0.01,2.02-1.86,3.12-3.63,2.2
	c-3.56-1.85-7.1-3.72-10.65-5.58c-1.89-0.99-3.78-1.97-5.66-2.98c-0.36-0.2-0.63-0.17-0.98,0.01c-5.41,2.85-10.83,5.69-16.25,8.52
	c-1.53,0.8-3.24,0.16-3.58-1.41c-0.14-0.63-0.02-1.34,0.09-2c0.98-5.76,1.98-11.51,2.99-17.26c0.08-0.43-0.08-0.7-0.38-0.99
	c-4.36-4.22-8.7-8.45-13.06-12.67c-0.63-0.61-0.97-1.31-0.88-2.2c0.1-1,0.89-1.88,1.96-2.04c3.15-0.48,6.3-0.93,9.45-1.39
	c3.03-0.44,6.06-0.86,9.08-1.33c0.26-0.04,0.58-0.33,0.7-0.58c2.71-5.43,5.41-10.88,8.1-16.32c0.44-0.9,1.09-1.5,2.13-1.55
	c1.15-0.06,1.91,0.51,2.41,1.51c2.45,4.95,4.9,9.9,7.35,14.86c0.25,0.51,0.54,1.01,0.75,1.54c0.16,0.43,0.46,0.55,0.86,0.6
	c5.8,0.84,11.61,1.68,17.41,2.52c0.31,0.05,0.63,0.08,0.94,0.14c0.96,0.17,1.61,0.71,1.9,1.64
	C401.54-76.12,401.33-75.29,400.63-74.61z"/>
<path class="st0" d="M369.35-158.54c-34.58,0-62.61,28.03-62.61,62.61s28.03,62.61,62.61,62.61s62.61-28.03,62.61-62.61
	S403.93-158.54,369.35-158.54z M400.63-103.64c-1.95,1.91-3.91,3.81-5.86,5.71c-2.46,2.39-4.91,4.78-7.38,7.15
	c-0.33,0.32-0.42,0.62-0.35,1.06c1.05,5.98,2.08,11.96,3.11,17.95c0.03,0.19,0.03,0.38,0.04,0.47c0.01,2.02-1.86,3.12-3.63,2.2
	c-3.56-1.85-7.1-3.72-10.65-5.58c-1.89-0.99-3.78-1.97-5.66-2.98c-0.36-0.2-0.63-0.17-0.98,0.01c-5.41,2.85-10.83,5.69-16.25,8.52
	c-1.53,0.8-3.24,0.16-3.58-1.41c-0.14-0.63-0.02-1.34,0.09-2c0.98-5.76,1.98-11.51,2.99-17.26c0.08-0.43-0.08-0.7-0.38-0.99
	c-4.36-4.22-8.7-8.45-13.06-12.67c-0.63-0.61-0.97-1.31-0.88-2.2c0.1-1,0.89-1.88,1.96-2.04c3.15-0.48,6.3-0.93,9.45-1.39
	c3.03-0.44,6.06-0.86,9.08-1.33c0.26-0.04,0.58-0.33,0.7-0.58c2.71-5.43,5.41-10.88,8.1-16.32c0.44-0.9,1.09-1.5,2.13-1.55
	c1.15-0.06,1.91,0.51,2.41,1.51c2.45,4.95,4.9,9.9,7.35,14.86c0.25,0.51,0.54,1.01,0.75,1.54c0.16,0.43,0.46,0.55,0.86,0.6
	c5.8,0.84,11.61,1.68,17.41,2.52c0.31,0.05,0.63,0.08,0.94,0.14c0.96,0.17,1.61,0.71,1.9,1.64
	C401.54-105.15,401.33-104.32,400.63-103.64z"/>
<path class="st2" d="M373.33-192.12c-34.58,0-62.61,28.03-62.61,62.61s28.03,62.61,62.61,62.61s62.61-28.03,62.61-62.61
	S407.91-192.12,373.33-192.12z M404.62-137.22c-1.95,1.91-3.91,3.81-5.86,5.71c-2.46,2.39-4.91,4.78-7.38,7.15
	c-0.33,0.32-0.42,0.62-0.35,1.06c1.05,5.98,2.08,11.96,3.11,17.95c0.03,0.19,0.03,0.38,0.04,0.47c0.01,2.02-1.86,3.12-3.63,2.2
	c-3.56-1.85-7.1-3.72-10.65-5.58c-1.89-0.99-3.78-1.97-5.66-2.98c-0.36-0.2-0.63-0.17-0.98,0.01c-5.41,2.85-10.83,5.69-16.25,8.52
	c-1.53,0.8-3.24,0.16-3.58-1.41c-0.14-0.63-0.02-1.34,0.09-2c0.98-5.76,1.98-11.51,2.99-17.26c0.08-0.43-0.08-0.7-0.38-0.99
	c-4.36-4.22-8.7-8.45-13.06-12.67c-0.63-0.61-0.97-1.31-0.88-2.2c0.1-1,0.89-1.88,1.96-2.04c3.15-0.48,6.3-0.93,9.45-1.39
	c3.03-0.44,6.06-0.86,9.08-1.33c0.26-0.04,0.58-0.33,0.7-0.58c2.71-5.43,5.41-10.88,8.1-16.32c0.44-0.9,1.09-1.5,2.13-1.55
	c1.15-0.06,1.91,0.51,2.41,1.51c2.45,4.95,4.9,9.9,7.35,14.86c0.25,0.51,0.54,1.01,0.75,1.54c0.16,0.43,0.46,0.55,0.86,0.6
	c5.8,0.84,11.61,1.68,17.41,2.52c0.31,0.05,0.63,0.08,0.94,0.14c0.96,0.17,1.61,0.71,1.9,1.64
	C405.53-138.73,405.31-137.9,404.62-137.22z"/>
</svg>
