<?xml version="1.0" encoding="utf-8"?>
<!DOCTYPE svg PUBLIC "-//W3C//DTD SVG 20010904//EN" "http://www.w3.org/TR/2001/REC-SVG-20010904/DTD/svg10.dtd">
<svg version="1.0" xmlns="http://www.w3.org/2000/svg" width="485px" height="494px" viewBox="0 0 485 494" preserveAspectRatio="xMidYMid meet">
 <g fill="#080808">
 </g>
 <g fill="#101010">
 </g>
 <g fill="#191919">
 </g>
 <g fill="#212121">
 </g>
 <g fill="#292929">
  <path d="M192.9 459.4 c-27.2 -15.6 -79.7 -45.9 -116.6 -67.2 -48.3 -27.8 -67.3 -39.2 -67.3 -40.4 0 -1.1 0.8 -1.8 2 -1.8 1.1 0 2 0.7 2 1.5 0 0.8 0.9 1.5 1.9 1.5 3 0 5.1 1.1 5.1 2.6 0 0.8 0.9 1.4 1.9 1.4 3 0 5.1 1.1 5.1 2.6 0 0.8 1 1.4 2.5 1.4 1.8 0 2.5 0.5 2.5 2 0 1.6 0.7 2 3.5 2 2.4 0 3.5 0.5 3.5 1.5 0 0.8 0.9 1.5 1.9 1.5 3 0 5.1 1.1 5.1 2.6 0 0.8 0.9 1.4 1.9 1.4 3 0 5.1 1.1 5.1 2.6 0 0.8 1 1.4 2.5 1.4 1.6 0 2.5 0.6 2.5 1.5 0 0.8 0.9 1.5 1.9 1.5 3 0 5.1 1.1 5.1 2.6 0 0.8 0.9 1.4 1.9 1.4 3 0 5.1 1.1 5.1 2.6 0 0.8 0.9 1.4 1.9 1.4 3 0 5.1 1.1 5.1 2.6 0 0.8 1 1.4 2.5 1.4 1.6 0 2.5 0.6 2.5 1.5 0 0.8 0.9 1.5 1.9 1.5 3 0 5.1 1.1 5.1 2.6 0 0.8 0.9 1.4 1.9 1.4 3 0 5.1 1.1 5.1 2.6 0 0.8 1 1.4 2.5 1.4 1.8 0 2.5 0.5 2.5 2 0 1.6 0.7 2 3.5 2 2.4 0 3.5 0.5 3.5 1.5 0 0.8 0.9 1.5 1.9 1.5 3 0 5.1 1.1 5.1 2.6 0 0.8 0.9 1.4 1.9 1.4 3 0 5.1 1.1 5.1 2.6 0 0.8 0.9 1.4 1.9 1.4 3 0 5.1 1.1 5.1 2.6 0 0.8 1 1.4 2.5 1.4 1.6 0 2.5 0.6 2.5 1.5 0 0.8 0.9 1.5 1.9 1.5 3 0 5.1 1.1 5.1 2.6 0 0.8 0.9 1.4 1.9 1.4 3 0 5.1 1.1 5.1 2.6 0 0.8 0.9 1.4 1.9 1.4 3 0 5.1 1.1 5.1 2.6 0 0.8 0.9 1.4 1.9 1.4 3 0 5.1 1.1 5.1 2.6 0 0.8 1 1.4 2.5 1.4 1.8 0 2.5 0.5 2.5 2 0 1.6 0.7 2 3.5 2 2.4 0 3.5 0.5 3.5 1.5 0 0.8 0.9 1.5 1.9 1.5 3 0 5.1 1.1 5.1 2.6 0 0.8 0.9 1.4 1.9 1.4 3 0 5.1 1.1 5.1 2.6 0 0.8 0.9 1.4 1.9 1.4 3 0 5.1 1.1 5.1 2.6 0 0.8 1 1.4 2.5 1.4 1.6 0 2.5 0.6 2.5 1.5 0 0.8 0.9 1.5 1.9 1.5 3 0 5.1 1.1 5.1 2.6 0 0.8 0.9 1.4 1.9 1.4 3 0 5.1 1.1 5.1 2.6 0 0.8 1 1.4 2.5 1.4 1.6 0 2.5 0.6 2.5 1.5 0 0.8 0.9 1.5 1.9 1.5 3 0 5.1 1.1 5.1 2.6 0 0.8 0.9 1.4 1.9 1.4 2.9 0 5.1 1.1 5.1 2.5 0 0.7 1.2 1.5 2.8 1.7 1.5 0.3 3.2 0.6 3.7 0.8 2.8 0.7 6.5 -0.1 6.5 -1.5 0 -0.9 0.9 -1.5 2.5 -1.5 1.5 0 2.5 -0.6 2.5 -1.4 0 -1.5 2.1 -2.6 5.1 -2.6 1 0 1.9 -0.7 1.9 -1.5 0 -0.9 0.9 -1.5 2.5 -1.5 1.5 0 2.5 -0.6 2.5 -1.4 0 -1.5 2.1 -2.6 5.1 -2.6 1 0 1.9 -0.6 1.9 -1.4 0 -1.5 2.1 -2.6 5.1 -2.6 1 0 1.9 -0.7 1.9 -1.5 0 -0.9 0.9 -1.5 2.5 -1.5 1.5 0 2.5 -0.6 2.5 -1.4 0 -1.5 2.1 -2.6 5.1 -2.6 1 0 1.9 -0.6 1.9 -1.4 0 -1.5 2.1 -2.6 5.1 -2.6 1 0 1.9 -0.7 1.9 -1.5 0 -0.9 0.9 -1.5 2.5 -1.5 1.5 0 2.5 -0.6 2.5 -1.4 0 -1.5 2.1 -2.6 5.1 -2.6 1 0 1.9 -0.7 1.9 -1.5 0 -0.9 0.9 -1.5 2.5 -1.5 1.5 0 2.5 -0.6 2.5 -1.4 0 -1.5 2.1 -2.6 5.1 -2.6 1 0 1.9 -0.6 1.9 -1.4 0 -1.5 2.1 -2.6 5.1 -2.6 1 0 1.9 -0.7 1.9 -1.5 0 -0.9 0.9 -1.5 2.5 -1.5 1.5 0 2.5 -0.6 2.5 -1.4 0 -1.5 2.1 -2.6 5.1 -2.6 1 0 1.9 -0.7 1.9 -1.5 0 -1 1.1 -1.5 3.5 -1.5 2.8 0 3.5 -0.4 3.5 -2 0 -1.5 0.7 -2 2.5 -2 1.5 0 2.5 -0.6 2.5 -1.4 0 -1.5 2.1 -2.6 5.1 -2.6 1 0 1.9 -0.7 1.9 -1.5 0 -0.9 0.9 -1.5 2.5 -1.5 1.5 0 2.5 -0.6 2.5 -1.4 0 -1.5 2.1 -2.6 5.1 -2.6 1 0 1.9 -0.6 1.9 -1.4 0 -1.5 2.1 -2.6 5.1 -2.6 1 0 1.9 -0.7 1.9 -1.5 0 -0.9 0.9 -1.5 2.5 -1.5 1.5 0 2.5 -0.6 2.5 -1.4 0 -1.5 2.1 -2.6 5.1 -2.6 1 0 1.9 -0.7 1.9 -1.5 0 -0.9 0.9 -1.5 2.5 -1.5 1.5 0 2.5 -0.6 2.5 -1.4 0 -1.5 2.1 -2.6 5.1 -2.6 1 0 1.9 -0.7 1.9 -1.5 0 -0.9 0.9 -1.5 2.5 -1.5 1.6 0 2.5 -0.6 2.5 -1.5 0 -0.9 0.9 -1.5 2.5 -1.5 1.5 0 2.5 -0.6 2.5 -1.4 0 -1.5 2.1 -2.6 5.1 -2.6 1 0 1.9 -0.6 1.9 -1.4 0 -1.5 2.1 -2.6 5.1 -2.6 1 0 1.9 -0.7 1.9 -1.5 0 -0.9 0.9 -1.5 2.5 -1.5 1.5 0 2.5 -0.6 2.5 -1.4 0 -1.5 2.1 -2.6 5.1 -2.6 1 0 1.9 -0.6 1.9 -1.4 0 -1.5 2.1 -2.6 5.1 -2.6 1 0 1.9 -0.7 1.9 -1.5 0 -0.9 0.9 -1.5 2.5 -1.5 1.5 0 2.5 -0.6 2.5 -1.4 0 -1.5 2.1 -2.6 5.1 -2.6 1 0 1.9 -0.7 1.9 -1.5 0 -0.9 0.9 -1.5 2.5 -1.5 1.5 0 2.5 -0.6 2.5 -1.4 0 -1.5 2.1 -2.6 5.1 -2.6 1 0 1.9 -0.7 1.9 -1.5 0 -0.8 0.9 -1.5 2 -1.5 1.2 0 2 0.7 2 1.8 0 1.2 -10.2 7.6 -34.8 21.8 -25.9 15.1 -192.5 111.8 -196.3 114 -0.3 0.2 -22.8 -12.5 -50 -28.2z"/>
  <path d="M237.8 411.6 c-0.8 -0.7 -2.4 -1.7 -3.6 -2 -1.2 -0.4 -2.2 -1.4 -2.2 -2.2 0 -0.8 -0.9 -1.4 -1.9 -1.4 -3 0 -5.1 -1.1 -5.1 -2.6 0 -0.8 -1 -1.4 -2.5 -1.4 -1.6 0 -2.5 -0.6 -2.5 -1.5 0 -0.8 -0.9 -1.5 -1.9 -1.5 -3 0 -5.1 -1.1 -5.1 -2.6 0 -0.8 -0.9 -1.4 -1.9 -1.4 -3 0 -5.1 -1.1 -5.1 -2.6 0 -0.8 -1 -1.4 -2.4 -1.4 -1.4 0 -3.1 -0.6 -3.8 -1.4 -0.8 -0.7 -2.4 -1.7 -3.6 -2 -1.2 -0.4 -2.2 -1.4 -2.2 -2.2 0 -0.8 -0.9 -1.4 -1.9 -1.4 -3 0 -5.1 -1.1 -5.1 -2.6 0 -0.8 -1 -1.4 -2.5 -1.4 -1.6 0 -2.5 -0.6 -2.5 -1.5 0 -0.8 -0.9 -1.5 -1.9 -1.5 -3 0 -5.1 -1.1 -5.1 -2.6 0 -0.8 -0.9 -1.4 -1.9 -1.4 -3 0 -5.1 -1.1 -5.1 -2.6 0 -0.8 -1 -1.4 -2.4 -1.4 -1.4 0 -3.1 -0.6 -3.8 -1.4 -0.8 -0.7 -2.4 -1.7 -3.6 -2 -1.2 -0.4 -2.2 -1.4 -2.2 -2.2 0 -0.8 -0.9 -1.4 -2 -1.4 -2.3 0 -7 -2 -7 -3.1 0 -0.4 -1.1 -1 -2.5 -1.3 -1.4 -0.4 -2.5 -1.3 -2.5 -2.1 0 -0.8 -0.9 -1.5 -1.9 -1.5 -3 0 -5.1 -1.1 -5.1 -2.6 0 -0.8 -1 -1.4 -2.5 -1.4 -1.6 0 -2.5 -0.6 -2.5 -1.5 0 -0.8 -0.9 -1.5 -1.9 -1.5 -3 0 -5.1 -1.1 -5.1 -2.6 0 -0.8 -0.9 -1.4 -1.9 -1.4 -3 0 -5.1 -1.1 -5.1 -2.6 0 -0.8 -1 -1.4 -2.4 -1.4 -1.4 0 -3.1 -0.6 -3.8 -1.4 -0.8 -0.7 -2.4 -1.7 -3.6 -2 -1.2 -0.4 -2.2 -1.4 -2.2 -2.2 0 -0.8 -0.9 -1.4 -1.9 -1.4 -3 0 -5.1 -1.1 -5.1 -2.6 0 -0.8 -0.9 -1.4 -1.9 -1.4 -3 0 -5.1 -1.1 -5.1 -2.6 0 -0.8 -1 -1.4 -2.5 -1.4 -1.6 0 -2.5 -0.6 -2.5 -1.5 0 -0.8 -0.9 -1.5 -1.9 -1.5 -3 0 -5.1 -1.1 -5.1 -2.6 0 -0.8 -0.7 -1.4 -1.5 -1.4 -1 0 -1.5 -1 -1.5 -3.4 0 -3.5 1.3 -4.6 5.1 -4.6 1 0 1.9 -0.7 1.9 -1.5 0 -0.9 0.9 -1.5 2.5 -1.5 1.5 0 2.5 -0.6 2.5 -1.4 0 -1.5 2.1 -2.6 5.1 -2.6 1 0 1.9 -0.7 1.9 -1.5 0 -0.9 0.9 -1.5 2.5 -1.5 1.5 0 2.5 -0.6 2.5 -1.4 0 -1.5 2.1 -2.6 5.1 -2.6 1 0 1.9 -0.6 1.9 -1.4 0 -1.5 2.1 -2.6 5.1 -2.6 1 0 1.9 -0.7 1.9 -1.5 0 -0.9 0.9 -1.5 2.5 -1.5 1.6 0 2.5 -0.6 2.5 -1.5 0 -1.1 1.1 -1.5 3.9 -1.5 4.9 0 7.1 0.8 7.1 2.6 0 0.8 0.9 1.4 1.9 1.4 3 0 5.1 1.1 5.1 2.6 0 0.8 0.9 1.4 1.9 1.4 3 0 5.1 1.1 5.1 2.6 0 0.8 0.9 1.4 1.9 1.4 3 0 5.1 1.1 5.1 2.6 0 0.8 1 1.4 2.5 1.4 1.4 0 2.5 0.4 2.5 0.9 0 0.5 1.1 1.2 2.5 1.5 1.4 0.4 2.5 1.3 2.5 2.1 0 0.8 0.9 1.5 1.9 1.5 3 0 5.1 1.1 5.1 2.6 0 0.8 0.9 1.4 1.9 1.4 3 0 5.1 1.1 5.1 2.6 0 0.8 1 1.4 2.5 1.4 1.8 0 2.5 0.5 2.5 2 0 1.6 0.7 2 3.5 2 2.4 0 3.5 0.5 3.5 1.5 0 0.8 0.9 1.5 1.9 1.5 3 0 5.1 1.1 5.1 2.6 0 0.8 1 1.4 2.5 1.4 1.8 0 2.5 0.5 2.5 2 0 1.6 0.7 2 3.5 2 2.4 0 3.5 0.5 3.5 1.5 0 0.8 0.9 1.5 1.9 1.5 3 0 5.1 1.1 5.1 2.6 0 0.8 0.9 1.4 1.9 1.4 3 0 5.1 1.1 5.1 2.6 0 0.8 0.9 1.4 1.9 1.4 3 0 5.1 1.1 5.1 2.6 0 0.8 1 1.4 2.5 1.4 1.6 0 2.5 0.6 2.5 1.5 0 0.8 0.9 1.5 1.9 1.5 3.1 0 5.1 1.1 5.1 2.7 0 1.2 0.7 1.4 3 0.9 1.7 -0.3 4.4 -0.9 6 -1.2 1.7 -0.4 3 -1.2 3 -1.9 0 -1.4 2.2 -2.5 5.1 -2.5 1 0 1.9 -0.7 1.9 -1.5 0 -0.9 0.9 -1.5 2.5 -1.5 1.5 0 2.5 -0.6 2.5 -1.4 0 -1.5 2.1 -2.6 5.1 -2.6 1 0 1.9 -0.7 1.9 -1.5 0 -0.9 0.9 -1.5 2.5 -1.5 1.5 0 2.5 -0.6 2.5 -1.4 0 -1.5 2.1 -2.6 5.1 -2.6 1 0 1.9 -0.7 1.9 -1.5 0 -0.9 0.9 -1.5 2.5 -1.5 1.5 0 2.5 -0.6 2.5 -1.4 0 -1.5 2.1 -2.6 5.1 -2.6 1 0 1.9 -0.6 1.9 -1.4 0 -1.5 2.1 -2.6 5.1 -2.6 1 0 1.9 -0.7 1.9 -1.5 0 -0.9 0.9 -1.5 2.5 -1.5 1.5 0 2.5 -0.6 2.5 -1.4 0 -1.5 2.1 -2.6 5.1 -2.6 1 0 1.9 -0.7 1.9 -1.5 0 -0.9 0.9 -1.5 2.5 -1.5 1.5 0 2.5 -0.6 2.5 -1.4 0 -1.5 2.1 -2.6 5.1 -2.6 1 0 1.9 -0.7 1.9 -1.5 0 -0.9 0.9 -1.5 2.5 -1.5 1.5 0 2.5 -0.6 2.5 -1.4 0 -1.5 2.1 -2.6 5.1 -2.6 1 0 1.9 -0.7 1.9 -1.5 0 -0.9 0.9 -1.5 2.5 -1.5 1.5 0 2.5 -0.6 2.5 -1.4 0 -1.5 2.1 -2.6 5.1 -2.6 1 0 1.9 -0.6 1.9 -1.4 0 -1.5 2.1 -2.6 5.1 -2.6 1 0 1.9 -0.6 1.9 -1.4 0 -2.7 6 -3.5 10.5 -1.4 1.4 0.6 2.5 1.7 2.5 2.5 0 0.7 1.1 1.3 2.5 1.3 1.8 0 2.5 0.5 2.5 2 0 1.6 0.7 2 3.5 2 2.4 0 3.5 0.5 3.5 1.5 0 0.8 0.9 1.5 1.9 1.5 3 0 5.1 1.1 5.1 2.6 0 0.8 0.9 1.4 1.9 1.4 3 0 5.1 1.1 5.1 2.6 0 0.8 0.9 1.4 1.9 1.4 3 0 5.1 1.1 5.1 2.6 0 0.8 1 1.4 2.5 1.4 1.4 0 2.5 0.5 2.5 1 0 0.6 0.7 1 1.5 1 1.1 0 1.5 1.1 1.5 3.9 0 4 -1.1 5.1 -5.1 5.1 -1 0 -1.9 0.7 -1.9 1.5 0 0.9 -0.9 1.5 -2.5 1.5 -1.5 0 -2.5 0.6 -2.5 1.4 0 1.5 -2.1 2.6 -5.1 2.6 -1 0 -1.9 0.7 -1.9 1.5 0 0.9 -0.9 1.5 -2.5 1.5 -1.5 0 -2.5 0.6 -2.5 1.4 0 1.5 -2.1 2.6 -5.1 2.6 -1 0 -1.9 0.7 -1.9 1.5 0 0.9 -0.9 1.5 -2.5 1.5 -1.5 0 -2.5 0.6 -2.5 1.4 0 1.5 -2.1 2.6 -5.1 2.6 -1 0 -1.9 0.6 -1.9 1.4 0 0.8 -1 1.8 -2.2 2.2 -1.2 0.3 -2.8 1.3 -3.6 2 -0.7 0.8 -2.4 1.4 -3.8 1.4 -1.5 0 -2.4 0.6 -2.4 1.5 0 1 -1.1 1.5 -3.5 1.5 -2.8 0 -3.5 0.4 -3.5 2 0 1.5 -0.7 2 -2.5 2 -1.5 0 -2.5 0.6 -2.5 1.4 0 1.5 -2.1 2.6 -5.1 2.6 -1 0 -1.9 0.7 -1.9 1.5 0 0.9 -0.9 1.5 -2.5 1.5 -1.5 0 -2.5 0.6 -2.5 1.4 0 1.5 -2.1 2.6 -5.1 2.6 -1 0 -1.9 0.7 -1.9 1.5 0 0.9 -0.9 1.5 -2.5 1.5 -1.5 0 -2.5 0.6 -2.5 1.4 0 1.5 -2.1 2.6 -5.1 2.6 -1 0 -1.9 0.7 -1.9 1.5 0 0.9 -0.9 1.5 -2.5 1.5 -1.5 0 -2.5 0.6 -2.5 1.4 0 1.5 -2.1 2.6 -5.1 2.6 -1 0 -1.9 0.7 -1.9 1.5 0 0.9 -0.9 1.5 -2.5 1.5 -1.5 0 -2.5 0.6 -2.5 1.4 0 1.5 -2.1 2.6 -5.1 2.6 -1 0 -1.9 0.6 -1.9 1.4 0 0.8 -1 1.8 -2.2 2.2 -1.2 0.3 -2.8 1.3 -3.6 2 -0.7 0.8 -2.4 1.4 -3.8 1.4 -1.5 0 -2.4 0.6 -2.4 1.5 0 1 -1.1 1.5 -3.5 1.5 -2.8 0 -3.5 0.4 -3.5 2 0 1.5 -0.7 2 -2.5 2 -1.5 0 -2.5 0.6 -2.5 1.4 0 1.5 -2.1 2.6 -5.1 2.6 -1 0 -1.9 0.7 -1.9 1.5 0 0.9 -0.9 1.5 -2.5 1.5 -1.5 0 -2.5 0.6 -2.5 1.4 0 3 -10.7 4.8 -13.2 2.2z m76.2 -43 c23.4 -13.6 53.4 -31.1 66.8 -38.9 13.3 -7.8 24.1 -14.5 23.9 -15 -0.5 -1.7 -43.2 -25.8 -44.8 -25.4 -0.9 0.3 -26.8 15.1 -57.5 32.9 -30.8 17.9 -56.9 33 -58.1 33.7 -2 1 -6.9 -1.5 -47.5 -25 -75.7 -43.8 -74 -42.9 -75.7 -41.9 -5.3 2.8 -41.7 24.2 -42.3 24.8 -0.3 0.4 13.8 9 31.5 19.2 17.7 10.2 54.8 31.6 82.5 47.6 l50.4 29.2 14.2 -8.2 c7.7 -4.6 33.2 -19.4 56.6 -33z"/>
  <path d="M9 326.3 c0 -6.2 0.9 -9.3 2.6 -9.3 1.1 0 1.4 1.7 1.4 7 0 6.3 -0.2 7 -2 7 -1.7 0 -2 -0.7 -2 -4.7z"/>
  <path d="M471 304.5 c0 -6.8 0.2 -7.5 2 -7.5 1.7 0 2 0.7 2 5.3 0 6.6 -0.9 9.7 -2.6 9.7 -1.1 0 -1.4 -1.8 -1.4 -7.5z"/>
  <path d="M239 280.5 c0 -0.8 -0.9 -1.5 -1.9 -1.5 -3 0 -5.1 -1.1 -5.1 -2.6 0 -0.8 -0.9 -1.4 -1.9 -1.4 -3 0 -5.1 -1.1 -5.1 -2.6 0 -0.8 -1 -1.4 -2.4 -1.4 -1.4 0 -3.1 -0.6 -3.8 -1.4 -0.8 -0.7 -2.4 -1.7 -3.6 -2 -1.2 -0.4 -2.2 -1.4 -2.2 -2.2 0 -0.8 -0.9 -1.4 -1.9 -1.4 -3 0 -5.1 -1.1 -5.1 -2.6 0 -0.8 -1 -1.4 -2.4 -1.4 -1.4 0 -3.1 -0.6 -3.8 -1.4 -0.8 -0.7 -2.4 -1.7 -3.6 -2 -1.2 -0.4 -2.2 -1.4 -2.2 -2.2 0 -0.8 -1 -1.4 -2.5 -1.4 -2.2 0 -2.5 -0.4 -2.5 -3.5 0 -2.4 0.5 -3.5 1.5 -3.5 0.8 0 1.5 -0.9 1.5 -2 0 -1.6 0.7 -2 3.5 -2 2.8 0 3.5 -0.4 3.5 -2 0 -1.5 0.7 -2 2.5 -2 1.5 0 2.5 -0.6 2.5 -1.4 0 -1.5 2.1 -2.6 5.1 -2.6 1 0 1.9 -0.7 1.9 -1.5 0 -1 1.1 -1.5 3.5 -1.5 2.8 0 3.5 -0.4 3.5 -2 0 -1.5 0.7 -2 2.5 -2 1.5 0 2.5 -0.6 2.5 -1.4 0 -1.5 2.1 -2.6 5.1 -2.6 1 0 1.9 -0.6 1.9 -1.4 0 -1.5 2.1 -2.6 5.1 -2.6 1 0 1.9 -0.7 1.9 -1.5 0 -1 1.1 -1.5 3.5 -1.5 1.9 0 3.5 0.4 3.5 0.9 0 0.5 1.4 1.1 3 1.5 1.8 0.3 3 1.2 3 2.1 0 0.9 0.9 1.5 2.5 1.5 1.8 0 2.5 0.5 2.5 2 0 1.6 0.7 2 3.5 2 2.4 0 3.5 0.5 3.5 1.5 0 0.8 0.9 1.5 1.9 1.5 3 0 5.1 1.1 5.1 2.6 0 0.8 0.9 1.4 1.9 1.4 3 0 5.1 1.1 5.1 2.6 0 0.8 0.9 1.4 1.9 1.4 3 0 5.1 1.1 5.1 2.6 0 0.8 0.9 1.4 1.9 1.4 3 0 5.1 1.1 5.1 2.6 0 0.8 1 1.4 2.6 1.4 2.6 0 2.6 0.2 2.1 4.6 -0.5 4.9 -1.8 6.4 -5.4 6.4 -1.4 0 -2.3 0.6 -2.3 1.5 0 1 -1.1 1.5 -3.5 1.5 -2.8 0 -3.5 0.4 -3.5 2 0 1.5 -0.7 2 -2.5 2 -1.5 0 -2.5 0.6 -2.5 1.4 0 0.8 -1 1.8 -2.2 2.2 -1.2 0.3 -2.8 1.3 -3.6 2 -0.7 0.8 -2.4 1.4 -3.8 1.4 -1.4 0 -2.4 0.6 -2.4 1.4 0 1.5 -2.1 2.6 -5.1 2.6 -1 0 -1.9 0.7 -1.9 1.5 0 0.9 -0.9 1.5 -2.5 1.5 -1.5 0 -2.5 0.6 -2.5 1.4 0 1.6 -5 3.6 -9.1 3.6 -1.9 0 -2.9 -0.5 -2.9 -1.5z m39.8 -22.4 c7.9 -4.6 14.2 -8.5 14 -8.6 -1.1 -1.1 -51.2 -29.5 -52 -29.5 -1.1 0 -50 28.1 -49.6 28.5 0.2 0.2 11.9 7.1 26.2 15.3 l25.8 15 10.7 -6.2 c5.8 -3.4 17 -10 24.9 -14.5z"/>
  <path d="M10 277.3 c0 -1.3 6.8 -5.7 22.5 -14.8 19.8 -11.5 22.3 -13.2 20.7 -14.3 -0.9 -0.7 -11.3 -6.8 -22.9 -13.5 -14.9 -8.5 -21.3 -12.7 -21.3 -13.9 0 -1.1 0.8 -1.8 2 -1.8 1.1 0 2 0.7 2 1.5 0 0.8 0.9 1.5 1.9 1.5 3 0 5.1 1.1 5.1 2.6 0 0.8 1 1.4 2.5 1.4 1.6 0 2.5 0.6 2.5 1.5 0 0.8 0.9 1.5 1.9 1.5 3 0 5.1 1.1 5.1 2.6 0 0.8 0.9 1.4 1.9 1.4 3 0 5.1 1.1 5.1 2.6 0 0.8 0.9 1.4 1.9 1.4 3 0 5.1 1.1 5.1 2.6 0 0.8 1 1.4 2.5 1.4 1.6 0 2.5 0.6 2.5 1.5 0 0.8 0.9 1.5 1.9 1.5 3.8 0 5.1 1.1 5.1 4.5 0 4 -2.2 6.5 -5.6 6.5 -1.5 0 -2.4 0.6 -2.4 1.5 0 0.9 -0.9 1.5 -2.5 1.5 -1.5 0 -2.5 0.6 -2.5 1.4 0 1.5 -2.1 2.6 -5.1 2.6 -1 0 -1.9 0.7 -1.9 1.5 0 0.9 -0.9 1.5 -2.5 1.5 -1.5 0 -2.5 0.6 -2.5 1.4 0 1.5 -2.1 2.6 -5.1 2.6 -1 0 -1.9 0.6 -1.9 1.4 0 1.5 -2.1 2.6 -5.1 2.6 -1 0 -1.9 0.7 -1.9 1.5 0 0.9 -0.9 1.5 -2.5 1.5 -1.6 0 -2.5 0.6 -2.5 1.5 0 0.8 -0.9 1.5 -2 1.5 -1.2 0 -2 -0.7 -2 -1.7z"/>
  <path d="M471 277.5 c0 -0.8 -0.9 -1.5 -1.9 -1.5 -3 0 -5.1 -1.1 -5.1 -2.6 0 -0.8 -1 -1.4 -2.4 -1.4 -1.4 0 -3.1 -0.6 -3.8 -1.4 -0.8 -0.7 -2.4 -1.7 -3.6 -2 -1.2 -0.4 -2.2 -1.4 -2.2 -2.2 0 -0.8 -0.9 -1.4 -1.9 -1.4 -3 0 -5.1 -1.1 -5.1 -2.6 0 -0.8 -0.9 -1.4 -1.9 -1.4 -3 0 -5.1 -1.1 -5.1 -2.6 0 -0.8 -1 -1.4 -2.4 -1.4 -1.4 0 -3.1 -0.6 -3.8 -1.4 -0.8 -0.7 -2.4 -1.7 -3.6 -2 -1.7 -0.6 -2.2 -1.5 -2.2 -4.2 0 -2.4 0.5 -3.4 1.5 -3.4 0.8 0 1.5 -0.7 1.5 -1.5 0 -0.9 0.9 -1.5 2.5 -1.5 1.5 0 2.5 -0.6 2.5 -1.4 0 -1.5 2.1 -2.6 5.1 -2.6 1 0 1.9 -0.7 1.9 -1.5 0 -0.9 0.9 -1.5 2.5 -1.5 1.5 0 2.5 -0.6 2.5 -1.4 0 -1.5 2.1 -2.6 5.1 -2.6 1 0 1.9 -0.7 1.9 -1.5 0 -0.9 0.9 -1.5 2.5 -1.5 1.5 0 2.5 -0.6 2.5 -1.4 0 -1.5 2.1 -2.6 5.1 -2.6 1 0 1.9 -0.7 1.9 -1.5 0 -0.9 0.9 -1.5 2.5 -1.5 1.6 0 2.5 -0.6 2.5 -1.5 0 -0.8 0.9 -1.5 2 -1.5 1.2 0 2 0.7 2 1.8 0 1.2 -6.8 5.6 -22.5 14.7 -19.7 11.4 -22.2 13.2 -20.7 14.3 0.9 0.7 11.3 6.8 22.9 13.5 14.9 8.5 21.3 12.7 21.3 14 0 1 -0.8 1.7 -2 1.7 -1.1 0 -2 -0.7 -2 -1.5z"/>
  <path d="M118.3 211.8 c-1.3 -0.6 -2.3 -1.7 -2.3 -2.5 0 -0.7 -1.1 -1.3 -2.4 -1.3 -1.4 0 -3.1 -0.6 -3.8 -1.4 -0.8 -0.7 -2.4 -1.7 -3.6 -2 -1.2 -0.4 -2.2 -1.4 -2.2 -2.2 0 -0.8 -0.9 -1.4 -1.9 -1.4 -3 0 -5.1 -1.1 -5.1 -2.6 0 -0.8 -0.9 -1.4 -1.9 -1.4 -3 0 -5.1 -1.1 -5.1 -2.6 0 -0.8 -1 -1.4 -2.4 -1.4 -1.4 0 -3.1 -0.6 -3.8 -1.4 -0.8 -0.7 -2.4 -1.7 -3.6 -2 -1.2 -0.4 -2.2 -1.4 -2.2 -2.2 0 -0.8 -0.7 -1.4 -1.5 -1.4 -1 0 -1.5 -1 -1.5 -3.4 0 -3.5 1.3 -4.6 5.1 -4.6 1 0 1.9 -0.7 1.9 -1.5 0 -0.9 0.9 -1.5 2.5 -1.5 1.5 0 2.5 -0.6 2.5 -1.4 0 -1.5 2.1 -2.6 5.1 -2.6 1 0 1.9 -0.7 1.9 -1.5 0 -0.9 0.9 -1.5 2.5 -1.5 1.5 0 2.5 -0.6 2.5 -1.4 0 -1.5 2.1 -2.6 5.1 -2.6 1 0 1.9 -0.6 1.9 -1.4 0 -1.5 2.1 -2.6 5.1 -2.6 1 0 1.9 -0.7 1.9 -1.5 0 -0.9 0.9 -1.5 2.5 -1.5 1.5 0 2.5 -0.6 2.5 -1.4 0 -1.5 2.1 -2.6 5.1 -2.6 1 0 1.9 -0.7 1.9 -1.5 0 -0.9 0.9 -1.5 2.5 -1.5 1.5 0 2.5 -0.6 2.5 -1.4 0 -1.5 2.1 -2.6 5.1 -2.6 1 0 1.9 -0.7 1.9 -1.5 0 -1 1.1 -1.5 3.5 -1.5 2.8 0 3.5 -0.4 3.5 -2 0 -1.6 0.7 -2 3.5 -2 2.8 0 3.5 -0.4 3.5 -2 0 -1.5 0.7 -2 2.5 -2 1.5 0 2.5 -0.6 2.5 -1.4 0 -1.5 2.1 -2.6 5.1 -2.6 1 0 1.9 -0.7 1.9 -1.5 0 -0.9 0.9 -1.5 2.5 -1.5 1.5 0 2.5 -0.6 2.5 -1.4 0 -1.5 2.1 -2.6 5.1 -2.6 1 0 1.9 -0.7 1.9 -1.5 0 -0.9 0.9 -1.5 2.5 -1.5 1.5 0 2.5 -0.6 2.5 -1.4 0 -1.5 2.1 -2.6 5.1 -2.6 1 0 1.9 -0.6 1.9 -1.4 0 -1.5 2.1 -2.6 5.1 -2.6 1 0 1.9 -0.7 1.9 -1.5 0 -0.9 0.9 -1.5 2.5 -1.5 1.5 0 2.5 -0.6 2.5 -1.4 0 -1.5 2.1 -2.6 5.1 -2.6 1 0 1.9 -0.7 1.9 -1.5 0 -0.9 0.9 -1.5 2.5 -1.5 1.5 0 2.5 -0.6 2.5 -1.4 0 -1.5 2.1 -2.6 5.1 -2.6 1 0 1.9 -0.7 1.9 -1.5 0 -0.9 0.9 -1.5 2.5 -1.5 1.5 0 2.5 -0.6 2.5 -1.4 0 -1.5 2.1 -2.6 5.1 -2.6 1 0 1.9 -0.6 1.9 -1.4 0 -1.5 2.1 -2.6 5.1 -2.6 1 0 1.9 -0.7 1.9 -1.5 0 -1 1.1 -1.5 3.5 -1.5 1.9 0 3.5 0.4 3.5 0.9 0 0.5 1.4 1.1 3 1.5 1.8 0.3 3 1.2 3 2.1 0 0.9 0.9 1.5 2.5 1.5 1.6 0 2.5 0.6 2.5 1.5 0 0.8 0.9 1.5 1.9 1.5 3 0 5.1 1.1 5.1 2.6 0 0.8 0.9 1.4 1.9 1.4 3 0 5.1 1.1 5.1 2.6 0 0.8 1 1.4 2.5 1.4 1.6 0 2.5 0.6 2.5 1.5 0 0.8 0.9 1.5 1.9 1.5 3 0 5.1 1.1 5.1 2.6 0 0.8 0.9 1.4 1.9 1.4 3 0 5.1 1.1 5.1 2.6 0 0.8 0.9 1.4 1.9 1.4 3 0 5.1 1.1 5.1 2.6 0 0.8 1 1.4 2.5 1.4 1.6 0 2.5 0.6 2.5 1.5 0 0.8 0.9 1.5 1.9 1.5 3 0 5.1 1.1 5.1 2.6 0 0.8 0.9 1.4 1.9 1.4 3 0 5.1 1.1 5.1 2.6 0 0.8 1 1.4 2.5 1.4 1.6 0 2.5 0.6 2.5 1.5 0 0.8 0.9 1.5 1.9 1.5 3 0 5.1 1.1 5.1 2.6 0 0.8 0.9 1.4 1.9 1.4 3 0 5.1 1.1 5.1 2.6 0 0.8 0.9 1.4 1.9 1.4 3 0 5.1 1.1 5.1 2.6 0 0.8 1 1.4 2.5 1.4 1.6 0 2.5 0.6 2.5 1.5 0 0.8 0.9 1.5 1.9 1.5 3 0 5.1 1.1 5.1 2.6 0 0.8 0.9 1.4 1.9 1.4 3 0 5.1 1.1 5.1 2.6 0 0.8 1 1.4 2.5 1.4 1.6 0 2.5 0.6 2.5 1.5 0 0.8 0.9 1.5 1.9 1.5 3 0 5.1 1.1 5.1 2.6 0 0.8 0.9 1.4 1.9 1.4 3 0 5.1 1.1 5.1 2.6 0 0.8 0.9 1.4 1.9 1.4 3 0 5.1 1.1 5.1 2.6 0 0.8 1 1.4 2.5 1.4 1.6 0 2.5 0.6 2.5 1.5 0 0.8 0.9 1.5 1.9 1.5 3 0 5.1 1.1 5.1 2.6 0 0.8 0.9 1.4 1.9 1.4 3 0 5.1 1.1 5.1 2.6 0 0.8 1 1.4 2.5 1.4 2.3 0 2.5 0.4 2.5 4 0 2.2 -0.5 4 -1.1 4 -0.6 0 -1.7 0.7 -2.5 1.5 -0.9 0.8 -2.6 1.5 -4 1.5 -1.4 0 -2.4 0.6 -2.4 1.4 0 0.8 -1 1.8 -2.2 2.2 -1.2 0.3 -2.8 1.3 -3.6 2 -0.7 0.8 -2.4 1.4 -3.8 1.4 -1.4 0 -2.4 0.6 -2.4 1.4 0 1.5 -2.1 2.6 -5.1 2.6 -1 0 -1.9 0.7 -1.9 1.5 0 0.9 -0.9 1.5 -2.5 1.5 -1.5 0 -2.5 0.6 -2.5 1.4 0 1.5 -2.1 2.6 -5.1 2.6 -1 0 -1.9 0.6 -1.9 1.4 0 2.7 -4.9 3.3 -11.2 1.5 -2.2 -0.5 -3.8 -1.6 -3.8 -2.4 0 -0.9 -1 -1.5 -2.5 -1.5 -1.6 0 -2.5 -0.6 -2.5 -1.5 0 -0.8 -0.9 -1.5 -1.9 -1.5 -3 0 -5.1 -1.1 -5.1 -2.6 0 -0.8 -0.9 -1.4 -1.9 -1.4 -3 0 -5.1 -1.1 -5.1 -2.6 0 -0.8 -0.9 -1.4 -1.9 -1.4 -3 0 -5.1 -1.1 -5.1 -2.6 0 -0.8 -1 -1.4 -2.4 -1.4 -1.4 0 -3.1 -0.6 -3.8 -1.4 -0.8 -0.7 -2.4 -1.7 -3.6 -2 -1.2 -0.4 -2.2 -1.4 -2.2 -2.2 0 -0.8 -0.9 -1.4 -1.9 -1.4 -3 0 -5.1 -1.1 -5.1 -2.6 0 -0.8 -0.9 -1.4 -1.9 -1.4 -3 0 -5.1 -1.1 -5.1 -2.6 0 -0.8 -1 -1.4 -2.5 -1.4 -1.6 0 -2.5 -0.6 -2.5 -1.5 0 -0.8 -0.9 -1.5 -1.9 -1.5 -3 0 -5.1 -1.1 -5.1 -2.6 0 -0.8 -0.9 -1.4 -1.9 -1.4 -3 0 -5.1 -1.1 -5.1 -2.6 0 -0.8 -0.9 -1.4 -1.9 -1.4 -3 0 -5.1 -1.1 -5.1 -2.6 0 -0.8 -1 -1.4 -2.4 -1.4 -1.4 0 -3.1 -0.6 -3.8 -1.4 -0.8 -0.7 -2.4 -1.7 -3.6 -2 -1.2 -0.4 -2.2 -1.4 -2.2 -2.2 0 -0.8 -0.9 -1.4 -1.9 -1.4 -3 0 -5.1 -1.1 -5.1 -2.6 0 -0.8 -0.9 -1.4 -1.9 -1.4 -2.9 0 -5.1 -1.1 -5.1 -2.5 0 -0.7 -1.2 -1.5 -2.7 -1.7 -1.6 -0.3 -3.2 -0.6 -3.8 -0.8 -2.8 -0.7 -6.5 0.1 -6.5 1.5 0 0.9 -0.9 1.5 -2.5 1.5 -1.5 0 -2.5 0.6 -2.5 1.4 0 1.5 -2.1 2.6 -5.1 2.6 -1 0 -1.9 0.7 -1.9 1.5 0 0.9 -0.9 1.5 -2.5 1.5 -1.5 0 -2.5 0.6 -2.5 1.4 0 1.5 -2.1 2.6 -5.1 2.6 -1 0 -1.9 0.6 -1.9 1.4 0 1.5 -2.1 2.6 -5.1 2.6 -1 0 -1.9 0.7 -1.9 1.5 0 0.9 -0.9 1.5 -2.5 1.5 -1.5 0 -2.5 0.6 -2.5 1.4 0 1.5 -2.1 2.6 -5.1 2.6 -1 0 -1.9 0.7 -1.9 1.5 0 0.9 -0.9 1.5 -2.5 1.5 -1.5 0 -2.5 0.6 -2.5 1.4 0 1.5 -2.1 2.6 -5.1 2.6 -1 0 -1.9 0.6 -1.9 1.4 0 1.5 -2.1 2.6 -5.1 2.6 -1 0 -1.9 0.6 -1.9 1.4 0 0.8 -1 1.8 -2.2 2.2 -1.2 0.3 -2.8 1.3 -3.6 2 -0.7 0.8 -2.4 1.4 -3.8 1.4 -1.4 0 -2.4 0.6 -2.4 1.4 0 1.5 -2.1 2.6 -5.1 2.6 -1 0 -1.9 0.6 -1.9 1.4 0 1.5 -2.1 2.6 -5.1 2.6 -1 0 -1.9 0.7 -1.9 1.5 0 0.9 -0.9 1.5 -2.5 1.5 -1.5 0 -2.5 0.6 -2.5 1.4 0 1.5 -2.1 2.6 -5.1 2.6 -1 0 -1.9 0.7 -1.9 1.5 0 0.8 -1.1 1.7 -2.5 2.1 -1.4 0.3 -2.5 0.9 -2.5 1.3 0 1.2 -4.9 3.1 -7.8 3 -1.5 0 -3.7 -0.5 -4.9 -1.1z m266 -15 c11.4 -6.6 20.7 -12.4 20.5 -12.9 -0.4 -1 -162.6 -94.9 -164 -94.9 -0.9 0 -27.5 15.4 -128.8 74.2 -17.9 10.4 -32.8 19.2 -33.2 19.6 -0.5 0.6 39.1 24.1 43.6 25.8 1.6 0.6 10.5 -4.4 87.7 -49.2 l31.6 -18.4 59.4 34.4 c32.7 18.9 60.1 34.2 60.9 34 0.8 -0.3 10.9 -5.9 22.3 -12.6z"/>
  <path d="M9 195.3 c0 -6.2 0.9 -9.3 2.6 -9.3 1.1 0 1.4 1.7 1.4 7 0 6.3 -0.2 7 -2 7 -1.7 0 -2 -0.7 -2 -4.7z"/>
  <path d="M471 173.5 c0 -6.8 0.2 -7.5 2 -7.5 1.7 0 2 0.7 2 5.3 0 6.6 -0.9 9.7 -2.6 9.7 -1.1 0 -1.4 -1.8 -1.4 -7.5z"/>
  <path d="M10 146.3 c0 -1.3 10.6 -7.9 36.3 -22.8 19.9 -11.5 60.3 -34.9 89.7 -52.1 29.4 -17.1 65.3 -37.9 79.6 -46.2 l26.1 -15.2 83.4 48.1 c45.9 26.5 98.4 56.7 116.6 67.3 23.6 13.5 33.3 19.6 33.3 20.9 0 1 -0.8 1.7 -2 1.7 -1.1 0 -2 -0.7 -2 -1.5 0 -0.8 -0.9 -1.5 -1.9 -1.5 -3 0 -5.1 -1.1 -5.1 -2.6 0 -0.8 -1 -1.4 -2.4 -1.4 -1.4 0 -3.1 -0.6 -3.8 -1.4 -0.8 -0.7 -2.4 -1.7 -3.6 -2 -1.2 -0.4 -2.2 -1.4 -2.2 -2.2 0 -0.8 -0.9 -1.4 -1.9 -1.4 -3 0 -5.1 -1.1 -5.1 -2.6 0 -0.8 -0.9 -1.4 -1.9 -1.4 -3 0 -5.1 -1.1 -5.1 -2.6 0 -0.8 -1 -1.4 -2.5 -1.4 -1.6 0 -2.5 -0.6 -2.5 -1.5 0 -0.8 -0.9 -1.5 -1.9 -1.5 -3 0 -5.1 -1.1 -5.1 -2.6 0 -0.8 -0.9 -1.4 -1.9 -1.4 -3 0 -5.1 -1.1 -5.1 -2.6 0 -0.8 -1 -1.4 -2.4 -1.4 -1.4 0 -3.1 -0.6 -3.8 -1.4 -0.8 -0.7 -2.4 -1.7 -3.6 -2 -1.2 -0.4 -2.2 -1.4 -2.2 -2.2 0 -0.8 -0.9 -1.4 -2 -1.4 -2.3 0 -7 -2 -7 -3.1 0 -0.4 -1.1 -1 -2.5 -1.3 -1.4 -0.4 -2.5 -1.3 -2.5 -2.1 0 -0.8 -0.9 -1.5 -1.9 -1.5 -3 0 -5.1 -1.1 -5.1 -2.6 0 -0.8 -0.9 -1.4 -1.9 -1.4 -3 0 -5.1 -1.1 -5.1 -2.6 0 -0.8 -1 -1.4 -2.5 -1.4 -1.6 0 -2.5 -0.6 -2.5 -1.5 0 -0.8 -0.9 -1.5 -1.9 -1.5 -3 0 -5.1 -1.1 -5.1 -2.6 0 -0.8 -0.9 -1.4 -1.9 -1.4 -3 0 -5.1 -1.1 -5.1 -2.6 0 -0.8 -0.9 -1.4 -1.9 -1.4 -3 0 -5.1 -1.1 -5.1 -2.6 0 -0.8 -1 -1.4 -2.4 -1.4 -1.4 0 -3.1 -0.6 -3.8 -1.4 -0.8 -0.7 -2.4 -1.7 -3.6 -2 -1.2 -0.4 -2.2 -1.4 -2.2 -2.2 0 -0.8 -0.9 -1.4 -1.9 -1.4 -3 0 -5.1 -1.1 -5.1 -2.6 0 -0.8 -0.9 -1.4 -1.9 -1.4 -3 0 -5.1 -1.1 -5.1 -2.6 0 -0.8 -1 -1.4 -2.5 -1.4 -1.6 0 -2.5 -0.6 -2.5 -1.5 0 -0.8 -0.9 -1.5 -1.9 -1.5 -3 0 -5.1 -1.1 -5.1 -2.6 0 -0.8 -0.9 -1.4 -1.9 -1.4 -3 0 -5.1 -1.1 -5.1 -2.6 0 -0.8 -0.9 -1.4 -1.9 -1.4 -3 0 -5.1 -1.1 -5.1 -2.6 0 -0.8 -1 -1.4 -2.4 -1.4 -1.4 0 -3.1 -0.6 -3.8 -1.4 -0.8 -0.7 -2.4 -1.7 -3.6 -2 -1.2 -0.4 -2.2 -1.4 -2.2 -2.2 0 -0.8 -0.9 -1.4 -1.9 -1.4 -3 0 -5.1 -1.1 -5.1 -2.6 0 -0.8 -0.9 -1.4 -1.9 -1.4 -3 0 -5.1 -1.1 -5.1 -2.6 0 -0.8 -1 -1.4 -2.5 -1.4 -1.6 0 -2.5 -0.6 -2.5 -1.5 0 -0.8 -0.9 -1.5 -1.9 -1.5 -3 0 -5.1 -1.1 -5.1 -2.6 0 -0.8 -0.9 -1.4 -1.9 -1.4 -3 0 -5.1 -1.1 -5.1 -2.6 0 -0.8 -0.9 -1.4 -1.9 -1.4 -2.9 0 -5.1 -1.1 -5.1 -2.5 0 -1.2 -1.8 -1.8 -9.7 -3.2 -2.9 -0.4 -3.3 -0.2 -3.3 1.6 0 1.6 -0.6 2.1 -2.5 2.1 -1.5 0 -2.5 0.6 -2.5 1.4 0 1.5 -2.1 2.6 -5.1 2.6 -1 0 -1.9 0.6 -1.9 1.4 0 0.8 -1 1.8 -2.2 2.2 -1.2 0.3 -2.8 1.3 -3.6 2 -0.7 0.8 -2.4 1.4 -3.8 1.4 -1.4 0 -2.4 0.6 -2.4 1.4 0 1.5 -2.1 2.6 -5.1 2.6 -1 0 -1.9 0.7 -1.9 1.5 0 0.9 -0.9 1.5 -2.5 1.5 -1.5 0 -2.5 0.6 -2.5 1.4 0 1.5 -2.1 2.6 -5.1 2.6 -1 0 -1.9 0.6 -1.9 1.4 0 0.8 -1 1.8 -2.2 2.2 -1.2 0.3 -2.8 1.3 -3.6 2 -0.7 0.8 -2.4 1.4 -3.8 1.4 -1.4 0 -2.4 0.6 -2.4 1.4 0 1.5 -2.1 2.6 -5.1 2.6 -1 0 -1.9 0.7 -1.9 1.5 0 0.9 -0.9 1.5 -2.5 1.5 -1.5 0 -2.5 0.6 -2.5 1.4 0 1.5 -2.1 2.6 -5.1 2.6 -1 0 -1.9 0.6 -1.9 1.4 0 1.5 -2.1 2.6 -5.1 2.6 -1 0 -1.9 0.7 -1.9 1.5 0 0.8 -0.5 1.5 -1.1 1.5 -0.6 0 -1.7 0.7 -2.5 1.5 -0.9 0.8 -2.6 1.5 -4 1.5 -1.4 0 -2.4 0.6 -2.4 1.4 0 0.8 -1 1.8 -2.2 2.2 -1.2 0.3 -2.8 1.3 -3.6 2 -0.7 0.8 -2.4 1.4 -3.8 1.4 -1.4 0 -2.4 0.6 -2.4 1.4 0 1.5 -2.1 2.6 -5.1 2.6 -1 0 -1.9 0.7 -1.9 1.5 0 0.9 -0.9 1.5 -2.5 1.5 -1.5 0 -2.5 0.6 -2.5 1.4 0 1.5 -2.1 2.6 -5.1 2.6 -1 0 -1.9 0.6 -1.9 1.4 0 1.5 -2.1 2.6 -5.1 2.6 -1 0 -1.9 0.7 -1.9 1.5 0 0.9 -0.9 1.5 -2.5 1.5 -1.5 0 -2.5 0.6 -2.5 1.4 0 1.5 -2.1 2.6 -5.1 2.6 -1 0 -1.9 0.7 -1.9 1.5 0 1 -1.1 1.5 -3.5 1.5 -2.8 0 -3.5 0.4 -3.5 2 0 1.5 -0.7 2 -2.5 2 -1.5 0 -2.5 0.6 -2.5 1.4 0 1.5 -2.1 2.6 -5.1 2.6 -1 0 -1.9 0.6 -1.9 1.4 0 0.8 -1 1.8 -2.2 2.2 -1.2 0.3 -2.8 1.3 -3.6 2 -0.7 0.8 -2.4 1.4 -3.8 1.4 -1.4 0 -2.4 0.6 -2.4 1.4 0 1.5 -2.1 2.6 -5.1 2.6 -1 0 -1.9 0.7 -1.9 1.5 0 0.9 -0.9 1.5 -2.5 1.5 -1.5 0 -2.5 0.6 -2.5 1.4 0 1.5 -2.1 2.6 -5.1 2.6 -1 0 -1.9 0.6 -1.9 1.4 0 1.5 -2.1 2.6 -5.1 2.6 -1 0 -1.9 0.7 -1.9 1.5 0 0.9 -0.9 1.5 -2.5 1.5 -1.5 0 -2.5 0.6 -2.5 1.4 0 1.5 -2.1 2.6 -5.1 2.6 -1 0 -1.9 0.7 -1.9 1.5 0 0.9 -0.9 1.5 -2.5 1.5 -1.5 0 -2.5 0.6 -2.5 1.4 0 1.5 -2.1 2.6 -5.1 2.6 -1 0 -1.9 0.7 -1.9 1.5 0 0.8 -0.9 1.5 -2 1.5 -1.2 0 -2 -0.7 -2 -1.7z"/>
 </g>
 <g fill="#313131">
 </g>
 <g fill="#3a3a3a">
 </g>
 <g fill="#424242">
 </g>
 <g fill="#4a4a4a">
 </g>
 <g fill="#525252">
  <path d="M189.5 457.2 c-154 -88.7 -179.9 -103.8 -180.3 -105 -0.2 -0.7 0.6 -1.2 2.1 -1.2 3.6 0 5.7 1 5.7 2.6 0 0.8 0.9 1.4 1.9 1.4 3 0 5.1 1.1 5.1 2.6 0 0.8 1 1.4 2.5 1.4 1.6 0 2.5 0.6 2.5 1.5 0 0.8 0.9 1.5 1.9 1.5 3 0 5.1 1.1 5.1 2.6 0 0.8 0.9 1.4 1.9 1.4 3 0 5.1 1.1 5.1 2.6 0 0.8 0.9 1.4 1.9 1.4 3 0 5.1 1.1 5.1 2.6 0 0.8 1 1.4 2.5 1.4 1.6 0 2.5 0.6 2.5 1.5 0 0.8 0.9 1.5 1.9 1.5 3 0 5.1 1.1 5.1 2.6 0 0.8 0.9 1.4 1.9 1.4 3 0 5.1 1.1 5.1 2.6 0 0.8 0.9 1.4 1.9 1.4 3 0 5.1 1.1 5.1 2.6 0 0.8 1 1.4 2.5 1.4 1.6 0 2.5 0.6 2.5 1.5 0 0.8 0.9 1.5 1.9 1.5 3 0 5.1 1.1 5.1 2.6 0 0.8 0.9 1.4 1.9 1.4 3 0 5.1 1.1 5.1 2.6 0 0.8 1 1.4 2.5 1.4 1.6 0 2.5 0.6 2.5 1.5 0 0.8 0.9 1.5 1.9 1.5 3 0 5.1 1.1 5.1 2.6 0 0.8 0.9 1.4 1.9 1.4 3 0 5.1 1.1 5.1 2.6 0 0.8 0.9 1.4 1.9 1.4 3 0 5.1 1.1 5.1 2.6 0 0.8 1 1.4 2.5 1.4 1.8 0 2.5 0.5 2.5 2 0 1.6 0.7 2 3.5 2 2.4 0 3.5 0.5 3.5 1.5 0 0.8 0.9 1.5 1.9 1.5 3 0 5.1 1.1 5.1 2.6 0 0.8 0.9 1.4 1.9 1.4 3 0 5.1 1.1 5.1 2.6 0 0.8 1 1.4 2.5 1.4 1.8 0 2.5 0.5 2.5 2 0 1.5 0.7 2 2.9 2 3.9 0 6.1 0.9 6.1 2.6 0 0.8 1 1.4 2.5 1.4 1.6 0 2.5 0.6 2.5 1.5 0 0.8 0.9 1.5 1.9 1.5 3 0 5.1 1.1 5.1 2.6 0 0.8 0.9 1.4 1.9 1.4 3 0 5.1 1.1 5.1 2.6 0 0.8 0.9 1.4 1.9 1.4 3 0 5.1 1.1 5.1 2.6 0 0.8 1 1.4 2.5 1.4 1.8 0 2.5 0.5 2.5 2 0 1.6 0.7 2 3.5 2 2.4 0 3.5 0.5 3.5 1.5 0 0.8 0.9 1.5 1.9 1.5 3 0 5.1 1.1 5.1 2.6 0 0.8 0.9 1.4 1.9 1.4 3 0 5.1 1.1 5.1 2.6 0 0.8 1 1.4 2.5 1.4 1.6 0 2.5 0.6 2.5 1.5 0 0.8 0.9 1.5 1.9 1.5 3 0 5.1 1.1 5.1 2.6 0 0.8 0.9 1.4 1.9 1.4 3 0 5.1 1.1 5.1 2.6 0 0.8 0.9 1.4 1.9 1.4 3 0 5.1 1.1 5.1 2.6 0 0.8 0.9 1.4 1.9 1.4 1.1 0 2.6 0.3 3.5 0.6 1.2 0.4 1.6 0 1.6 -1.5 0 -1.6 0.6 -2.1 2.5 -2.1 1.6 0 2.5 -0.6 2.5 -1.5 0 -1 1.1 -1.5 3.5 -1.5 2.8 0 3.5 -0.4 3.5 -2 0 -1.5 0.7 -2 2.5 -2 1.6 0 2.5 -0.6 2.5 -1.5 0 -1 1.1 -1.5 3.5 -1.5 2.8 0 3.5 -0.4 3.5 -2 0 -1.6 0.7 -2 3.5 -2 2.8 0 3.5 -0.4 3.5 -2 0 -1.5 0.7 -2 2.5 -2 1.6 0 2.5 -0.6 2.5 -1.5 0 -1 1.1 -1.5 3.5 -1.5 2.8 0 3.5 -0.4 3.5 -2 0 -1.6 0.7 -2 3.5 -2 2.8 0 3.5 -0.4 3.5 -2 0 -1.5 0.7 -2 2.5 -2 1.6 0 2.5 -0.6 2.5 -1.5 0 -1 1.1 -1.5 3.5 -1.5 2.8 0 3.5 -0.4 3.5 -2 0 -1.5 0.7 -2 2.5 -2 1.6 0 2.5 -0.6 2.5 -1.5 0 -1 1.1 -1.5 3.5 -1.5 2.8 0 3.5 -0.4 3.5 -2 0 -1.6 0.7 -2 3.5 -2 2.8 0 3.5 -0.4 3.5 -2 0 -1.5 0.7 -2 2.5 -2 1.6 0 2.5 -0.6 2.5 -1.5 0 -1 1.1 -1.5 3.5 -1.5 2.8 0 3.5 -0.4 3.5 -2 0 -1.5 0.7 -2 2.5 -2 1.5 0 2.5 -0.6 2.5 -1.4 0 -1.5 2.1 -2.6 5.1 -2.6 1 0 1.9 -0.7 1.9 -1.5 0 -1 1.1 -1.5 3.5 -1.5 2.8 0 3.5 -0.4 3.5 -2 0 -1.5 0.7 -2 2.5 -2 1.6 0 2.5 -0.6 2.5 -1.5 0 -1 1.1 -1.5 3.5 -1.5 2.8 0 3.5 -0.4 3.5 -2 0 -1.6 0.7 -2 3.5 -2 2.8 0 3.5 -0.4 3.5 -2 0 -1.5 0.7 -2 2.5 -2 1.6 0 2.5 -0.6 2.5 -1.5 0 -1 1.1 -1.5 3.5 -1.5 2.8 0 3.5 -0.4 3.5 -2 0 -1.5 0.7 -2 2.5 -2 1.6 0 2.5 -0.6 2.5 -1.5 0 -1 1.1 -1.5 3.5 -1.5 2.8 0 3.5 -0.4 3.5 -2 0 -1.5 0.7 -2 2.5 -2 1.6 0 2.5 -0.6 2.5 -1.5 0 -0.9 0.9 -1.5 2.5 -1.5 1.6 0 2.5 -0.6 2.5 -1.5 0 -1 1.1 -1.5 3.5 -1.5 2.8 0 3.5 -0.4 3.5 -2 0 -1.6 0.7 -2 3.5 -2 2.8 0 3.5 -0.4 3.5 -2 0 -1.5 0.7 -2 2.5 -2 1.6 0 2.5 -0.6 2.5 -1.5 0 -1 1.1 -1.5 3.5 -1.5 2.8 0 3.5 -0.4 3.5 -2 0 -1.6 0.7 -2 3.5 -2 2.8 0 3.5 -0.4 3.5 -2 0 -1.5 0.7 -2 2.5 -2 1.6 0 2.5 -0.6 2.5 -1.5 0 -1 1.1 -1.5 3.5 -1.5 2.8 0 3.5 -0.4 3.5 -2 0 -1.5 0.7 -2 2.5 -2 1.6 0 2.5 -0.6 2.5 -1.5 0 -1 1.1 -1.5 3.5 -1.5 2.8 0 3.5 -0.4 3.5 -2 0 -1.6 0.7 -2 3.1 -2 2 0 2.9 0.4 2.7 1.3 -0.5 1.2 -7.5 5.3 -140.3 82.4 -41.2 24 -78.6 45.7 -83 48.3 l-8.1 4.7 -52.9 -30.5z"/>
  <path d="M235 409.5 c0 -0.8 -0.9 -1.5 -1.9 -1.5 -3 0 -5.1 -1.1 -5.1 -2.6 0 -0.8 -1 -1.4 -2.5 -1.4 -1.6 0 -2.5 -0.6 -2.5 -1.5 0 -0.8 -0.9 -1.5 -1.9 -1.5 -3 0 -5.1 -1.1 -5.1 -2.6 0 -0.8 -0.9 -1.4 -1.9 -1.4 -3 0 -5.1 -1.1 -5.1 -2.6 0 -0.8 -1 -1.4 -2.5 -1.4 -1.8 0 -2.5 -0.5 -2.5 -2 0 -1.6 -0.7 -2 -3.5 -2 -2.4 0 -3.5 -0.5 -3.5 -1.5 0 -0.8 -0.9 -1.5 -1.9 -1.5 -3 0 -5.1 -1.1 -5.1 -2.6 0 -0.8 -1 -1.4 -2.5 -1.4 -1.6 0 -2.5 -0.6 -2.5 -1.5 0 -0.8 -0.9 -1.5 -1.9 -1.5 -3 0 -5.1 -1.1 -5.1 -2.6 0 -0.8 -0.9 -1.4 -1.9 -1.4 -3 0 -5.1 -1.1 -5.1 -2.6 0 -0.8 -0.9 -1.4 -1.9 -1.4 -3 0 -5.1 -1.1 -5.1 -2.6 0 -0.8 -1 -1.4 -2.5 -1.4 -1.6 0 -2.5 -0.6 -2.5 -1.5 0 -0.8 -0.9 -1.5 -1.9 -1.5 -3.3 0 -5.1 -1.1 -5.1 -3.1 0 -1.5 -0.7 -1.9 -3.5 -1.9 -2.4 0 -3.5 -0.5 -3.5 -1.5 0 -0.8 -0.9 -1.5 -1.9 -1.5 -3 0 -5.1 -1.1 -5.1 -2.6 0 -0.8 -1 -1.4 -2.5 -1.4 -1.6 0 -2.5 -0.6 -2.5 -1.5 0 -0.8 -0.9 -1.5 -1.9 -1.5 -3 0 -5.1 -1.1 -5.1 -2.6 0 -0.8 -0.9 -1.4 -1.9 -1.4 -3 0 -5.1 -1.1 -5.1 -2.6 0 -0.8 -0.9 -1.4 -1.9 -1.4 -3 0 -5.1 -1.1 -5.1 -2.6 0 -0.8 -1 -1.4 -2.5 -1.4 -1.6 0 -2.5 -0.6 -2.5 -1.5 0 -0.8 -0.9 -1.5 -1.9 -1.5 -3 0 -5.1 -1.1 -5.1 -2.6 0 -0.8 -0.9 -1.4 -1.9 -1.4 -3 0 -5.1 -1.1 -5.1 -2.6 0 -0.8 -1 -1.4 -2.5 -1.4 -1.6 0 -2.5 -0.6 -2.5 -1.5 0 -0.8 -0.9 -1.5 -1.9 -1.5 -3 0 -5.1 -1.1 -5.1 -2.6 0 -0.8 -0.9 -1.4 -1.9 -1.4 -3.8 0 -5.1 -1.1 -5.1 -4.6 0 -3.1 0.3 -3.4 3 -3.4 2.3 0 3 -0.4 3 -2 0 -1.5 0.7 -2 2.5 -2 1.6 0 2.5 -0.6 2.5 -1.5 0 -1 1.1 -1.5 3.5 -1.5 2.8 0 3.5 -0.4 3.5 -2 0 -1.5 0.7 -2 2.5 -2 1.6 0 2.5 -0.6 2.5 -1.5 0 -1 1.1 -1.5 3.5 -1.5 2.8 0 3.5 -0.4 3.5 -2 0 -1.6 0.7 -2 3.5 -2 2.8 0 3.5 -0.4 3.5 -2 0 -1.5 0.7 -2 2.5 -2 1.6 0 2.5 -0.6 2.5 -1.5 0 -1 1.1 -1.5 3.5 -1.5 1.9 0 3.5 0.4 3.5 0.8 0 0.4 -10.1 6.6 -22.5 13.8 -12.3 7.1 -22.5 13.1 -22.5 13.4 0 0.3 17.4 10.6 38.8 22.9 21.3 12.4 58.2 33.7 82 47.5 23.7 13.7 43.2 25.3 43.2 25.8 0 0.4 -1.6 0.8 -3.5 0.8 -2.4 0 -3.5 -0.5 -3.5 -1.5z"/>
  <path d="M246 409.2 c0 -0.4 36 -21.7 80 -47.2 43.9 -25.6 79.9 -46.8 80 -47.1 0 -0.7 -44.2 -26.2 -45.5 -26.2 -0.7 0 -96.2 55.1 -117.6 67.9 -0.5 0.3 -23.3 -12.7 -103.1 -59 -8.7 -5 -15.8 -9.4 -15.8 -9.8 0 -0.9 5.2 -1.1 7.4 -0.2 0.9 0.3 1.6 1.2 1.6 2 0 0.8 0.9 1.4 1.9 1.4 3 0 5.1 1.1 5.1 2.6 0 0.8 0.9 1.4 1.9 1.4 3 0 5.1 1.1 5.1 2.6 0 0.8 1 1.4 2.5 1.4 1.6 0 2.5 0.6 2.5 1.5 0 0.9 0.9 1.5 2.5 1.5 1.6 0 2.5 0.6 2.5 1.5 0 0.8 0.9 1.5 1.9 1.5 3 0 5.1 1.1 5.1 2.6 0 0.8 0.9 1.4 1.9 1.4 3 0 5.1 1.1 5.1 2.6 0 0.8 1 1.4 2.5 1.4 1.6 0 2.5 0.6 2.5 1.5 0 0.8 0.9 1.5 1.9 1.5 3 0 5.1 1.1 5.1 2.6 0 0.8 0.9 1.4 1.9 1.4 3 0 5.1 1.1 5.1 2.6 0 0.8 1 1.4 2.4 1.4 1.4 0 3.1 0.6 3.8 1.4 0.8 0.7 2.4 1.7 3.6 2 1.2 0.4 2.2 1.4 2.2 2.2 0 0.8 0.9 1.4 1.9 1.4 3 0 5.1 1.1 5.1 2.6 0 0.8 0.9 1.4 1.9 1.4 3 0 5.1 1.1 5.1 2.6 0 0.8 1 1.4 2.5 1.4 1.8 0 2.5 0.5 2.5 2 0 1.6 0.7 2 3.5 2 2.4 0 3.5 0.5 3.5 1.5 0 0.8 0.9 1.5 1.9 1.5 2.9 0 5.1 1.1 5.1 2.5 0 1.2 1.8 1.8 9.8 3.2 2.8 0.4 3.2 0.2 3.2 -1.6 0 -1.7 0.6 -2.1 3.5 -2.1 2.8 0 3.5 -0.4 3.5 -2 0 -1.5 0.7 -2 2.5 -2 1.6 0 2.5 -0.6 2.5 -1.5 0 -1 1.1 -1.5 3.5 -1.5 2.8 0 3.5 -0.4 3.5 -2 0 -1.5 0.7 -2 2.5 -2 1.6 0 2.5 -0.6 2.5 -1.5 0 -1 1.1 -1.5 3.5 -1.5 2.8 0 3.5 -0.4 3.5 -2 0 -1.5 0.7 -2 2.5 -2 1.6 0 2.5 -0.6 2.5 -1.5 0 -1 1.1 -1.5 3.5 -1.5 2.8 0 3.5 -0.4 3.5 -2 0 -1.6 0.7 -2 3.5 -2 2.8 0 3.5 -0.4 3.5 -2 0 -1.5 0.7 -2 2.5 -2 1.6 0 2.5 -0.6 2.5 -1.5 0 -1 1.1 -1.5 3.5 -1.5 2.8 0 3.5 -0.4 3.5 -2 0 -1.5 0.7 -2 2.5 -2 1.6 0 2.5 -0.6 2.5 -1.5 0 -1 1.1 -1.5 3.5 -1.5 2.8 0 3.5 -0.4 3.5 -2 0 -1.5 0.7 -2 2.5 -2 1.6 0 2.5 -0.6 2.5 -1.5 0 -1 1.1 -1.5 3.5 -1.5 2.8 0 3.5 -0.4 3.5 -2 0 -1.5 0.7 -2 2.5 -2 1.6 0 2.5 -0.6 2.5 -1.5 0 -1 1.1 -1.5 3.5 -1.5 2.8 0 3.5 -0.4 3.5 -2 0 -1.6 0.7 -2 3.5 -2 2.8 0 3.5 -0.4 3.5 -2 0 -1.5 0.7 -2 2.5 -2 1.4 0 2.5 -0.4 2.5 -1 0 -0.5 1.6 -1 3.5 -1 2.4 0 3.5 0.5 3.5 1.5 0 0.9 0.9 1.5 2.5 1.5 1.6 0 2.5 0.6 2.5 1.5 0 0.8 0.9 1.5 1.9 1.5 3 0 5.1 1.1 5.1 2.6 0 0.8 0.9 1.4 1.9 1.4 3 0 5.1 1.1 5.1 2.6 0 0.8 0.9 1.4 1.9 1.4 3 0 5.1 1.1 5.1 2.6 0 0.8 1 1.4 2.5 1.4 1.8 0 2.5 0.5 2.5 2 0 1.6 0.7 2 3.5 2 2.4 0 3.5 0.5 3.5 1.5 0 0.9 0.9 1.5 2.5 1.5 2.2 0 2.5 0.4 2.5 3.5 0 1.9 -0.4 3.5 -1 3.5 -0.5 0 -1 0.9 -1 1.9 0 2 -1.8 3.1 -5.1 3.1 -1 0 -1.9 0.7 -1.9 1.5 0 1 -1.1 1.5 -3.5 1.5 -2.8 0 -3.5 0.4 -3.5 2 0 1.5 -0.7 2 -2.5 2 -1.6 0 -2.5 0.6 -2.5 1.5 0 1 -1.1 1.5 -3.5 1.5 -2.8 0 -3.5 0.4 -3.5 2 0 1.5 -0.7 2 -2.5 2 -1.6 0 -2.5 0.6 -2.5 1.5 0 1 -1.1 1.5 -3.5 1.5 -2.8 0 -3.5 0.4 -3.5 2 0 1.5 -0.7 2 -2.5 2 -1.6 0 -2.5 0.6 -2.5 1.5 0 1 -1.1 1.5 -3.5 1.5 -2.8 0 -3.5 0.4 -3.5 2 0 1.5 -0.7 2 -2.5 2 -1.5 0 -2.5 0.6 -2.5 1.4 0 1.5 -2.1 2.6 -5.1 2.6 -1 0 -1.9 0.7 -1.9 1.5 0 1 -1.1 1.5 -3.5 1.5 -2.8 0 -3.5 0.4 -3.5 2 0 1.5 -0.7 2 -2.5 2 -1.6 0 -2.5 0.6 -2.5 1.5 0 0.9 -0.9 1.5 -2.5 1.5 -1.5 0 -2.5 0.6 -2.5 1.4 0 1.5 -2.1 2.6 -5.1 2.6 -1 0 -1.9 0.7 -1.9 1.5 0 1 -1.1 1.5 -3.5 1.5 -2.8 0 -3.5 0.4 -3.5 2 0 1.5 -0.7 2 -2.5 2 -1.6 0 -2.5 0.6 -2.5 1.5 0 1 -1.1 1.5 -3.5 1.5 -2.8 0 -3.5 0.4 -3.5 2 0 1.5 -0.7 2 -2.5 2 -1.6 0 -2.5 0.6 -2.5 1.5 0 1 -1.1 1.5 -3.5 1.5 -2.8 0 -3.5 0.4 -3.5 2 0 1.5 -0.7 2 -2.5 2 -1.6 0 -2.5 0.6 -2.5 1.5 0 1 -1.1 1.5 -3.5 1.5 -2.8 0 -3.5 0.4 -3.5 2 0 1.5 -0.7 2 -2.5 2 -1.5 0 -2.5 0.6 -2.5 1.4 0 1.5 -2.1 2.6 -5.1 2.6 -1 0 -1.9 0.7 -1.9 1.5 0 1 -1.1 1.5 -3.5 1.5 -2.8 0 -3.5 0.4 -3.5 2 0 1.5 -0.7 2 -2.5 2 -1.6 0 -2.5 0.6 -2.5 1.5 0 1 -1.1 1.5 -3.5 1.5 -1.9 0 -3.5 -0.4 -3.5 -0.8z"/>
  <path d="M9 335.3 c0 -7.2 0.8 -10.3 2.6 -10.3 1.1 0 1.4 1.9 1.4 8 0 7.3 -0.2 8 -2 8 -1.8 0 -2 -0.7 -2 -5.7z"/>
  <path d="M471 294 c0 -8.3 0.1 -9 2 -9 1.8 0 2 0.7 2 6.8 0 8 -0.8 11.2 -2.6 11.2 -1.1 0 -1.4 -2 -1.4 -9z"/>
  <path d="M236.3 280.3 c-0.7 -0.2 -1.3 -1.1 -1.3 -1.9 0 -0.8 -0.9 -1.4 -1.9 -1.4 -3 0 -5.1 -1.1 -5.1 -2.6 0 -0.8 -0.9 -1.4 -1.9 -1.4 -3 0 -5.1 -1.1 -5.1 -2.6 0 -0.8 -1 -1.4 -2.5 -1.4 -1.6 0 -2.5 -0.6 -2.5 -1.5 0 -0.8 -0.9 -1.5 -1.9 -1.5 -3 0 -5.1 -1.1 -5.1 -2.6 0 -0.8 -1 -1.4 -2.5 -1.4 -1.8 0 -2.5 -0.5 -2.5 -2 0 -1.6 -0.7 -2 -3.4 -2 -1.9 0 -4.1 -0.6 -4.8 -1.4 -0.8 -0.7 -2.4 -1.7 -3.6 -2 -1.2 -0.4 -2.2 -1.2 -2.2 -1.7 0 -0.5 -0.7 -0.9 -1.5 -0.9 -1 0 -1.5 -1.1 -1.5 -3.5 0 -2.4 0.5 -3.5 1.5 -3.5 0.8 0 1.5 -0.4 1.5 -1 0 -0.5 1.1 -1 2.5 -1 1.5 0 2.5 -0.6 2.5 -1.4 0 -1.5 2.1 -2.6 5.1 -2.6 1 0 1.9 -0.7 1.9 -1.5 0 -1 1.1 -1.5 3.5 -1.5 2.8 0 3.5 -0.4 3.5 -2 0 -1.5 0.7 -2 2.5 -2 1.5 0 2.5 -0.6 2.5 -1.4 0 -1.5 2.1 -2.6 5.1 -2.6 1 0 1.9 -0.7 1.9 -1.5 0 -1 1.1 -1.5 3.5 -1.5 2.8 0 3.5 -0.4 3.5 -2 0 -1.6 0.7 -2 3.5 -2 2.8 0 3.5 -0.4 3.5 -2 0 -1.4 0.9 -2.1 3.5 -2.6 4.4 -0.8 8.5 0.2 8.5 2.1 0 0.9 1 1.5 2.5 1.5 1.6 0 2.5 0.6 2.5 1.5 0 0.8 0.9 1.5 1.9 1.5 3 0 5.1 1.1 5.1 2.6 0 0.8 0.9 1.4 1.9 1.4 3 0 5.1 1.1 5.1 2.6 0 0.8 0.9 1.4 1.9 1.4 3 0 5.1 1.1 5.1 2.6 0 0.8 0.9 1.4 1.9 1.4 3 0 5.1 1.1 5.1 2.6 0 0.8 0.9 1.4 1.9 1.4 3 0 5.1 1.1 5.1 2.6 0 0.8 1 1.4 2.5 1.4 1.6 0 2.5 0.6 2.5 1.5 0 0.9 1 1.5 2.6 1.5 2.3 0 2.5 0.3 2.2 3.8 -0.3 3.5 -0.5 3.7 -4 4 -3 0.3 -3.8 0.7 -3.8 2.3 0 1.4 -0.7 1.9 -2.5 1.9 -1.5 0 -2.5 0.6 -2.5 1.4 0 1.5 -2.1 2.6 -5.1 2.6 -1 0 -1.9 0.7 -1.9 1.5 0 0.9 -0.9 1.5 -2.5 1.5 -1.6 0 -2.5 0.6 -2.5 1.5 0 1 -1.1 1.5 -3.5 1.5 -2.8 0 -3.5 0.4 -3.5 2 0 1.5 -0.7 2 -2.5 2 -1.5 0 -2.5 0.6 -2.5 1.4 0 1.5 -2.1 2.6 -5.1 2.6 -1 0 -1.9 0.7 -1.9 1.5 0 1 -1.1 1.5 -3.5 1.5 -1.9 0 -3.5 -0.4 -3.5 -0.8 0 -0.4 10.4 -6.8 23.1 -14.2 12.6 -7.4 23.2 -13.7 23.5 -14.1 0.2 -0.4 -11.3 -7.5 -25.7 -15.7 l-26.1 -15 -18.2 10.5 c-33.9 19.7 -32.1 18.5 -30.4 19.7 0.8 0.6 12.8 7.6 26.7 15.6 13.8 8 25.1 14.8 25.1 15.2 0 0.9 -5.7 0.9 -7.7 0.1z"/>
  <path d="M10.2 276.8 c0.4 -1.2 15.4 -10.7 17.1 -10.8 0.4 0 0.7 1.1 0.7 2.5 0 2 -0.5 2.5 -2.5 2.5 -1.5 0 -2.5 0.6 -2.5 1.4 0 1.5 -2.1 2.6 -5.1 2.6 -1 0 -1.9 0.7 -1.9 1.5 0 1 -1 1.5 -3.1 1.5 -2 0 -2.9 -0.4 -2.7 -1.2z"/>
  <path d="M468.3 277.3 c-0.7 -0.2 -1.3 -1.1 -1.3 -1.9 0 -0.8 -0.9 -1.4 -1.9 -1.4 -3 0 -5.1 -1.1 -5.1 -2.6 0 -0.8 -1 -1.4 -2.4 -1.4 -1.4 0 -3.1 -0.6 -3.8 -1.4 -0.8 -0.7 -2.4 -1.7 -3.6 -2 -1.2 -0.4 -2.2 -1.4 -2.2 -2.2 0 -0.8 -0.9 -1.4 -1.9 -1.4 -3 0 -5.1 -1.1 -5.1 -2.6 0 -0.8 -0.9 -1.4 -1.9 -1.4 -3 0 -5.1 -1.1 -5.1 -2.6 0 -0.8 -1 -1.4 -2.5 -1.4 -1.8 0 -2.5 -0.5 -2.5 -2 0 -1.1 -0.4 -2 -1 -2 -0.5 0 -1 -1.6 -1 -3.5 0 -3.1 0.3 -3.5 2.5 -3.5 1.6 0 2.5 -0.6 2.5 -1.5 0 -1 1.1 -1.5 3.5 -1.5 2.8 0 3.5 -0.4 3.5 -2 0 -1.5 0.7 -2 2.5 -2 1.6 0 2.5 -0.6 2.5 -1.5 0 -1 1.1 -1.5 3.5 -1.5 2.8 0 3.5 -0.4 3.5 -2 0 -1.5 0.7 -2 2.5 -2 1.6 0 2.5 -0.6 2.5 -1.5 0 -1 1.1 -1.5 3.5 -1.5 2.8 0 3.5 -0.4 3.5 -2 0 -1.5 0.7 -2 2.5 -2 1.6 0 2.5 -0.6 2.5 -1.5 0 -1 1 -1.5 3.1 -1.5 2 0 2.9 0.4 2.7 1.3 -0.3 0.6 -10.4 7 -22.6 14.2 -12.2 7.1 -22.2 13.2 -22.2 13.5 0 0.3 10.2 6.4 22.7 13.5 12.4 7.2 22.8 13.6 23.1 14.3 0.4 1.2 -3.9 1.6 -6.5 0.5z"/>
  <path d="M33 263.2 c0 -0.4 5 -3.6 11 -7.1 6.1 -3.5 11 -6.6 11 -7 0 -0.3 -10.3 -6.4 -22.7 -13.6 -12.5 -7.1 -22.8 -13.6 -23.1 -14.2 -0.2 -0.8 0.6 -1.3 2.1 -1.3 3.6 0 5.7 1 5.7 2.6 0 0.8 1 1.4 2.4 1.4 1.4 0 3.1 0.6 3.8 1.4 0.8 0.7 2.4 1.7 3.6 2 1.2 0.4 2.2 1.4 2.2 2.2 0 0.8 0.9 1.4 1.9 1.4 3 0 5.1 1.1 5.1 2.6 0 0.8 1 1.4 2.5 1.4 1.8 0 2.5 0.5 2.5 2 0 1.6 0.7 2 3.5 2 2.4 0 3.5 0.5 3.5 1.5 0 0.8 0.9 1.5 1.9 1.5 3 0 5.1 1.1 5.1 2.6 0 0.8 0.9 1.4 2 1.4 1.6 0 2 0.7 2 3.5 0 3.3 -0.2 3.5 -3.5 3.5 -2.8 0 -3.5 0.4 -3.5 2 0 1.5 -0.7 2 -2.5 2 -1.6 0 -2.5 0.6 -2.5 1.5 0 1 -1.1 1.5 -3.5 1.5 -2.8 0 -3.5 0.4 -3.5 2 0 1.6 -0.7 2 -3.5 2 -1.9 0 -3.5 -0.4 -3.5 -0.8z"/>
  <path d="M119 211.5 c0 -0.9 -0.9 -1.5 -2.5 -1.5 -1.8 0 -2.5 -0.5 -2.5 -2 0 -1.6 -0.7 -2 -3.4 -2 -1.9 0 -4.1 -0.6 -4.8 -1.4 -0.8 -0.7 -2.4 -1.7 -3.6 -2 -1.2 -0.4 -2.2 -1.4 -2.2 -2.2 0 -0.8 -0.9 -1.4 -1.9 -1.4 -3 0 -5.1 -1.1 -5.1 -2.6 0 -0.8 -1 -1.4 -2.5 -1.4 -1.8 0 -2.5 -0.5 -2.5 -2 0 -1.6 -0.7 -2 -3.5 -2 -2.4 0 -3.5 -0.5 -3.5 -1.5 0 -0.8 -0.9 -1.5 -1.9 -1.5 -3.8 0 -5.1 -1.1 -5.1 -4.6 0 -3.1 0.3 -3.4 3 -3.4 2.3 0 3 -0.4 3 -2 0 -1.5 0.7 -2 2.5 -2 1.6 0 2.5 -0.6 2.5 -1.5 0 -1 1.1 -1.5 3.5 -1.5 2.8 0 3.5 -0.4 3.5 -2 0 -1.5 0.7 -2 2.5 -2 1.6 0 2.5 -0.6 2.5 -1.5 0 -1 1.1 -1.5 3.5 -1.5 2.8 0 3.5 -0.4 3.5 -2 0 -1.6 0.7 -2 3.5 -2 2.8 0 3.5 -0.4 3.5 -2 0 -1.5 0.7 -2 2.5 -2 1.6 0 2.5 -0.6 2.5 -1.5 0 -1 1.1 -1.5 3.5 -1.5 2.8 0 3.5 -0.4 3.5 -2 0 -1.5 0.7 -2 2.5 -2 1.6 0 2.5 -0.6 2.5 -1.5 0 -1 1.1 -1.5 3.5 -1.5 2.8 0 3.5 -0.4 3.5 -2 0 -1.5 0.7 -2 2.5 -2 1.5 0 2.5 -0.6 2.5 -1.4 0 -1.5 2.1 -2.6 5.1 -2.6 1 0 1.9 -0.6 1.9 -1.4 0 -1.5 2.1 -2.6 5.1 -2.6 1 0 1.9 -0.7 1.9 -1.5 0 -1 1.1 -1.5 3.5 -1.5 2.8 0 3.5 -0.4 3.5 -2 0 -1.5 0.7 -2 2.5 -2 1.6 0 2.5 -0.6 2.5 -1.5 0 -1 1.1 -1.5 3.5 -1.5 2.8 0 3.5 -0.4 3.5 -2 0 -1.5 0.7 -2 2.5 -2 1.6 0 2.5 -0.6 2.5 -1.5 0 -1 1.1 -1.5 3.5 -1.5 2.8 0 3.5 -0.4 3.5 -2 0 -1.6 0.7 -2 3.5 -2 2.8 0 3.5 -0.4 3.5 -2 0 -1.5 0.7 -2 2.5 -2 1.6 0 2.5 -0.6 2.5 -1.5 0 -1 1.1 -1.5 3.5 -1.5 2.8 0 3.5 -0.4 3.5 -2 0 -1.5 0.7 -2 2.5 -2 1.6 0 2.5 -0.6 2.5 -1.5 0 -1 1.1 -1.5 3.5 -1.5 2.8 0 3.5 -0.4 3.5 -2 0 -1.5 0.7 -2 2.5 -2 1.6 0 2.5 -0.6 2.5 -1.5 0 -1 1.1 -1.5 3.5 -1.5 2.8 0 3.5 -0.4 3.5 -2 0 -1.6 0.7 -2 3.5 -2 2.8 0 3.5 -0.4 3.5 -2 0 -1.4 0.9 -2.1 3.5 -2.6 4.4 -0.8 8.5 0.2 8.5 2.1 0 0.9 1 1.5 2.5 1.5 1.6 0 2.5 0.6 2.5 1.5 0 0.8 0.9 1.5 1.9 1.5 3 0 5.1 1.1 5.1 2.6 0 0.8 0.9 1.4 1.9 1.4 3 0 5.1 1.1 5.1 2.6 0 0.8 1 1.4 2.5 1.4 1.6 0 2.5 0.6 2.5 1.5 0 0.8 0.9 1.5 1.9 1.5 3 0 5.1 1.1 5.1 2.6 0 0.8 0.9 1.4 1.9 1.4 3 0 5.1 1.1 5.1 2.6 0 0.8 0.9 1.4 1.9 1.4 3 0 5.1 1.1 5.1 2.6 0 0.8 1 1.4 2.5 1.4 1.6 0 2.5 0.6 2.5 1.5 0 0.8 0.9 1.5 1.9 1.5 3 0 5.1 1.1 5.1 2.6 0 0.8 0.9 1.4 1.9 1.4 3 0 5.1 1.1 5.1 2.6 0 0.8 1 1.4 2.5 1.4 1.6 0 2.5 0.6 2.5 1.5 0 0.8 0.9 1.5 1.9 1.5 3 0 5.1 1.1 5.1 2.6 0 0.8 0.9 1.4 1.9 1.4 3 0 5.1 1.1 5.1 2.6 0 0.8 0.9 1.4 1.9 1.4 3 0 5.1 1.1 5.1 2.6 0 0.8 1 1.4 2.5 1.4 1.6 0 2.5 0.6 2.5 1.5 0 0.8 0.9 1.5 1.9 1.5 3 0 5.1 1.1 5.1 2.6 0 0.8 0.9 1.4 1.9 1.4 3 0 5.1 1.1 5.1 2.6 0 0.8 1 1.4 2.5 1.4 1.6 0 2.5 0.6 2.5 1.5 0 0.8 0.9 1.5 1.9 1.5 3 0 5.1 1.1 5.1 2.6 0 0.8 0.9 1.4 1.9 1.4 3 0 5.1 1.1 5.1 2.6 0 0.8 0.9 1.4 1.9 1.4 3 0 5.1 1.1 5.1 2.6 0 0.8 1 1.4 2.5 1.4 1.6 0 2.5 0.6 2.5 1.5 0 0.8 0.9 1.5 1.9 1.5 3 0 5.1 1.1 5.1 2.6 0 0.8 0.9 1.4 1.9 1.4 3 0 5.1 1.1 5.1 2.6 0 0.8 1 1.4 2.5 1.4 1.8 0 2.5 0.5 2.5 2 0 1.1 0.5 2 1 2 0.6 0 1 1.6 1 3.5 0 3.3 -0.2 3.5 -3.5 3.5 -2.8 0 -3.5 0.4 -3.5 2 0 1.5 -0.7 2 -2.5 2 -1.6 0 -2.5 0.6 -2.5 1.5 0 1 -1.1 1.5 -3.5 1.5 -2.8 0 -3.5 0.4 -3.5 2 0 1.5 -0.7 2 -2.5 2 -1.5 0 -2.5 0.6 -2.5 1.4 0 0.8 -0.7 1.7 -1.6 2 -2.2 0.9 -7.4 0.7 -7.4 -0.2 0 -0.4 7 -4.8 15.5 -9.7 8.5 -4.9 15.5 -9.2 15.5 -9.5 0 -0.5 -162.6 -94.6 -164.6 -95.2 -0.6 -0.2 -24.4 13.3 -53 29.8 -28.5 16.6 -65 37.8 -81.1 47 -16.1 9.3 -29.2 17.1 -29.3 17.5 0 0.7 44.2 26.2 45.5 26.2 0.6 0 13.9 -7.5 29.7 -16.6 15.8 -9.2 28.9 -16.7 29.2 -16.7 0.4 0 0.6 1.1 0.6 2.5 0 2.2 -0.4 2.5 -3.5 2.5 -2.8 0 -3.5 0.4 -3.5 2 0 1.5 -0.7 2 -2.5 2 -1.6 0 -2.5 0.6 -2.5 1.5 0 1 -1.1 1.5 -3.5 1.5 -2.8 0 -3.5 0.4 -3.5 2 0 1.5 -0.7 2 -2.5 2 -1.5 0 -2.5 0.6 -2.5 1.4 0 1.5 -2.1 2.6 -5.1 2.6 -1 0 -1.9 0.6 -1.9 1.4 0 1.5 -2.1 2.6 -5.1 2.6 -1 0 -1.9 0.7 -1.9 1.5 0 1 -1.1 1.5 -3.5 1.5 -2.8 0 -3.5 0.4 -3.5 2 0 1.5 -0.7 2 -2.5 2 -1.6 0 -2.5 0.6 -2.5 1.5 0 1 -1.1 1.5 -3.5 1.5 -2.4 0 -3.5 0.5 -3.5 1.5 0 1 -1.1 1.5 -3.5 1.5 -2.4 0 -3.5 -0.5 -3.5 -1.5z"/>
  <path d="M356 211.5 c0 -0.9 -0.9 -1.5 -2.5 -1.5 -1.6 0 -2.5 -0.6 -2.5 -1.5 0 -0.8 -0.9 -1.5 -2 -1.5 -2.3 0 -7 -2 -7 -3.1 0 -0.4 -1.1 -1 -2.5 -1.3 -1.4 -0.4 -2.5 -1.3 -2.5 -2.1 0 -0.8 -0.9 -1.5 -1.9 -1.5 -3 0 -5.1 -1.1 -5.1 -2.6 0 -0.8 -0.9 -1.4 -1.9 -1.4 -3 0 -5.1 -1.1 -5.1 -2.6 0 -0.8 -1 -1.4 -2.5 -1.4 -1.6 0 -2.5 -0.6 -2.5 -1.5 0 -0.8 -0.9 -1.5 -1.9 -1.5 -3 0 -5.1 -1.1 -5.1 -2.6 0 -0.8 -0.9 -1.4 -1.9 -1.4 -3 0 -5.1 -1.1 -5.1 -2.6 0 -0.8 -1 -1.4 -2.5 -1.4 -1.6 0 -2.5 -0.6 -2.5 -1.5 0 -0.8 -0.9 -1.5 -1.9 -1.5 -3 0 -5.1 -1.1 -5.1 -2.6 0 -0.8 -0.9 -1.4 -1.9 -1.4 -3 0 -5.1 -1.1 -5.1 -2.6 0 -0.8 -0.9 -1.4 -1.9 -1.4 -3 0 -5.1 -1.1 -5.1 -2.6 0 -0.8 -1 -1.4 -2.5 -1.4 -1.8 0 -2.5 -0.5 -2.5 -2 0 -1.6 -0.7 -2 -3.5 -2 -2.4 0 -3.5 -0.5 -3.5 -1.5 0 -0.8 -0.9 -1.5 -1.9 -1.5 -3 0 -5.1 -1.1 -5.1 -2.6 0 -0.8 -0.9 -1.4 -1.9 -1.4 -3 0 -5.1 -1.1 -5.1 -2.6 0 -0.8 -1 -1.4 -2.5 -1.4 -1.8 0 -2.5 -0.5 -2.5 -2 0 -1.6 -0.7 -2 -3.1 -2 -1.7 0 -3.7 0.7 -4.5 1.5 -0.9 0.8 -2.6 1.5 -4 1.5 -1.5 0 -2.4 0.6 -2.4 1.5 0 0.9 -0.9 1.5 -2.5 1.5 -1.5 0 -2.5 0.6 -2.5 1.4 0 0.8 -0.7 1.7 -1.6 2 -2.3 0.9 -7.4 0.7 -7.4 -0.2 0 -0.9 21.1 -13.2 22.7 -13.2 0.7 0 27.8 15.4 60.4 34.2 l59.3 34.1 3.7 -2.1 c4.8 -2.7 4.9 -2.7 4.9 0.3 0 2.2 -0.4 2.5 -3.5 2.5 -1.9 0 -3.5 0.5 -3.5 1 0 0.6 -1.6 1 -3.5 1 -2.4 0 -3.5 -0.5 -3.5 -1.5z"/>
  <path d="M9 205.3 c0 -8.1 0.8 -11.3 2.6 -11.3 1.1 0 1.4 2 1.4 9 0 8.3 -0.1 9 -2 9 -1.8 0 -2 -0.7 -2 -6.7z"/>
  <path d="M188 173.2 c0 -0.7 24.2 -15.2 25.4 -15.2 0.3 0 0.6 1.1 0.6 2.5 0 2.2 -0.4 2.5 -3.5 2.5 -2.8 0 -3.5 0.4 -3.5 2 0 1.5 -0.7 2 -2.5 2 -1.6 0 -2.5 0.6 -2.5 1.5 0 1 -1.1 1.5 -3.5 1.5 -2.8 0 -3.5 0.4 -3.5 2 0 1.6 -0.7 2 -3.5 2 -1.9 0 -3.5 -0.3 -3.5 -0.8z"/>
  <path d="M471 163.5 c0 -7.8 0.2 -8.5 2 -8.5 1.8 0 2 0.7 2 6.3 0 7.6 -0.8 10.7 -2.6 10.7 -1.1 0 -1.4 -1.9 -1.4 -8.5z"/>
  <path d="M10 146.1 c0 -1.1 3.9 -4.1 5.2 -4.1 0.5 0 0.8 1.1 0.8 2.5 0 2.1 -0.5 2.5 -3 2.5 -1.6 0 -3 -0.4 -3 -0.9z"/>
  <path d="M468.3 146.3 c-0.7 -0.2 -1.3 -1.1 -1.3 -1.9 0 -0.8 -0.9 -1.4 -1.9 -1.4 -3 0 -5.1 -1.1 -5.1 -2.6 0 -0.8 -1 -1.4 -2.5 -1.4 -1.6 0 -2.5 -0.6 -2.5 -1.5 0 -0.8 -0.9 -1.5 -1.9 -1.5 -3 0 -5.1 -1.1 -5.1 -2.6 0 -0.8 -0.9 -1.4 -1.9 -1.4 -3 0 -5.1 -1.1 -5.1 -2.6 0 -0.8 -1 -1.4 -2.5 -1.4 -1.6 0 -2.5 -0.6 -2.5 -1.5 0 -0.8 -0.9 -1.5 -1.9 -1.5 -3 0 -5.1 -1.1 -5.1 -2.6 0 -0.8 -0.9 -1.4 -1.9 -1.4 -3 0 -5.1 -1.1 -5.1 -2.6 0 -0.8 -0.9 -1.4 -1.9 -1.4 -3 0 -5.1 -1.1 -5.1 -2.6 0 -0.8 -1 -1.4 -2.5 -1.4 -1.6 0 -2.5 -0.6 -2.5 -1.5 0 -0.8 -0.9 -1.5 -2 -1.5 -2.9 0 -7 -2.1 -7 -3.7 0 -0.7 -1.1 -1.3 -2.5 -1.3 -1.6 0 -2.5 -0.6 -2.5 -1.5 0 -0.8 -0.9 -1.5 -1.9 -1.5 -3 0 -5.1 -1.1 -5.1 -2.6 0 -0.8 -0.9 -1.4 -1.9 -1.4 -3 0 -5.1 -1.1 -5.1 -2.6 0 -0.8 -1 -1.4 -2.5 -1.4 -1.6 0 -2.5 -0.6 -2.5 -1.5 0 -0.8 -0.9 -1.5 -2 -1.5 -2.3 0 -7 -2 -7 -3.1 0 -0.4 -1.1 -1 -2.5 -1.3 -1.4 -0.4 -2.5 -1.3 -2.5 -2.1 0 -0.8 -0.9 -1.5 -1.9 -1.5 -3 0 -5.1 -1.1 -5.1 -2.6 0 -0.8 -0.9 -1.4 -1.9 -1.4 -3 0 -5.1 -1.1 -5.1 -2.6 0 -0.8 -1 -1.4 -2.5 -1.4 -1.6 0 -2.5 -0.6 -2.5 -1.5 0 -0.8 -0.9 -1.5 -1.9 -1.5 -3 0 -5.1 -1.1 -5.1 -2.6 0 -0.8 -0.9 -1.4 -1.9 -1.4 -3 0 -5.1 -1.1 -5.1 -2.6 0 -0.8 -1 -1.4 -2.5 -1.4 -1.6 0 -2.5 -0.6 -2.5 -1.5 0 -0.8 -0.9 -1.5 -1.9 -1.5 -3 0 -5.1 -1.1 -5.1 -2.6 0 -0.8 -0.9 -1.4 -1.9 -1.4 -3 0 -5.1 -1.1 -5.1 -2.6 0 -0.8 -0.9 -1.4 -1.9 -1.4 -3 0 -5.1 -1.1 -5.1 -2.6 0 -0.8 -0.9 -1.4 -1.9 -1.4 -3 0 -5.1 -1.1 -5.1 -2.6 0 -0.8 -1 -1.4 -2.5 -1.4 -1.6 0 -2.5 -0.6 -2.5 -1.5 0 -0.8 -0.9 -1.5 -1.9 -1.5 -3 0 -5.1 -1.1 -5.1 -2.6 0 -0.8 -0.9 -1.4 -1.9 -1.4 -3 0 -5.1 -1.1 -5.1 -2.6 0 -0.8 -1 -1.4 -2.5 -1.4 -1.6 0 -2.5 -0.6 -2.5 -1.5 0 -0.8 -0.9 -1.5 -1.9 -1.5 -3 0 -5.1 -1.1 -5.1 -2.6 0 -0.8 -0.9 -1.4 -1.9 -1.4 -3 0 -5.1 -1.1 -5.1 -2.6 0 -0.8 -0.9 -1.4 -1.9 -1.4 -3 0 -5.1 -1.1 -5.1 -2.6 0 -0.8 -1 -1.4 -2.5 -1.4 -1.8 0 -2.5 -0.5 -2.5 -2 0 -1.5 -0.7 -2 -2.9 -2 -1.6 0 -3.6 -0.3 -4.5 -0.6 -1.2 -0.4 -1.6 0 -1.6 1.5 0 1.6 -0.6 2.1 -2.5 2.1 -1.6 0 -2.5 0.6 -2.5 1.5 0 1 -1.1 1.5 -3.5 1.5 -2.8 0 -3.5 0.4 -3.5 2 0 1.5 -0.7 2 -2.5 2 -1.6 0 -2.5 0.6 -2.5 1.5 0 1 -1.1 1.5 -3.5 1.5 -2.8 0 -3.5 0.4 -3.5 2 0 1.5 -0.7 2 -2.5 2 -1.5 0 -2.5 0.6 -2.5 1.4 0 1.5 -2.1 2.6 -5.1 2.6 -1 0 -1.9 0.7 -1.9 1.5 0 1 -1.1 1.5 -3.5 1.5 -2.8 0 -3.5 0.4 -3.5 2 0 1.5 -0.7 2 -2.5 2 -1.6 0 -2.5 0.6 -2.5 1.5 0 1 -1.1 1.5 -3.5 1.5 -2.8 0 -3.5 0.4 -3.5 2 0 1.5 -0.7 2 -2.5 2 -1.5 0 -2.5 0.6 -2.5 1.4 0 0.8 -0.7 1.7 -1.6 2 -2.2 0.9 -7.4 0.7 -7.4 -0.2 0 -0.8 72.1 -42.8 73.1 -42.5 0.6 0.2 105.9 60.8 198.3 114.2 18.7 10.8 34.1 20.2 34.4 20.9 0.4 1.2 -3.9 1.6 -6.5 0.5z"/>
  <path d="M21 139.2 c0 -0.7 24.2 -15.2 25.4 -15.2 0.3 0 0.6 1.1 0.6 2.5 0 2.2 -0.4 2.5 -3.5 2.5 -2.8 0 -3.5 0.4 -3.5 2 0 1.5 -0.7 2 -2.5 2 -1.6 0 -2.5 0.6 -2.5 1.5 0 1 -1.1 1.5 -3.5 1.5 -2.8 0 -3.5 0.4 -3.5 2 0 1.6 -0.7 2 -3.5 2 -1.9 0 -3.5 -0.3 -3.5 -0.8z"/>
  <path d="M52 121.2 c0 -0.7 62.3 -37.2 63.5 -37.2 0.3 0 0.5 1.1 0.5 2.5 0 2.2 -0.4 2.5 -3.5 2.5 -2.8 0 -3.5 0.4 -3.5 2 0 1.5 -0.7 2 -2.5 2 -1.6 0 -2.5 0.6 -2.5 1.5 0 1 -1.1 1.5 -3.5 1.5 -2.8 0 -3.5 0.4 -3.5 2 0 1.6 -0.7 2 -3.5 2 -2.8 0 -3.5 0.4 -3.5 2 0 1.5 -0.7 2 -2.5 2 -1.6 0 -2.5 0.6 -2.5 1.5 0 1 -1.1 1.5 -3.5 1.5 -2.8 0 -3.5 0.4 -3.5 2 0 1.5 -0.7 2 -2.5 2 -1.6 0 -2.5 0.6 -2.5 1.5 0 1 -1.1 1.5 -3.5 1.5 -2.8 0 -3.5 0.4 -3.5 2 0 1.5 -0.7 2 -2.5 2 -1.5 0 -2.5 0.6 -2.5 1.4 0 0.8 -0.7 1.7 -1.6 2 -2.2 0.9 -7.4 0.7 -7.4 -0.2z"/>
  <path d="M121 81.2 c0 -0.4 3 -2.5 6.8 -4.6 3.7 -2.1 13.1 -7.6 20.8 -12.2 7.8 -4.6 14.5 -8.4 14.8 -8.4 0.3 0 0.6 1.1 0.6 2.5 0 2.2 -0.4 2.5 -3.5 2.5 -2.8 0 -3.5 0.4 -3.5 2 0 1.1 -0.7 2 -1.5 2 -0.8 0 -1.5 0.5 -1.5 1 0 0.6 -1.6 1 -3.5 1 -2.8 0 -3.5 0.4 -3.5 2 0 1.5 -0.7 2 -2.5 2 -1.6 0 -2.5 0.6 -2.5 1.5 0 1 -1.1 1.5 -3.5 1.5 -2.8 0 -3.5 0.4 -3.5 2 0 1.5 -0.7 2 -2.5 2 -1.5 0 -2.5 0.6 -2.5 1.4 0 0.8 -0.7 1.7 -1.6 2 -2.3 0.9 -7.4 0.7 -7.4 -0.2z"/>
 </g>
 <g fill="#5a5a5a">
 </g>
 <g fill="#636363">
 </g>
 <g fill="#6b6b6b">
 </g>
 <g fill="#737373">
 </g>
 <g fill="#7b7b7b">
 </g>
 <g fill="#848484">
  <path d="M242 484.6 c0 -2.4 1.6 -3.6 5.1 -3.6 1 0 1.9 -0.7 1.9 -1.5 0 -1 1.1 -1.5 3.5 -1.5 2.8 0 3.5 -0.4 3.5 -2 0 -1.5 0.7 -2 2.5 -2 1.6 0 2.5 -0.6 2.5 -1.5 0 -1 1.1 -1.5 3.5 -1.5 2.8 0 3.5 -0.4 3.5 -2 0 -1.6 0.7 -2 3.5 -2 2.8 0 3.5 -0.4 3.5 -2 0 -1.5 0.7 -2 2.5 -2 1.6 0 2.5 -0.6 2.5 -1.5 0 -1 1.1 -1.5 3.5 -1.5 2.8 0 3.5 -0.4 3.5 -2 0 -1.5 0.7 -2 2.5 -2 1.5 0 2.5 -0.6 2.5 -1.4 0 -1.5 2.1 -2.6 5.1 -2.6 1 0 1.9 -0.7 1.9 -1.5 0 -1 1.1 -1.5 3.5 -1.5 2.8 0 3.5 -0.4 3.5 -2 0 -1.5 0.7 -2 2.5 -2 1.6 0 2.5 -0.6 2.5 -1.5 0 -1 1.1 -1.5 3.5 -1.5 2.8 0 3.5 -0.4 3.5 -2 0 -1.5 0.7 -2 2.5 -2 1.5 0 2.5 -0.6 2.5 -1.4 0 -1.5 2.1 -2.6 5.1 -2.6 1 0 1.9 -0.7 1.9 -1.5 0 -1 1.1 -1.5 3.5 -1.5 2.8 0 3.5 -0.4 3.5 -2 0 -1.6 0.7 -2 3.5 -2 1.9 0 3.5 0.3 3.5 0.8 0 0.7 -100.1 59.2 -101.4 59.2 -0.3 0 -0.6 -1.1 -0.6 -2.4z"/>
  <path d="M196 460.8 c-23.9 -13.8 -75.7 -43.7 -115 -66.4 l-71.5 -41.3 -0.3 -5.8 c-0.4 -7.5 0.5 -12.3 2.3 -12.3 1.2 0 1.5 1.5 1.5 6.8 0 8.5 0.8 11.2 3 11.2 2.9 0 5 1.1 5 2.6 0 0.8 1 1.4 2.4 1.4 1.4 0 3.1 0.6 3.8 1.4 0.8 0.7 2.4 1.7 3.6 2 1.2 0.4 2.2 1.4 2.2 2.2 0 0.8 0.9 1.4 1.9 1.4 3 0 5.1 1.1 5.1 2.6 0 0.8 0.9 1.4 1.9 1.4 3 0 5.1 1.1 5.1 2.6 0 0.8 1 1.4 2.5 1.4 1.6 0 2.5 0.6 2.5 1.5 0 0.8 0.9 1.5 1.9 1.5 3 0 5.1 1.1 5.1 2.6 0 0.8 0.9 1.4 1.9 1.4 3 0 5.1 1.1 5.1 2.6 0 0.8 0.9 1.4 1.9 1.4 3 0 5.1 1.1 5.1 2.6 0 0.8 1 1.4 2.5 1.4 1.6 0 2.5 0.6 2.5 1.5 0 0.8 0.9 1.5 1.9 1.5 3 0 5.1 1.1 5.1 2.6 0 0.8 0.9 1.4 1.9 1.4 3 0 5.1 1.1 5.1 2.6 0 0.8 1 1.4 2.4 1.4 1.4 0 3.1 0.6 3.8 1.4 0.8 0.7 2.4 1.7 3.6 2 1.2 0.4 2.2 1.4 2.2 2.2 0 0.8 0.9 1.4 1.9 1.4 3 0 5.1 1.1 5.1 2.6 0 0.8 0.9 1.4 1.9 1.4 3 0 5.1 1.1 5.1 2.6 0 0.8 1 1.4 2.4 1.4 1.4 0 3.1 0.6 3.8 1.4 0.8 0.7 2.4 1.7 3.6 2 1.2 0.4 2.2 1.4 2.2 2.2 0 0.8 0.9 1.4 1.9 1.4 3 0 5.1 1.1 5.1 2.6 0 0.8 0.9 1.4 1.9 1.4 3 0 5.1 1.1 5.1 2.6 0 0.8 1 1.4 2.4 1.4 1.4 0 3.1 0.6 3.8 1.3 0.7 0.7 2.8 1.9 4.6 2.6 1.7 0.7 3.2 2 3.2 2.7 0 0.8 1 1.4 2.4 1.4 1.4 0 3.1 0.6 3.8 1.4 0.8 0.7 2.4 1.7 3.6 2 1.2 0.4 2.2 1.4 2.2 2.2 0 0.8 0.9 1.4 1.9 1.4 3 0 5.1 1.1 5.1 2.6 0 0.8 0.9 1.4 1.9 1.4 3 0 5.1 1.1 5.1 2.6 0 0.8 1 1.4 2.4 1.4 1.4 0 3.1 0.6 3.8 1.4 0.8 0.7 2.4 1.7 3.6 2 1.2 0.4 2.2 1.4 2.2 2.2 0 0.8 0.9 1.4 1.9 1.4 3 0 5.1 1.1 5.1 2.6 0 0.8 0.9 1.4 1.9 1.4 3 0 5.1 1.1 5.1 2.6 0 0.8 1 1.4 2.5 1.4 1.6 0 2.5 0.6 2.5 1.5 0 0.8 0.9 1.5 1.9 1.5 3 0 5.1 1.1 5.1 2.6 0 0.8 0.9 1.4 1.9 1.4 3 0 5.1 1.1 5.1 2.6 0 0.8 0.9 1.4 1.9 1.4 3 0 5.1 1.1 5.1 2.6 0 0.8 1 1.4 2.5 1.4 2 0 2.5 0.5 2.5 2.5 0 1.4 -0.3 2.5 -0.7 2.5 -0.5 -0.1 -20.4 -11.4 -44.3 -25.2z"/>
  <path d="M239 452.5 l0 -7.5 3.5 0 3.5 0 0 7.5 0 7.5 -3.5 0 -3.5 0 0 -7.5z"/>
  <path d="M349 422.5 c0 -2.2 0.4 -2.5 3.5 -2.5 2.8 0 3.5 -0.4 3.5 -2 0 -1.5 0.7 -2 2.5 -2 1.6 0 2.5 -0.6 2.5 -1.5 0 -1 1.1 -1.5 3.5 -1.5 2.8 0 3.5 -0.4 3.5 -2 0 -1.5 0.7 -2 2.5 -2 1.5 0 2.5 -0.6 2.5 -1.4 0 -1.5 2.1 -2.6 5.1 -2.6 1 0 1.9 -0.7 1.9 -1.5 0 -1 1.1 -1.5 3.5 -1.5 2.8 0 3.5 -0.4 3.5 -2 0 -1.5 0.7 -2 2.5 -2 1.6 0 2.5 -0.6 2.5 -1.5 0 -1 1.1 -1.5 3.5 -1.5 2.8 0 3.5 -0.4 3.5 -2 0 -1.5 0.7 -2 2.5 -2 1.6 0 2.5 -0.6 2.5 -1.5 0 -0.9 0.9 -1.5 2.5 -1.5 1.6 0 2.5 -0.6 2.5 -1.5 0 -1 1.1 -1.5 3.5 -1.5 2.8 0 3.5 -0.4 3.5 -2 0 -1.5 0.7 -2 2.5 -2 1.5 0 2.5 -0.6 2.5 -1.4 0 -1.5 2.1 -2.6 5.1 -2.6 1 0 1.9 -0.7 1.9 -1.5 0 -1 1.1 -1.5 3.5 -1.5 2.8 0 3.5 -0.4 3.5 -2 0 -1.5 0.7 -2 2.5 -2 1.5 0 2.5 -0.6 2.5 -1.4 0 -1.5 2.1 -2.6 5.1 -2.6 1 0 1.9 -0.7 1.9 -1.5 0 -1 1.1 -1.5 3.5 -1.5 2.8 0 3.5 -0.4 3.5 -2 0 -1.6 0.7 -2 3.5 -2 1.9 0 3.5 0.3 3.5 0.8 0 0.4 -3.9 3 -8.7 5.8 -4.9 2.8 -29.8 17.3 -55.5 32.2 -25.6 15 -46.9 27.2 -47.2 27.2 -0.3 0 -0.6 -1.1 -0.6 -2.5z"/>
  <path d="M238 411.5 c0 -0.8 -0.9 -1.5 -1.9 -1.5 -3 0 -5.1 -1.1 -5.1 -2.6 0 -0.8 -1 -1.4 -2.5 -1.4 -1.6 0 -2.5 -0.6 -2.5 -1.5 0 -0.8 -0.9 -1.5 -2 -1.5 -2.3 0 -7 -2 -7 -3.1 0 -0.4 -1.1 -1 -2.5 -1.3 -1.4 -0.4 -2.5 -1.3 -2.5 -2.1 0 -0.9 -1 -1.5 -2.4 -1.5 -1.4 0 -3.1 -0.6 -3.8 -1.4 -0.8 -0.7 -2.4 -1.7 -3.6 -2 -1.2 -0.4 -2.2 -1.4 -2.2 -2.2 0 -0.8 -0.9 -1.4 -1.9 -1.4 -3 0 -5.1 -1.1 -5.1 -2.6 0 -0.8 -1 -1.4 -2.5 -1.4 -1.6 0 -2.5 -0.6 -2.5 -1.5 0 -0.8 -0.9 -1.5 -2 -1.5 -2.3 0 -7 -2 -7 -3.1 0 -0.4 -1.1 -1 -2.5 -1.3 -1.4 -0.4 -2.5 -1.3 -2.5 -2.1 0 -0.8 -0.9 -1.5 -1.9 -1.5 -3 0 -5.1 -1.1 -5.1 -2.6 0 -0.8 -1 -1.4 -2.5 -1.4 -1.6 0 -2.5 -0.6 -2.5 -1.5 0 -0.8 -0.9 -1.5 -1.9 -1.5 -3 0 -5.1 -1.1 -5.1 -2.6 0 -0.8 -1 -1.4 -2.5 -1.4 -1.8 0 -2.5 -0.5 -2.5 -2 0 -1.5 -0.7 -2 -2.9 -2 -3.9 0 -6.1 -0.9 -6.1 -2.6 0 -0.8 -1 -1.4 -2.5 -1.4 -1.6 0 -2.5 -0.6 -2.5 -1.5 0 -0.8 -0.9 -1.5 -2 -1.5 -2.3 0 -7 -2 -7 -3.1 0 -0.4 -1.1 -1 -2.5 -1.3 -1.4 -0.4 -2.5 -1.3 -2.5 -2.1 0 -0.8 -0.9 -1.5 -1.9 -1.5 -3 0 -5.1 -1.1 -5.1 -2.6 0 -0.8 -1 -1.4 -2.4 -1.4 -1.4 0 -3.1 -0.6 -3.8 -1.4 -0.8 -0.7 -2.4 -1.7 -3.6 -2 -1.2 -0.4 -2.2 -1.4 -2.2 -2.2 0 -0.8 -0.9 -1.4 -1.9 -1.4 -3 0 -5.1 -1.1 -5.1 -2.6 0 -0.8 -1 -1.4 -2.5 -1.4 -1.6 0 -2.5 -0.6 -2.5 -1.5 0 -0.8 -0.9 -1.5 -2 -1.5 -2.3 0 -7 -2 -7 -3.1 0 -0.4 -1.1 -1 -2.4 -1.3 -1.6 -0.4 -2.5 -1.5 -3 -3.7 -1.4 -7.1 -0.5 -8.9 4.5 -8.9 1 0 1.9 -0.7 1.9 -1.5 0 -1 1.1 -1.5 3.5 -1.5 2.8 0 3.5 -0.4 3.5 -2 0 -1.5 0.7 -2 2.5 -2 1.6 0 2.5 -0.6 2.5 -1.5 0 -1 1.1 -1.5 3.5 -1.5 2.8 0 3.5 -0.4 3.5 -2 0 -1.5 0.7 -2 2.5 -2 1.5 0 2.5 -0.6 2.5 -1.4 0 -1.5 2.1 -2.6 5.1 -2.6 1 0 1.9 -0.7 1.9 -1.5 0 -1 1.1 -1.5 3.5 -1.5 1.9 0 3.5 -0.4 3.5 -1 0 -1.1 4.9 -1.4 7.4 -0.4 0.9 0.3 1.6 1.2 1.6 2 0 0.8 0.9 1.4 1.9 1.4 3 0 5.1 1.1 5.1 2.6 0 0.8 0.9 1.4 1.9 1.4 3 0 5.1 1.1 5.1 2.6 0 0.8 1 1.4 2.5 1.4 1.6 0 2.5 0.6 2.5 1.5 0 0.9 0.9 1.5 2.5 1.5 1.6 0 2.5 0.6 2.5 1.5 0 0.8 0.9 1.5 1.9 1.5 3 0 5.1 1.1 5.1 2.6 0 0.8 0.9 1.4 1.9 1.4 3 0 5.1 1.1 5.1 2.6 0 0.8 1 1.4 2.5 1.4 1.6 0 2.5 0.6 2.5 1.5 0 0.8 0.9 1.5 1.9 1.5 3 0 5.1 1.1 5.1 2.6 0 0.8 0.9 1.4 1.9 1.4 3 0 5.1 1.1 5.1 2.6 0 0.8 0.9 1.4 1.9 1.4 3 0 5.1 1.1 5.1 2.6 0 0.8 1 1.4 2.5 1.4 1.6 0 2.5 0.6 2.5 1.5 0 0.8 0.9 1.5 1.9 1.5 3 0 5.1 1.1 5.1 2.6 0 0.8 0.9 1.4 1.9 1.4 3 0 5.1 1.1 5.1 2.6 0 0.8 1 1.4 2.4 1.4 1.4 0 3.1 0.6 3.8 1.4 0.8 0.7 2.4 1.7 3.6 2 1.2 0.4 2.2 1.4 2.2 2.2 0 0.8 0.9 1.4 1.9 1.4 3 0 5.1 1.1 5.1 2.6 0 0.8 0.9 1.4 1.9 1.4 3 0 5.1 1.1 5.1 2.6 0 0.8 0.9 1.4 1.9 1.4 1.1 0 2.6 0.3 3.5 0.6 1.2 0.4 1.6 0 1.6 -1.5 0 -1.6 0.6 -2.1 2.5 -2.1 1.5 0 2.5 -0.6 2.5 -1.4 0 -1.5 2.1 -2.6 5.1 -2.6 1 0 1.9 -0.7 1.9 -1.5 0 -1 1.1 -1.5 3.5 -1.5 2.8 0 3.5 -0.4 3.5 -2 0 -1.5 0.7 -2 2.5 -2 1.6 0 2.5 -0.6 2.5 -1.5 0 -1 1.1 -1.5 3.5 -1.5 2.8 0 3.5 -0.4 3.5 -2 0 -1.6 0.7 -2 3.5 -2 1.9 0 3.5 0.4 3.5 0.8 0 0.9 -41 24.8 -42.1 24.5 -0.3 -0.1 -22.2 -12.7 -48.5 -27.9 -66.3 -38.4 -69.8 -40.4 -70.7 -40.4 -0.4 0 -10.9 5.9 -23.3 13.1 l-22.5 13.1 20.3 11.7 c146.7 84.8 145.6 84.3 148 83 1.3 -0.7 18.8 -10.8 39 -22.5 20.2 -11.8 36.9 -21.4 37.2 -21.4 0.3 0 0.6 1.1 0.6 2.5 0 2.2 -0.4 2.5 -3.5 2.5 -2.8 0 -3.5 0.4 -3.5 2 0 1.5 -0.7 2 -2.5 2 -1.6 0 -2.5 0.6 -2.5 1.5 0 1 -1.1 1.5 -3.5 1.5 -2.8 0 -3.5 0.4 -3.5 2 0 1.5 -0.7 2 -2.5 2 -1.6 0 -2.5 0.6 -2.5 1.5 0 1 -1.1 1.5 -3.5 1.5 -2.8 0 -3.5 0.4 -3.5 2 0 1.5 -0.7 2 -2.5 2 -1.6 0 -2.5 0.6 -2.5 1.5 0 1 -1.1 1.5 -3.5 1.5 -2.8 0 -3.5 0.4 -3.5 2 0 1.5 -0.7 2 -2.5 2 -1.6 0 -2.5 0.6 -2.5 1.5 0 1 -1.1 1.5 -3.5 1.5 -2.8 0 -3.5 0.4 -3.5 2 0 1.5 -0.7 2 -2.5 2 -1.5 0 -2.5 0.6 -2.5 1.4 0 1.5 -2.1 2.6 -5.1 2.6 -1 0 -1.9 0.7 -1.9 1.5 0 1 -1.1 1.5 -3.5 1.5 -2.8 0 -3.5 0.4 -3.5 2 0 1.7 -0.7 2 -5 2 -3.8 0 -5 -0.4 -5 -1.5z"/>
  <path d="M327 362.2 c0 -0.7 72.2 -43.2 73.4 -43.2 0.4 0 0.6 1.1 0.6 2.5 0 2.2 -0.4 2.5 -3.5 2.5 -2.8 0 -3.5 0.4 -3.5 2 0 1.5 -0.7 2 -2.5 2 -1.6 0 -2.5 0.6 -2.5 1.5 0 1 -1.1 1.5 -3.5 1.5 -2.8 0 -3.5 0.4 -3.5 2 0 1.5 -0.7 2 -2.5 2 -1.6 0 -2.5 0.6 -2.5 1.5 0 1 -1.1 1.5 -3.5 1.5 -2.8 0 -3.5 0.4 -3.5 2 0 1.5 -0.7 2 -2.5 2 -1.6 0 -2.5 0.6 -2.5 1.5 0 1 -1.1 1.5 -3.5 1.5 -2.8 0 -3.5 0.4 -3.5 2 0 1.5 -0.7 2 -2.5 2 -1.6 0 -2.5 0.6 -2.5 1.5 0 1 -1.1 1.5 -3.5 1.5 -2.8 0 -3.5 0.4 -3.5 2 0 1.5 -0.7 2 -2.5 2 -1.5 0 -2.5 0.6 -2.5 1.4 0 1.5 -2.1 2.6 -5.1 2.6 -1 0 -1.9 0.7 -1.9 1.5 0 1 -1.1 1.5 -3.5 1.5 -1.9 0 -3.5 -0.4 -3.5 -0.8z"/>
  <path d="M466 354.5 c0 -1.8 0.5 -2.5 2 -2.5 1.3 0 2 -0.7 2 -2 0 -1.3 0.7 -2 2 -2 3.5 0 2.6 4.5 -1.4 6.9 -4.3 2.7 -4.6 2.6 -4.6 -0.4z"/>
  <path d="M289 326.5 c0 -2 0.5 -2.5 2.5 -2.5 1.5 0 2.5 -0.6 2.5 -1.4 0 -1.5 2.1 -2.6 5.1 -2.6 1 0 1.9 -0.7 1.9 -1.5 0 -1 1.1 -1.5 3.5 -1.5 2.8 0 3.5 -0.4 3.5 -2 0 -1.5 0.7 -2 2.5 -2 1.6 0 2.5 -0.6 2.5 -1.5 0 -1 1.1 -1.5 3.5 -1.5 2.8 0 3.5 -0.4 3.5 -2 0 -1.5 0.7 -2 2.5 -2 1.6 0 2.5 -0.6 2.5 -1.5 0 -1 1.1 -1.5 3.5 -1.5 2.8 0 3.5 -0.4 3.5 -2 0 -1.6 0.7 -2 3.5 -2 1.9 0 3.5 0.3 3.5 0.8 0 0.7 -48.2 29.2 -49.4 29.2 -0.3 0 -0.6 -1.1 -0.6 -2.5z"/>
  <path d="M239 320.5 l0 -7.5 3.5 0 3.5 0 0 7.5 0 7.5 -3.5 0 -3.5 0 0 -7.5z"/>
  <path d="M404.4 316.5 c1.2 -0.9 1.6 -1.8 1 -2.4 -0.5 -0.5 -10.8 -6.5 -22.8 -13.5 l-21.9 -12.6 -7.8 4.5 c-4.3 2.5 -8.1 4.5 -8.4 4.5 -0.3 0 -0.5 -1.1 -0.5 -2.5 0 -2 0.5 -2.5 2.5 -2.5 1.5 0 2.5 -0.6 2.5 -1.4 0 -1.5 2.1 -2.6 5.1 -2.6 1 0 1.9 -0.7 1.9 -1.5 0 -1 1 -1.5 2.8 -1.5 3.6 0 10.2 1.9 10.2 2.9 0 0.5 1.1 1.2 2.5 1.5 1.4 0.4 2.5 1.3 2.5 2.1 0 0.8 0.9 1.5 1.9 1.5 3 0 5.1 1.1 5.1 2.6 0 0.8 0.9 1.4 1.9 1.4 3 0 5.1 1.1 5.1 2.6 0 0.8 1 1.4 2.4 1.4 1.4 0 3.1 0.6 3.8 1.4 0.8 0.7 2.4 1.7 3.6 2 1.2 0.4 2.2 1.4 2.2 2.2 0 0.8 1 1.4 2.4 1.4 1.4 0 3.1 0.7 4 1.5 0.8 0.8 1.9 1.5 2.5 1.5 0.6 0 1.1 1.6 1.1 3.5 0 3.4 -0.1 3.5 -3.7 3.5 -3.6 -0.1 -3.7 -0.2 -1.9 -1.5z"/>
  <path d="M471 287.3 c0 -8.6 -0.8 -11.3 -3 -11.3 -2.9 0 -5 -1.1 -5 -2.6 0 -0.8 -1 -1.4 -2.5 -1.4 -1.8 0 -2.5 -0.5 -2.5 -2 0 -1.6 -0.7 -2 -3.4 -2 -1.9 0 -4.1 -0.6 -4.8 -1.4 -0.8 -0.7 -2.4 -1.7 -3.6 -2 -1.2 -0.4 -2.2 -1.4 -2.2 -2.2 0 -0.8 -0.9 -1.4 -1.9 -1.4 -3 0 -5.1 -1.1 -5.1 -2.6 0 -0.8 -1 -1.4 -2.4 -1.4 -1.4 0 -3.1 -0.6 -3.8 -1.4 -0.8 -0.7 -2.4 -1.7 -3.6 -2 -1.8 -0.6 -2.2 -1.5 -2.2 -4.7 0 -3.5 0.3 -3.9 2.5 -3.9 1.6 0 2.5 -0.6 2.5 -1.5 0 -1 1.1 -1.5 3.5 -1.5 2.8 0 3.5 -0.4 3.5 -2 0 -1.5 0.7 -2 2.5 -2 1.6 0 2.5 -0.6 2.5 -1.5 0 -1 1.1 -1.5 3.5 -1.5 2.8 0 3.5 -0.4 3.5 -2 0 -1.5 0.7 -2 2.5 -2 1.6 0 2.5 -0.6 2.5 -1.5 0 -1 1.1 -1.5 3.5 -1.5 2.8 0 3.5 -0.4 3.5 -2 0 -1.5 0.7 -2 2.5 -2 1.6 0 2.5 -0.6 2.5 -1.5 0 -0.8 0.9 -1.5 2 -1.5 1.3 0 2 -0.7 2 -2 0 -1.4 0.7 -2 2.1 -2 1.6 0 2 0.5 1.7 2.6 -0.3 2.3 -3.2 4.4 -22.3 15.5 -12.1 7.1 -22.1 13.2 -22.3 13.7 -0.1 0.4 10.1 6.8 22.8 14.1 l23.1 13.4 -0.2 7.1 c-0.3 8.7 -0.7 10.6 -2.5 10.6 -1.1 0 -1.4 -1.7 -1.4 -6.7z"/>
  <path d="M236.8 280.6 c-0.8 -0.7 -2.4 -1.7 -3.6 -2 -1.2 -0.4 -2.2 -1.4 -2.2 -2.2 0 -0.8 -0.9 -1.4 -1.9 -1.4 -3 0 -5.1 -1.1 -5.1 -2.6 0 -0.8 -1 -1.4 -2.5 -1.4 -1.6 0 -2.5 -0.6 -2.5 -1.5 0 -0.8 -0.9 -1.5 -1.9 -1.5 -3 0 -5.1 -1.1 -5.1 -2.6 0 -0.8 -1 -1.4 -2.4 -1.4 -1.4 0 -3.1 -0.6 -3.8 -1.4 -0.8 -0.7 -2.4 -1.7 -3.6 -2 -1.3 -0.4 -2.2 -1.6 -2.2 -2.7 0 -1.5 -0.7 -1.9 -3.5 -1.9 -2.4 0 -3.5 -0.5 -3.5 -1.5 0 -0.9 -0.9 -1.5 -2.5 -1.5 -2.3 0 -2.5 -0.4 -2.5 -4.5 0 -4.1 0.2 -4.5 2.5 -4.5 1.6 0 2.5 -0.6 2.5 -1.5 0 -1 1.1 -1.5 3.5 -1.5 2.8 0 3.5 -0.4 3.5 -2 0 -1.6 0.7 -2 3.5 -2 2.8 0 3.5 -0.4 3.5 -2 0 -1.6 0.7 -2 3.5 -2 1.9 0 3.5 0.4 3.5 0.8 0 0.4 -5.4 3.9 -12 7.7 l-12.1 6.9 4.8 2.9 c27.1 16 48.1 27.6 49.3 27.1 0.8 -0.3 12.4 -6.9 25.8 -14.6 l24.2 -14.1 -5.2 -3.1 c-2.9 -1.8 -14.6 -8.5 -26 -15.1 -11.5 -6.5 -20.8 -12.2 -20.8 -12.7 0 -1.3 6.8 -0.9 8.2 0.6 0.8 0.7 2.4 1.7 3.6 2 1.2 0.4 2.2 1.4 2.2 2.2 0 0.8 0.9 1.4 1.9 1.4 3 0 5.1 1.1 5.1 2.6 0 0.8 0.9 1.4 1.9 1.4 3 0 5.1 1.1 5.1 2.6 0 0.8 0.9 1.4 1.9 1.4 3 0 5.1 1.1 5.1 2.6 0 0.8 0.9 1.4 1.9 1.4 3 0 5.1 1.1 5.1 2.6 0 0.8 1 1.4 2.4 1.4 1.4 0 3.1 0.6 3.8 1.4 0.8 0.7 2.4 1.7 3.6 2 1.7 0.6 2.2 1.5 2.2 4.2 0 3 -0.3 3.4 -2.5 3.4 -2 0 -2.5 0.5 -2.5 2.5 0 2 -0.5 2.5 -2.5 2.5 -1.6 0 -2.5 0.6 -2.5 1.5 0 1 -1.1 1.5 -3.5 1.5 -2.8 0 -3.5 0.4 -3.5 2 0 1.5 -0.7 2 -2.5 2 -1.6 0 -2.5 0.6 -2.5 1.5 0 1 -1.1 1.5 -3.5 1.5 -2.8 0 -3.5 0.4 -3.5 2 0 1.5 -0.7 2 -2.5 2 -1.6 0 -2.5 0.6 -2.5 1.5 0 1 -1.1 1.5 -3.5 1.5 -2.8 0 -3.5 0.4 -3.5 2 0 1.6 -0.7 2 -3.5 2 -2.8 0 -3.5 0.4 -3.5 2 0 1.7 -0.7 2 -4.9 2 -2.9 0 -5.5 -0.6 -6.3 -1.4z"/>
  <path d="M10.2 277.9 c0.2 -1.6 5.9 -5.4 23.1 -15.4 l22.8 -13.3 -3.3 -2 c-1.8 -1.1 -12.4 -7.2 -23.6 -13.7 l-20.3 -11.8 0.2 -7.6 c0.2 -9.1 0.7 -11.1 2.5 -11.1 1.1 0 1.4 1.8 1.4 7.3 0 9 0.7 11.7 3 11.7 2.9 0 5 1.1 5 2.6 0 0.8 1 1.4 2.5 1.4 1.6 0 2.5 0.6 2.5 1.5 0 0.8 0.9 1.5 1.9 1.5 3 0 5.1 1.1 5.1 2.6 0 0.8 1 1.4 2.4 1.4 1.4 0 3.1 0.6 3.8 1.4 0.8 0.7 2.4 1.7 3.6 2 1.2 0.4 2.2 1.4 2.2 2.2 0 0.8 0.9 1.4 1.9 1.4 3 0 5.1 1.1 5.1 2.6 0 0.8 0.9 1.4 1.9 1.4 3.8 0 5.1 1.1 5.1 4.6 0 2.4 -0.5 3.4 -1.5 3.4 -0.8 0 -1.5 0.6 -1.5 1.4 0 1.5 -2.1 2.6 -5.1 2.6 -1 0 -1.9 0.7 -1.9 1.5 0 1 -1.1 1.5 -3.5 1.5 -2.8 0 -3.5 0.4 -3.5 2 0 1.5 -0.7 2 -2.5 2 -1.5 0 -2.5 0.6 -2.5 1.4 0 1.5 -2.1 2.6 -5.1 2.6 -1 0 -1.9 0.7 -1.9 1.5 0 0.9 -0.9 1.5 -2.5 1.5 -1.6 0 -2.5 0.6 -2.5 1.5 0 1 -1.1 1.5 -3.5 1.5 -2.8 0 -3.5 0.4 -3.5 2 0 1.3 -0.7 2 -2 2 -1.1 0 -2 0.7 -2 1.5 0 0.9 -0.9 1.5 -2.1 1.5 -1.5 0 -2 -0.5 -1.7 -2.1z"/>
  <path d="M219 228.5 c0 -2.2 0.4 -2.5 3.5 -2.5 2.8 0 3.5 -0.4 3.5 -2 0 -1.5 0.7 -2 2.5 -2 1.5 0 2.5 -0.6 2.5 -1.4 0 -0.8 0.7 -1.7 1.6 -2 2.3 -0.9 7.4 -0.7 7.4 0.2 0 0.7 -19.3 12.2 -20.5 12.2 -0.3 0 -0.5 -1.1 -0.5 -2.5z"/>
  <path d="M358 213 c0 -0.5 -0.9 -1 -2 -1 -1.1 0 -2 -0.7 -2 -1.5 0 -0.8 -0.9 -1.5 -2 -1.5 -2.9 0 -7 -2.1 -7 -3.7 0 -0.7 -1.1 -1.3 -2.5 -1.3 -1.6 0 -2.5 -0.6 -2.5 -1.5 0 -0.8 -0.9 -1.5 -1.9 -1.5 -3 0 -5.1 -1.1 -5.1 -2.6 0 -0.8 -0.9 -1.4 -1.9 -1.4 -3 0 -5.1 -1.1 -5.1 -2.6 0 -0.8 -1 -1.4 -2.5 -1.4 -1.6 0 -2.5 -0.6 -2.5 -1.5 0 -0.8 -0.9 -1.5 -1.9 -1.5 -3 0 -5.1 -1.1 -5.1 -2.6 0 -0.8 -0.9 -1.4 -1.9 -1.4 -3 0 -5.1 -1.1 -5.1 -2.6 0 -0.8 -1 -1.4 -2.5 -1.4 -1.6 0 -2.5 -0.6 -2.5 -1.5 0 -0.8 -0.9 -1.5 -2 -1.5 -2.3 0 -7 -2 -7 -3.1 0 -0.4 -1.1 -1 -2.5 -1.3 -1.4 -0.4 -2.5 -1.3 -2.5 -2.1 0 -0.8 -0.9 -1.5 -1.9 -1.5 -3 0 -5.1 -1.1 -5.1 -2.6 0 -0.8 -1 -1.4 -2.4 -1.4 -1.4 0 -3.1 -0.6 -3.8 -1.4 -0.8 -0.7 -2.4 -1.7 -3.6 -2 -1.2 -0.4 -2.2 -1.4 -2.2 -2.2 0 -0.8 -0.9 -1.4 -1.9 -1.4 -3 0 -5.1 -1.1 -5.1 -2.6 0 -0.8 -0.9 -1.4 -1.9 -1.4 -3 0 -5.1 -1.1 -5.1 -2.6 0 -0.8 -1 -1.4 -2.5 -1.4 -1.6 0 -2.5 -0.6 -2.5 -1.5 0 -0.8 -0.9 -1.5 -1.9 -1.5 -3.5 0 -5.1 -1.2 -5.1 -3.7 0 -1.7 0.4 -2.3 1.3 -2 0.8 0.3 21.8 12.3 46.8 26.7 25 14.5 50.7 29.4 57.3 33.1 6.5 3.8 12.3 6.9 13 6.9 0.6 0 4.5 -2 8.6 -4.5 4.1 -2.5 7.8 -4.5 8.3 -4.5 0.4 0 0.7 1.1 0.7 2.4 0 2.4 -1.6 3.6 -5.1 3.6 -1 0 -1.9 0.7 -1.9 1.5 0 0.9 -0.9 1.5 -2.5 1.5 -1.5 0 -2.5 0.6 -2.5 1.4 0 0.8 -0.7 1.7 -1.6 2 -2.5 1 -7.4 0.7 -7.4 -0.4z"/>
  <path d="M118.3 211.9 c-1.8 -0.5 -3.3 -1.3 -3.3 -1.8 0 -0.5 -1.1 -1.2 -2.5 -1.5 -1.6 -0.4 -2.5 -1.3 -2.5 -2.6 0 -1.6 -0.7 -2 -3.5 -2 -2.4 0 -3.5 -0.5 -3.5 -1.5 0 -0.8 -0.9 -1.5 -1.9 -1.5 -3 0 -5.1 -1.1 -5.1 -2.6 0 -0.8 -1 -1.4 -2.4 -1.4 -1.4 0 -3.1 -0.6 -3.8 -1.4 -0.8 -0.7 -2.4 -1.7 -3.6 -2 -1.2 -0.4 -2.2 -1.4 -2.2 -2.2 0 -0.8 -1 -1.4 -2.2 -1.4 -3.7 0 -4.7 -1.3 -5.4 -6.4 -0.8 -5.2 0.1 -6.6 4.4 -6.6 1.3 0 2.2 -0.6 2.2 -1.5 0 -1 1.1 -1.5 3.5 -1.5 2.8 0 3.5 -0.4 3.5 -2 0 -1.5 0.7 -2 2.5 -2 1.6 0 2.5 -0.6 2.5 -1.5 0 -1 1.1 -1.5 3.5 -1.5 2.8 0 3.5 -0.4 3.5 -2 0 -1.5 0.7 -2 2.5 -2 1.5 0 2.5 -0.6 2.5 -1.4 0 -1.5 2.1 -2.6 5.1 -2.6 1 0 1.9 -0.7 1.9 -1.5 0 -1 1.1 -1.5 3.5 -1.5 2.8 0 3.5 -0.4 3.5 -2 0 -1.5 0.7 -2 2.5 -2 1.6 0 2.5 -0.6 2.5 -1.5 0 -1 1.1 -1.5 3.5 -1.5 2.8 0 3.5 -0.4 3.5 -2 0 -1.6 0.7 -2 3.5 -2 1.9 0 3.5 0.3 3.5 0.8 0 0.4 -14.2 9 -31.5 19.1 l-31.6 18.3 10.8 6.3 c5.9 3.4 16.4 9.4 23.2 13.4 l12.4 7.2 11.3 -6.6 c6.2 -3.6 11.6 -6.5 11.9 -6.5 0.3 0 0.5 1.1 0.5 2.5 0 2.2 -0.4 2.5 -3.5 2.5 -2.8 0 -3.5 0.4 -3.5 2 0 1.5 -0.7 2 -2.5 2 -1.6 0 -2.5 0.6 -2.5 1.5 0 1 -1.1 1.5 -3.5 1.5 -2.8 0 -3.5 0.4 -3.5 2 0 1.6 -0.6 2 -3.2 1.9 -1.8 0 -4.8 -0.5 -6.5 -1z"/>
  <path d="M384 198.2 c0 -0.4 5 -3.6 11 -7.1 6.1 -3.5 11 -6.6 11 -7 0 -0.4 -36.9 -22 -82 -48.1 -45.1 -26.1 -82 -47.7 -82 -48.2 0 -0.4 1.6 -0.8 3.5 -0.8 2.4 0 3.5 0.5 3.5 1.5 0 0.8 0.9 1.5 1.9 1.5 3 0 5.1 1.1 5.1 2.6 0 0.8 0.9 1.4 1.9 1.4 3 0 5.1 1.1 5.1 2.6 0 0.8 1 1.4 2.4 1.4 1.4 0 3.1 0.6 3.8 1.4 0.8 0.7 2.4 1.7 3.6 2 1.2 0.4 2.2 1.4 2.2 2.2 0 0.8 0.9 1.4 1.9 1.4 3 0 5.1 1.1 5.1 2.6 0 0.8 0.9 1.4 1.9 1.4 3 0 5.1 1.1 5.1 2.6 0 0.8 1 1.4 2.5 1.4 1.6 0 2.5 0.6 2.5 1.5 0 0.8 0.9 1.5 1.9 1.5 3 0 5.1 1.1 5.1 2.6 0 0.8 0.9 1.4 1.9 1.4 3 0 5.1 1.1 5.1 2.6 0 0.8 1 1.4 2.4 1.4 1.4 0 3.1 0.6 3.8 1.4 0.8 0.7 2.4 1.7 3.6 2 1.2 0.4 2.2 1.4 2.2 2.2 0 0.8 0.9 1.4 1.9 1.4 3 0 5.1 1.1 5.1 2.6 0 0.8 0.9 1.4 1.9 1.4 3 0 5.1 1.1 5.1 2.6 0 0.8 1 1.4 2.5 1.4 1.6 0 2.5 0.6 2.5 1.5 0 0.8 0.9 1.5 1.9 1.5 3 0 5.1 1.1 5.1 2.6 0 0.8 0.9 1.4 1.9 1.4 3 0 5.1 1.1 5.1 2.6 0 0.8 1 1.4 2.4 1.4 1.4 0 3.1 0.6 3.8 1.4 0.8 0.7 2.4 1.7 3.6 2 1.2 0.4 2.2 1.4 2.2 2.2 0 0.8 0.9 1.4 1.9 1.4 3 0 5.1 1.1 5.1 2.6 0 0.8 0.9 1.4 1.9 1.4 3 0 5.1 1.1 5.1 2.6 0 0.8 1 1.4 2.5 1.4 1.6 0 2.5 0.6 2.5 1.5 0 0.8 0.9 1.5 1.9 1.5 3 0 5.1 1.1 5.1 2.6 0 0.8 0.9 1.4 1.9 1.4 3 0 5.1 1.1 5.1 2.6 0 0.8 1 1.4 2.4 1.4 1.4 0 3.1 0.6 3.8 1.4 0.8 0.7 2.4 1.7 3.6 2 1.7 0.6 2.2 1.5 2.2 4.2 0 3.2 -0.2 3.4 -3.5 3.4 -3.1 0 -3.5 0.3 -3.5 2.5 0 2 -0.5 2.5 -2.5 2.5 -1.6 0 -2.5 0.6 -2.5 1.5 0 1 -1.1 1.5 -3.5 1.5 -2.8 0 -3.5 0.4 -3.5 2 0 1.6 -0.7 2 -3.5 2 -1.9 0 -3.5 -0.4 -3.5 -0.8z"/>
  <path d="M154 193.2 c0 -0.8 67.1 -40.2 68.4 -40.2 0.3 0 0.6 1.1 0.6 2.4 0 2.4 -1.6 3.6 -5.1 3.6 -1 0 -1.9 0.7 -1.9 1.5 0 0.9 -0.9 1.5 -2.5 1.5 -1.5 0 -2.5 0.6 -2.5 1.4 0 1.5 -2.1 2.6 -5.1 2.6 -1 0 -1.9 0.7 -1.9 1.5 0 1 -1.1 1.5 -3.5 1.5 -2.8 0 -3.5 0.4 -3.5 2 0 1.5 -0.7 2 -2.5 2 -1.5 0 -2.5 0.6 -2.5 1.4 0 1.5 -2.1 2.6 -5.1 2.6 -1 0 -1.9 0.7 -1.9 1.5 0 1 -1.1 1.5 -3.5 1.5 -2.8 0 -3.5 0.4 -3.5 2 0 1.5 -0.7 2 -2.5 2 -1.6 0 -2.5 0.6 -2.5 1.5 0 1 -1.1 1.5 -3.5 1.5 -2.8 0 -3.5 0.4 -3.5 2 0 1.5 -0.7 2 -2.5 2 -1.6 0 -2.5 0.6 -2.5 1.5 0 1 -1.1 1.5 -3.5 1.5 -1.9 0 -3.5 -0.4 -3.5 -0.8z"/>
  <path d="M238 177.5 l0 -7.5 3.5 0 3.5 0 0 7.5 0 7.5 -3.5 0 -3.5 0 0 -7.5z"/>
  <path d="M471 156.3 c0 -8.6 -0.8 -11.3 -3 -11.3 -2.9 0 -5 -1.1 -5 -2.6 0 -0.8 -1 -1.4 -2.5 -1.4 -1.6 0 -2.5 -0.6 -2.5 -1.5 0 -0.8 -0.9 -1.5 -1.9 -1.5 -3 0 -5.1 -1.1 -5.1 -2.6 0 -0.8 -0.9 -1.4 -1.9 -1.4 -3 0 -5.1 -1.1 -5.1 -2.6 0 -0.8 -1 -1.4 -2.5 -1.4 -1.6 0 -2.5 -0.6 -2.5 -1.5 0 -0.8 -0.9 -1.5 -2 -1.5 -2.3 0 -7 -2 -7 -3.1 0 -0.4 -1.1 -1 -2.5 -1.3 -1.4 -0.4 -2.5 -1.3 -2.5 -2.1 0 -0.8 -0.9 -1.5 -1.9 -1.5 -3 0 -5.1 -1.1 -5.1 -2.6 0 -0.8 -1 -1.4 -2.5 -1.4 -1.6 0 -2.5 -0.6 -2.5 -1.5 0 -0.8 -0.9 -1.5 -1.9 -1.5 -3.3 0 -5.1 -1.1 -5.1 -3.1 0 -1.5 -0.7 -1.9 -3.5 -1.9 -2.4 0 -3.5 -0.5 -3.5 -1.5 0 -0.8 -0.9 -1.5 -1.9 -1.5 -3 0 -5.1 -1.1 -5.1 -2.6 0 -0.8 -0.9 -1.4 -1.9 -1.4 -3 0 -5.1 -1.1 -5.1 -2.6 0 -0.8 -1 -1.4 -2.5 -1.4 -1.6 0 -2.5 -0.6 -2.5 -1.5 0 -0.8 -0.9 -1.5 -2 -1.5 -2.9 0 -7 -2.1 -7 -3.7 0 -0.7 -1.1 -1.3 -2.5 -1.3 -1.6 0 -2.5 -0.6 -2.5 -1.5 0 -0.8 -0.9 -1.5 -1.9 -1.5 -3 0 -5.1 -1.1 -5.1 -2.6 0 -0.8 -0.9 -1.4 -1.9 -1.4 -3 0 -5.1 -1.1 -5.1 -2.6 0 -0.8 -1 -1.4 -2.5 -1.4 -1.6 0 -2.5 -0.6 -2.5 -1.5 0 -0.8 -0.9 -1.5 -1.9 -1.5 -3 0 -5.1 -1.1 -5.1 -2.6 0 -0.8 -0.9 -1.4 -1.9 -1.4 -3 0 -5.1 -1.1 -5.1 -2.6 0 -0.8 -1 -1.4 -2.5 -1.4 -1.6 0 -2.5 -0.6 -2.5 -1.5 0 -0.8 -0.9 -1.5 -2 -1.5 -2.3 0 -7 -2 -7 -3.1 0 -0.4 -1.1 -1 -2.5 -1.3 -1.4 -0.4 -2.5 -1.3 -2.5 -2.1 0 -0.8 -0.9 -1.5 -1.9 -1.5 -3 0 -5.1 -1.1 -5.1 -2.6 0 -0.8 -0.9 -1.4 -1.9 -1.4 -3 0 -5.1 -1.1 -5.1 -2.6 0 -0.8 -1 -1.4 -2.5 -1.4 -1.6 0 -2.5 -0.6 -2.5 -1.5 0 -0.8 -0.9 -1.5 -1.9 -1.5 -3 0 -5.1 -1.1 -5.1 -2.6 0 -0.8 -0.9 -1.4 -1.9 -1.4 -3 0 -5.1 -1.1 -5.1 -2.6 0 -0.8 -1 -1.4 -2.5 -1.4 -1.6 0 -2.5 -0.6 -2.5 -1.5 0 -0.8 -0.9 -1.5 -2 -1.5 -2.3 0 -7 -2 -7 -3.1 0 -0.4 -1.1 -1 -2.5 -1.3 -1.4 -0.4 -2.5 -1.3 -2.5 -2.1 0 -0.8 -0.9 -1.5 -1.9 -1.5 -3 0 -5.1 -1.1 -5.1 -2.6 0 -0.8 -1 -1.4 -2.4 -1.4 -1.4 0 -3.1 -0.6 -3.8 -1.4 -0.8 -0.7 -2.4 -1.7 -3.6 -2 -1.5 -0.5 -2.2 -1.5 -2.2 -3.3 0 -1.6 0.4 -2.3 1.3 -2 0.7 0.2 27.6 15.7 59.7 34.2 69.9 40.4 83.6 48.3 113 65.2 12.4 7.1 30.5 17.6 40.3 23.2 l17.8 10.4 -0.2 7.1 c-0.3 8.7 -0.7 10.6 -2.5 10.6 -1.1 0 -1.4 -1.7 -1.4 -6.7z"/>
  <path d="M228 150.2 c0 -0.7 12.3 -8.2 13.5 -8.2 0.3 0 0.5 1.1 0.5 2.5 0 2.2 -0.4 2.5 -3.5 2.5 -2.8 0 -3.5 0.4 -3.5 2 0 1.6 -0.7 2 -3.5 2 -1.9 0 -3.5 -0.4 -3.5 -0.8z"/>
  <path d="M10.2 146.9 c0.2 -1.6 5.7 -5.3 22.3 -15 12.1 -7.1 22.3 -12.9 22.8 -12.9 0.4 0 0.7 1.1 0.7 2.4 0 2.4 -1.6 3.6 -5.1 3.6 -1 0 -1.9 0.7 -1.9 1.5 0 0.9 -0.9 1.5 -2.5 1.5 -1.5 0 -2.5 0.6 -2.5 1.4 0 1.5 -2.1 2.6 -5.1 2.6 -1 0 -1.9 0.7 -1.9 1.5 0 1 -1.1 1.5 -3.5 1.5 -2.8 0 -3.5 0.4 -3.5 2 0 1.5 -0.7 2 -2.5 2 -1.5 0 -2.5 0.6 -2.5 1.4 0 1.5 -2.1 2.6 -5.1 2.6 -1 0 -1.9 0.7 -1.9 1.5 0 0.8 -0.9 1.5 -2 1.5 -1.1 0 -2 0.7 -2 1.5 0 0.9 -0.9 1.5 -2.1 1.5 -1.5 0 -2 -0.5 -1.7 -2.1z"/>
  <path d="M145 140.5 c0 -2.2 0.4 -2.5 3.5 -2.5 2.8 0 3.5 -0.4 3.5 -2 0 -1.6 0.7 -2 3.5 -2 2.8 0 3.5 -0.4 3.5 -2 0 -1.5 0.7 -2 2.5 -2 1.6 0 2.5 -0.6 2.5 -1.5 0 -1 1.1 -1.5 3.5 -1.5 2.8 0 3.5 -0.4 3.5 -2 0 -1.6 0.7 -2 3.5 -2 1.9 0 3.5 0.4 3.5 0.8 0 0.7 -31.2 19.2 -32.4 19.2 -0.3 0 -0.6 -1.1 -0.6 -2.5z"/>
  <path d="M183 118.5 c0 -2.2 0.4 -2.5 3.5 -2.5 2.8 0 3.5 -0.4 3.5 -2 0 -1.5 0.7 -2 2.5 -2 1.6 0 2.5 -0.6 2.5 -1.5 0 -1 1.1 -1.5 3.5 -1.5 2.8 0 3.5 -0.4 3.5 -2 0 -1.5 0.7 -2 2.5 -2 1.6 0 2.5 -0.6 2.5 -1.5 0 -1 1.1 -1.5 3.5 -1.5 2.8 0 3.5 -0.4 3.5 -2 0 -1.5 0.7 -2 2.5 -2 1.6 0 2.5 -0.6 2.5 -1.5 0 -1 1.1 -1.5 3.5 -1.5 2.8 0 3.5 -0.4 3.5 -2 0 -1.5 0.7 -2 2.5 -2 1.5 0 2.5 -0.6 2.5 -1.4 0 -0.8 0.7 -1.7 1.6 -2 2.2 -0.8 7.4 -0.7 7.4 0.2 0 0.7 -55.3 33.2 -56.5 33.2 -0.3 0 -0.5 -1.1 -0.5 -2.5z"/>
  <path d="M61 116.2 c0 -0.7 62.1 -37.2 63.4 -37.2 0.3 0 0.6 1.1 0.6 2.4 0 2.4 -1.6 3.6 -5.1 3.6 -1 0 -1.9 0.7 -1.9 1.5 0 0.9 -0.9 1.5 -2.5 1.5 -1.5 0 -2.5 0.6 -2.5 1.4 0 1.5 -2.1 2.6 -5.1 2.6 -1 0 -1.9 0.7 -1.9 1.5 0 1 -1.1 1.5 -3.5 1.5 -2.8 0 -3.5 0.4 -3.5 2 0 1.5 -0.7 2 -2.5 2 -1.5 0 -2.5 0.6 -2.5 1.4 0 1.5 -2.1 2.6 -5.1 2.6 -1 0 -1.9 0.7 -1.9 1.5 0 1 -1.1 1.5 -3.5 1.5 -2.8 0 -3.5 0.4 -3.5 2 0 1.5 -0.7 2 -2.5 2 -1.6 0 -2.5 0.6 -2.5 1.5 0 1 -1.1 1.5 -3.5 1.5 -2.8 0 -3.5 0.4 -3.5 2 0 1.6 -0.7 2 -3.5 2 -1.9 0 -3.5 -0.3 -3.5 -0.8z"/>
  <path d="M130 76.2 c0 -0.7 17.3 -11.2 18.5 -11.2 0.3 0 0.5 1.1 0.5 2.5 0 2 -0.5 2.5 -2.5 2.5 -1.6 0 -2.5 0.6 -2.5 1.5 0 1 -1.1 1.5 -3.5 1.5 -2.8 0 -3.5 0.4 -3.5 2 0 1.6 -0.7 2 -3.5 2 -1.9 0 -3.5 -0.3 -3.5 -0.8z"/>
  <path d="M152 63.2 c0 -0.7 19.1 -12.2 20.4 -12.2 0.3 0 0.6 1.1 0.6 2.4 0 2.4 -1.6 3.6 -5.1 3.6 -1 0 -1.9 0.7 -1.9 1.5 0 0.9 -0.9 1.5 -2.5 1.5 -1.5 0 -2.5 0.6 -2.5 1.4 0 0.8 -0.7 1.7 -1.6 2 -2.2 0.9 -7.4 0.7 -7.4 -0.2z"/>
  <path d="M238 45 l0 -6 3.5 0 3.5 0 0 6 0 6 -3.5 0 -3.5 0 0 -6z"/>
  <path d="M178 48.2 c0 -0.7 62.1 -37.2 63.4 -37.2 0.3 0 0.6 1.1 0.6 2.4 0 2.4 -1.6 3.6 -5.1 3.6 -1 0 -1.9 0.7 -1.9 1.5 0 1 -1.1 1.5 -3.5 1.5 -2.8 0 -3.5 0.4 -3.5 2 0 1.5 -0.7 2 -2.5 2 -1.6 0 -2.5 0.6 -2.5 1.5 0 1 -1.1 1.5 -3.5 1.5 -2.8 0 -3.5 0.4 -3.5 2 0 1.5 -0.7 2 -2.5 2 -1.6 0 -2.5 0.6 -2.5 1.5 0 1 -1.1 1.5 -3.5 1.5 -2.8 0 -3.5 0.4 -3.5 2 0 1.6 -0.7 2 -3.5 2 -2.8 0 -3.5 0.4 -3.5 2 0 1.5 -0.7 2 -2.5 2 -1.6 0 -2.5 0.6 -2.5 1.5 0 1 -1.1 1.5 -3.5 1.5 -2.8 0 -3.5 0.4 -3.5 2 0 1.6 -0.7 2 -3.5 2 -1.9 0 -3.5 -0.3 -3.5 -0.8z"/>
 </g>
 <g fill="#8c8c8c">
 </g>
 <g fill="#949494">
 </g>
 <g fill="#9c9c9c">
 </g>
 <g fill="#a5a5a5">
 </g>
 <g fill="#adadad">
  <path d="M198 461.7 c-23.9 -13.9 -76.2 -44.1 -116.3 -67.2 -68.9 -39.7 -72.7 -42.1 -72.3 -44.5 0.2 -1.4 0.5 -3.1 0.5 -3.9 0.1 -0.9 0.9 -1.1 2.4 -0.7 1.4 0.3 3.6 -0.3 5.7 -1.5 1.9 -1.2 15.1 -8.9 29.4 -17.2 14.4 -8.3 26.3 -15.4 26.4 -15.9 0.2 -0.4 1.9 -0.8 3.8 -0.8 2.7 0 3.4 -0.4 3.4 -2 0 -1.6 0.7 -2 3.5 -2 2.8 0 3.5 -0.4 3.5 -2 0 -1.5 0.7 -2 2.5 -2 1.6 0 2.5 -0.6 2.5 -1.5 0 -1 1.1 -1.5 3.5 -1.5 2.8 0 3.5 -0.4 3.5 -2 0 -1.5 0.7 -2 2.5 -2 1.6 0 2.5 -0.6 2.5 -1.5 0 -1 1.1 -1.5 3.5 -1.5 2.8 0 3.5 -0.4 3.5 -2 0 -1.5 0.7 -2 2.5 -2 1.5 0 2.5 -0.6 2.5 -1.4 0 -0.8 0.9 -1.8 2.1 -2.1 2.3 -0.8 15.9 -8.5 46 -26.3 12.2 -7.2 21.7 -12.2 23.3 -12.2 1.9 0 2.6 -0.5 2.6 -2 0 -1.6 0.7 -2 3.5 -2 2.8 0 3.5 -0.4 3.5 -2 0 -1.6 0.7 -2 3.5 -2 2.8 0 3.5 -0.4 3.5 -2 0 -1.5 0.7 -2 2.5 -2 1.5 0 2.5 -0.6 2.5 -1.4 0 -1.5 2.1 -2.6 5.1 -2.6 1 0 1.9 -0.7 1.9 -1.5 0 -1 1.1 -1.5 3.5 -1.5 2.8 0 3.5 -0.4 3.5 -2 0 -1.5 0.7 -2 2.5 -2 1.6 0 2.5 -0.6 2.5 -1.5 0 -1 1 -1.5 3.3 -1.5 3.2 0 3.4 -0.2 4.5 -5.1 0.8 -3.4 1.2 -15.7 1.1 -37.2 -0.1 -17.7 -0.4 -31.2 -0.6 -29.9 -0.4 1.8 -1.1 2.2 -3.9 2.2 -2.7 0 -3.4 0.4 -3.4 2 0 1.5 -0.7 2 -2.5 2 -1.6 0 -2.5 0.6 -2.5 1.5 0 1 -1.1 1.5 -3.5 1.5 -2.8 0 -3.5 0.4 -3.5 2 0 1.6 -0.7 2 -3.5 2 -1.9 0 -3.5 -0.4 -3.5 -0.8 0 -0.6 27 -16.8 30.1 -18 0.4 -0.2 14.2 7.4 30.6 16.9 52.1 30.2 78.6 45.5 84.3 48.6 l5.5 3.1 21.8 -12.7 c11.9 -7 22.1 -13.1 22.6 -13.7 1 -1 -162.3 -95.8 -164.9 -95.7 -0.8 0 -2.3 0.4 -3.4 0.8 -1.7 0.7 -1.8 0.5 -1.1 -2.6 0.4 -1.9 0.9 -18.9 1 -37.9 0.2 -19 0.1 -33.5 -0.2 -32.3 -0.3 1.9 -1.1 2.3 -3.9 2.3 -2.7 0 -3.4 0.4 -3.4 2 0 1.5 -0.7 2 -2.5 2 -1.6 0 -2.5 0.6 -2.5 1.5 0 1 -1.1 1.5 -3.5 1.5 -2.8 0 -3.5 0.4 -3.5 2 0 1.6 -0.7 2 -3.5 2 -1.9 0 -3.5 -0.4 -3.5 -0.8 0 -0.4 6.9 -4.7 15.3 -9.6 14.5 -8.4 15.3 -8.8 17.7 -7.4 3.6 2 52.9 30.5 82.5 47.6 13.8 7.9 40.1 23.1 58.5 33.7 18.4 10.6 43.4 25 55.5 32 12.1 7 24.8 14.3 28.2 16.3 5.6 3.2 6.1 3.8 5.8 6.6 -0.2 1.7 -0.4 3.7 -0.4 4.4 -0.1 1.5 -2.8 1.6 -3.3 0 -0.4 -1.2 -1.8 -0.5 -20.8 10.7 -5.8 3.4 -17 10 -25 14.6 -8 4.6 -14.6 8.7 -14.8 9.1 -0.2 0.5 -1.5 0.8 -2.8 0.8 -1.5 0 -2.4 0.6 -2.4 1.5 0 0.9 -0.9 1.5 -2.5 1.5 -1.6 0 -2.5 0.6 -2.5 1.5 0 1 -1.1 1.5 -3.5 1.5 -2.8 0 -3.5 0.4 -3.5 2 0 1.6 -0.7 2 -3.5 2 -2.8 0 -3.5 0.4 -3.5 2 0 1.5 -0.7 2 -2.5 2 -1.6 0 -2.5 0.6 -2.5 1.5 0 1 -1.1 1.5 -3.5 1.5 -2.8 0 -3.5 0.4 -3.5 2 0 1.5 -0.7 2 -2.5 2 -1.6 0 -2.5 0.6 -2.5 1.5 0 0.8 -0.9 1.5 -2 1.5 -1.1 0 -2.8 0.7 -3.7 1.6 -1 0.9 -9.2 5.9 -18.3 11.1 -9.1 5.2 -23.3 13.5 -31.7 18.4 -8.4 4.9 -16.4 8.9 -17.8 8.9 -1.8 0 -2.5 0.5 -2.5 2 0 1.5 -0.7 2 -2.5 2 -1.6 0 -2.5 0.6 -2.5 1.5 0 1 -1.1 1.5 -3.5 1.5 -2.8 0 -3.5 0.4 -3.5 2 0 1.5 -0.7 2 -2.5 2 -1.6 0 -2.5 0.6 -2.5 1.5 0 1 -1.1 1.5 -3.5 1.5 -2.8 0 -3.5 0.4 -3.5 2 0 1.6 -0.7 2 -3.5 2 -1.9 0 -3.5 -0.3 -3.5 -0.8 0 -0.4 7.2 -4.9 16.1 -10.1 8.8 -5.1 15.7 -9.7 15.2 -10.1 -2.1 -2 -52.3 -30.1 -53 -29.7 -18.5 10.2 -50.2 29.2 -49.6 29.7 1.6 1.5 51.3 30 52.2 30 0.6 0 3.7 -1.6 7 -3.5 3.2 -1.9 6.2 -3.5 6.5 -3.5 0.3 0 0.6 1.1 0.6 2.5 0 2.2 -0.4 2.5 -3.5 2.5 -2.8 0 -3.5 0.4 -3.5 2 0 1.1 -0.6 2 -1.4 2 -2.3 0 -2.6 4.9 -2.6 37.6 l0 31.4 2.5 0 c3.7 0 3 1.4 -1.9 4 l-4.3 2.4 -34.4 -19.9 c-18.9 -10.9 -45.5 -26.3 -59.1 -34.2 -13.5 -7.8 -25.2 -14.3 -25.9 -14.3 -1.3 0 -42.4 23.4 -44.7 25.5 -1.3 1.2 -3.2 0 59.3 36 15.4 8.9 37.2 21.5 48.5 28 48.7 28.2 56.2 32.5 57 32.5 0.5 0 3.6 -1.6 6.9 -3.5 3.2 -1.9 6.2 -3.5 6.5 -3.5 0.3 0 0.6 1.1 0.6 2.5 0 2.2 -0.4 2.5 -3.5 2.5 -2.8 0 -3.5 0.4 -3.5 2 0 1.1 -0.6 2 -1.4 2 -2.3 0 -2.6 4.9 -2.6 39.4 0 33.2 -0.2 35.7 -3.4 35.5 -0.6 0 -20.7 -11.4 -44.6 -25.2z"/>
  <path d="M247 481.5 c0 -2.2 0.4 -2.5 3.5 -2.5 2.8 0 3.5 -0.4 3.5 -2 0 -1.5 0.7 -2 2.5 -2 1.6 0 2.5 -0.6 2.5 -1.5 0 -1 1.1 -1.5 3.5 -1.5 2.8 0 3.5 -0.4 3.5 -2 0 -1.6 0.7 -2 3.5 -2 2.8 0 3.5 -0.4 3.5 -2 0 -1.5 0.7 -2 2.5 -2 1.6 0 2.5 -0.6 2.5 -1.5 0 -1 1.1 -1.5 3.5 -1.5 2.8 0 3.5 -0.4 3.5 -2 0 -1.5 0.7 -2 2.5 -2 1.6 0 2.5 -0.6 2.5 -1.5 0 -1 1.1 -1.5 3.5 -1.5 2.8 0 3.5 -0.4 3.5 -2 0 -1.6 0.7 -2 3.5 -2 2.8 0 3.5 -0.4 3.5 -2 0 -1.5 0.7 -2 2.5 -2 1.6 0 2.5 -0.6 2.5 -1.5 0 -1 1.1 -1.5 3.5 -1.5 2.8 0 3.5 -0.4 3.5 -2 0 -1.6 0.7 -2 3.5 -2 1.9 0 3.5 0.3 3.5 0.8 0 0.7 -74.2 44.2 -75.5 44.2 -0.3 0 -0.5 -1.1 -0.5 -2.5z"/>
  <path d="M328 434.5 c0 -2.2 0.4 -2.5 3.5 -2.5 2.8 0 3.5 -0.4 3.5 -2 0 -1.5 0.7 -2 2.5 -2 1.5 0 2.5 -0.6 2.5 -1.4 0 -1.5 2.1 -2.6 5.1 -2.6 1 0 1.9 -0.7 1.9 -1.5 0 -1 1.1 -1.5 3.5 -1.5 2.8 0 3.5 -0.4 3.5 -2 0 -1.5 0.7 -2 2.5 -2 1.6 0 2.5 -0.6 2.5 -1.5 0 -1 1.1 -1.5 3.5 -1.5 2.8 0 3.5 -0.4 3.5 -2 0 -1.6 0.7 -2 3.5 -2 1.9 0 3.5 0.3 3.5 0.8 0 0.7 -43.2 26.2 -44.4 26.2 -0.3 0 -0.6 -1.1 -0.6 -2.5z"/>
  <path d="M378 405.5 c0 -2.2 0.4 -2.5 3.5 -2.5 2.8 0 3.5 -0.4 3.5 -2 0 -1.5 0.7 -2 2.5 -2 1.6 0 2.5 -0.6 2.5 -1.5 0 -1 1.1 -1.5 3.5 -1.5 2.8 0 3.5 -0.4 3.5 -2 0 -1.5 0.7 -2 2.5 -2 1.6 0 2.5 -0.6 2.5 -1.5 0 -0.9 0.9 -1.5 2.5 -1.5 1.6 0 2.5 -0.6 2.5 -1.5 0 -1 1.1 -1.5 3.5 -1.5 2.8 0 3.5 -0.4 3.5 -2 0 -1.6 0.7 -2 3.5 -2 1.9 0 3.5 0.3 3.5 0.8 0 0.7 -41.2 25.2 -42.4 25.2 -0.3 0 -0.6 -1.1 -0.6 -2.5z"/>
  <path d="M262 400.2 c0 -0.8 5.2 -4.2 6.4 -4.2 0.3 0 0.6 1.1 0.6 2.5 0 2.2 -0.4 2.5 -3.5 2.5 -1.9 0 -3.5 -0.4 -3.5 -0.8z"/>
  <path d="M274 393.2 c0 -0.7 60.2 -36.2 61.4 -36.2 0.3 0 0.6 1.1 0.6 2.5 0 2.2 -0.4 2.5 -3.5 2.5 -2.8 0 -3.5 0.4 -3.5 2 0 1.5 -0.7 2 -2.5 2 -1.6 0 -2.5 0.6 -2.5 1.5 0 1 -1.1 1.5 -3.5 1.5 -2.8 0 -3.5 0.4 -3.5 2 0 1.5 -0.7 2 -2.5 2 -1.6 0 -2.5 0.6 -2.5 1.5 0 1 -1.1 1.5 -3.5 1.5 -2.8 0 -3.5 0.4 -3.5 2 0 1.5 -0.7 2 -2.5 2 -1.6 0 -2.5 0.6 -2.5 1.5 0 1 -1.1 1.5 -3.5 1.5 -2.8 0 -3.5 0.4 -3.5 2 0 1.5 -0.7 2 -2.5 2 -1.6 0 -2.5 0.6 -2.5 1.5 0 1 -1.1 1.5 -3.5 1.5 -2.8 0 -3.5 0.4 -3.5 2 0 1.6 -0.7 2 -3.5 2 -1.9 0 -3.5 -0.3 -3.5 -0.8z"/>
  <path d="M426 377.6 c0 -2.3 0.4 -2.6 3.5 -2.6 2.8 0 3.5 -0.4 3.5 -2 0 -1.5 0.7 -2 2.5 -2 1.6 0 2.5 -0.6 2.5 -1.5 0 -1 1.1 -1.5 3.5 -1.5 2.8 0 3.5 -0.4 3.5 -2 0 -1.6 0.7 -2 3.5 -2 2.8 0 3.5 -0.4 3.5 -2 0 -1.5 0.7 -2 2.5 -2 1.5 0 2.5 -0.6 2.5 -1.4 0 -1.5 2.1 -2.6 5.1 -2.6 1 0 1.9 -0.7 1.9 -1.5 0 -1 1 -1.5 3 -1.5 l3 0 0 -9.5 c0 -8.8 0.1 -9.5 2 -9.5 1.8 0 2 0.7 2 7.8 0 4.2 -0.3 8.6 -0.6 9.7 -0.3 1.4 -7.9 6.3 -23 15 -12.4 7.2 -22.9 13.2 -23.4 13.3 -0.6 0.2 -1 -0.8 -1 -2.2z"/>
  <path d="M341 354.2 c0 -0.8 5.2 -4.2 6.4 -4.2 0.3 0 0.6 1.1 0.6 2.5 0 2.2 -0.4 2.5 -3.5 2.5 -1.9 0 -3.5 -0.4 -3.5 -0.8z"/>
  <path d="M256 345.5 c0 -2.2 0.4 -2.5 3.5 -2.5 2.8 0 3.5 -0.4 3.5 -2 0 -1.5 0.7 -2 2.5 -2 1.6 0 2.5 -0.6 2.5 -1.5 0 -1 1.1 -1.5 3.5 -1.5 2.8 0 3.5 -0.4 3.5 -2 0 -1.5 0.7 -2 2.5 -2 1.5 0 2.5 -0.6 2.5 -1.4 0 -1.5 2.1 -2.6 5.1 -2.6 1 0 1.9 -0.7 1.9 -1.5 0 -1 1.1 -1.5 3.5 -1.5 1.9 0 3.5 0.4 3.5 0.8 0 0.7 -36.2 22.2 -37.5 22.2 -0.3 0 -0.5 -1.1 -0.5 -2.5z"/>
  <path d="M353 347.2 c0 -0.4 11.4 -7.4 25.3 -15.4 13.9 -8.1 26 -15.3 27 -16 1.6 -1.2 -1 -2.9 -21.4 -14.7 -23.1 -13.4 -23.2 -13.4 -25.9 -11.7 -3.7 2.1 -4 2 -4 -0.9 0 -2 0.5 -2.5 2.5 -2.5 1.4 0 2.5 -0.4 2.5 -0.9 0 -1.1 65.5 -39.1 67.5 -39.1 0.8 0 1.5 -0.7 1.5 -1.5 0 -1 1.1 -1.5 3.5 -1.5 2.8 0 3.5 -0.4 3.5 -2 0 -1.5 0.7 -2 2.5 -2 1.6 0 2.5 -0.6 2.5 -1.5 0 -1 1.1 -1.5 3.5 -1.5 2.8 0 3.5 -0.4 3.5 -2 0 -1.5 0.7 -2 2.5 -2 1.6 0 2.5 -0.6 2.5 -1.5 0 -1 1.1 -1.5 3.5 -1.5 2.8 0 3.5 -0.4 3.5 -2 0 -1.5 0.7 -2 2.5 -2 1.6 0 2.5 -0.6 2.5 -1.5 0 -1 1 -1.5 3 -1.5 l3 0 0 -9.5 c0 -8.8 0.1 -9.5 2 -9.5 1.8 0 2 0.7 2 7.8 0 4.2 -0.3 8.6 -0.6 9.7 -0.3 1.3 -8 6.4 -22.9 15 -12.4 7.2 -22.5 13.2 -22.5 13.5 0 0.3 10.6 6.5 23.4 13.9 23.2 13.3 23.4 13.4 23.1 16.5 -0.2 1.7 -0.4 3.7 -0.4 4.4 -0.1 1.6 -2.8 1.6 -3.3 0 -0.3 -0.8 -3.7 0.7 -9.9 4.3 -5.2 3.1 -18.6 10.9 -29.9 17.5 -11.3 6.5 -21.1 12.4 -21.8 13.1 -0.7 0.7 -2.4 1.3 -3.8 1.3 -1.5 0 -2.4 0.6 -2.4 1.5 0 1 -1.1 1.5 -3.5 1.5 -2.8 0 -3.5 0.4 -3.5 2 0 1.5 -0.7 2 -2.5 2 -1.6 0 -2.5 0.6 -2.5 1.5 0 1 -1.1 1.5 -3.5 1.5 -2.8 0 -3.5 0.4 -3.5 2 0 1.5 -0.7 2 -2.5 2 -1.6 0 -2.5 0.6 -2.5 1.5 0 1 -1.1 1.5 -3.5 1.5 -2.8 0 -3.5 0.4 -3.5 2 0 1.5 -0.7 2 -2.5 2 -1.6 0 -2.5 0.6 -2.5 1.5 0 1 -1.1 1.5 -3.5 1.5 -2.8 0 -3.5 0.4 -3.5 2 0 1.6 -0.7 2 -3.5 2 -1.9 0 -3.5 -0.3 -3.5 -0.8z"/>
  <path d="M299 320.5 c0 -2.2 0.4 -2.5 3.5 -2.5 2.8 0 3.5 -0.4 3.5 -2 0 -1.5 0.7 -2 2.5 -2 1.6 0 2.5 -0.6 2.5 -1.5 0 -1 1.1 -1.5 3.5 -1.5 2.8 0 3.5 -0.4 3.5 -2 0 -1.5 0.7 -2 2.5 -2 1.6 0 2.5 -0.6 2.5 -1.5 0 -1 1.1 -1.5 3.5 -1.5 2.8 0 3.5 -0.4 3.5 -2 0 -1.5 0.7 -2 2.5 -2 1.5 0 2.5 -0.6 2.5 -1.4 0 -1.5 2.1 -2.6 5.1 -2.6 1 0 1.9 -0.7 1.9 -1.5 0 -1 1.1 -1.5 3.5 -1.5 1.9 0 3.5 0.4 3.5 0.8 0 0.7 -48.2 29.2 -49.5 29.2 -0.3 0 -0.5 -1.1 -0.5 -2.5z"/>
  <path d="M10 286.3 c0 -4.9 0.4 -9.3 0.8 -9.9 0.7 -1.1 38.5 -23.4 39.6 -23.4 0.3 0 0.6 1.1 0.6 2.5 0 2.2 -0.4 2.5 -3.5 2.5 -2.8 0 -3.5 0.4 -3.5 2 0 1.5 -0.7 2 -2.5 2 -1.6 0 -2.5 0.6 -2.5 1.5 0 1 -1.1 1.5 -3.5 1.5 -2.8 0 -3.5 0.4 -3.5 2 0 1.5 -0.7 2 -2.5 2 -1.6 0 -2.5 0.6 -2.5 1.5 0 1 -1.1 1.5 -3.5 1.5 -2.8 0 -3.5 0.4 -3.5 2 0 1.6 -0.7 2 -3 2 l-3 0 0 9.5 c0 8.8 -0.1 9.5 -2 9.5 -1.8 0 -2 -0.7 -2 -8.7z"/>
  <path d="M54.4 250.5 c1.1 -0.8 1.8 -1.6 1.5 -1.8 -0.2 -0.2 -10.9 -6.4 -23.7 -13.8 l-23.3 -13.4 0.5 -3.5 c0.3 -1.9 0.5 -3.8 0.6 -4.2 0 -1.3 2.8 -0.9 3.2 0.3 0.4 1.2 59.9 -32.6 60.6 -34.3 0.2 -0.4 1.9 -0.8 3.8 -0.8 2.7 0 3.4 -0.4 3.4 -2 0 -1.6 0.7 -2 3.5 -2 2.8 0 3.5 -0.4 3.5 -2 0 -1.5 0.7 -2 2.5 -2 1.6 0 2.5 -0.6 2.5 -1.5 0 -1 1.1 -1.5 3.5 -1.5 2.8 0 3.5 -0.4 3.5 -2 0 -1.5 0.7 -2 2.5 -2 1.6 0 2.5 -0.6 2.5 -1.5 0 -1 1.1 -1.5 3.5 -1.5 2.8 0 3.5 -0.4 3.5 -2 0 -1.6 0.7 -2 3.5 -2 2.8 0 3.5 -0.4 3.5 -2 0 -1.5 0.7 -2 2.5 -2 1.6 0 2.5 -0.6 2.5 -1.5 0 -1 1.1 -1.5 3.5 -1.5 2.8 0 3.5 -0.4 3.5 -2 0 -1.5 0.7 -2 2.5 -2 1.5 0 2.5 -0.6 2.5 -1.4 0 -1.5 2.1 -2.6 5.1 -2.6 1 0 1.9 -0.7 1.9 -1.5 0 -1 1.1 -1.5 3.5 -1.5 2.8 0 3.5 -0.4 3.5 -2 0 -1.6 0.7 -2 3.5 -2 2.8 0 3.5 -0.4 3.5 -2 0 -1.5 0.7 -2 2.5 -2 1.6 0 2.5 -0.6 2.5 -1.5 0 -1 1.1 -1.5 3.5 -1.5 2.8 0 3.5 -0.4 3.5 -2 0 -1.5 0.7 -2 2.5 -2 1.5 0 2.5 -0.6 2.5 -1.4 0 -1.5 2.1 -2.6 5.1 -2.6 1 0 1.9 -0.7 1.9 -1.5 0 -1 1.1 -1.5 3.5 -1.5 2.8 0 3.5 -0.4 3.5 -2 0 -1.5 0.7 -2 2.5 -2 1.6 0 2.5 -0.6 2.5 -1.5 0 -1 1.1 -1.5 3.5 -1.5 2.8 0 3.5 -0.4 3.5 -2 0 -1.5 0.7 -2 2.5 -2 1.6 0 2.5 -0.6 2.5 -1.5 0 -1 1.1 -1.5 3.5 -1.5 2.8 0 3.5 -0.4 3.5 -2 0 -1.5 0.7 -2 2.5 -2 1.6 0 2.5 -0.6 2.5 -1.5 0 -1 1.1 -1.5 3.5 -1.5 2.8 0 3.5 -0.4 3.5 -2 0 -1.6 0.7 -2 3.5 -2 1.9 0 3.5 0.3 3.5 0.8 0 0.8 0.4 0.6 -87.5 51.5 -35.2 20.3 -64.6 37.5 -65.2 38.1 -1 0.9 4 4.3 21.6 14.4 12.6 7.3 23.1 13.2 23.4 13.2 0.4 0 7 -3.7 14.9 -8.3 39.4 -23 66.7 -38.7 67.2 -38.7 0.3 0 0.6 1.1 0.6 2.5 0 2.2 -0.4 2.5 -3.5 2.5 -2.8 0 -3.5 0.4 -3.5 2 0 1.5 -0.7 2 -2.5 2 -1.6 0 -2.5 0.6 -2.5 1.5 0 1 -1.1 1.5 -3.5 1.5 -2.8 0 -3.5 0.4 -3.5 2 0 1.6 -0.7 2 -3.5 2 -2.8 0 -3.5 0.4 -3.5 2 0 1.5 -0.7 2 -2.5 2 -1.6 0 -2.5 0.6 -2.5 1.5 0 1 -1.1 1.5 -3.5 1.5 -2.8 0 -3.5 0.4 -3.5 2 0 1.5 -0.7 2 -2.5 2 -1.6 0 -2.5 0.6 -2.5 1.5 0 1 -1.1 1.5 -3.5 1.5 -2.8 0 -3.5 0.4 -3.5 1.9 0 2 -1.8 3.1 -5.1 3.1 -1 0 -1.9 0.7 -1.9 1.5 0 1 -1.1 1.5 -3.5 1.5 -2.8 0 -3.5 0.4 -3.5 2 0 1.5 -0.7 2 -2.5 2 -1.6 0 -2.5 0.6 -2.5 1.5 0 1 -1.1 1.5 -3.5 1.5 -2.8 0 -3.5 0.4 -3.5 2 0 1.5 -0.7 2 -2.5 2 -1.4 0 -2.5 0.4 -2.5 0.9 0 0.5 -5.3 3.9 -11.7 7.7 -6.5 3.7 -16.5 9.5 -22.3 12.9 -30.2 17.7 -31.6 18.5 -35.1 18.5 -3.2 -0.1 -3.3 -0.2 -1.5 -1.5z"/>
  <path d="M10 155.3 c0 -4.9 0.4 -9.3 0.8 -9.9 0.7 -1.1 26.5 -16.4 27.6 -16.4 0.3 0 0.6 1.1 0.6 2.5 0 2.2 -0.4 2.5 -3.5 2.5 -2.8 0 -3.5 0.4 -3.5 2 0 1.5 -0.7 2 -2.5 2 -1.6 0 -2.5 0.6 -2.5 1.5 0 1 -1.1 1.5 -3.5 1.5 -2.8 0 -3.5 0.4 -3.5 2 0 1.6 -0.7 2 -3 2 l-3 0 0 9.5 c0 8.8 -0.1 9.5 -2 9.5 -1.8 0 -2 -0.7 -2 -8.7z"/>
  <path d="M44 126.2 c0 -0.7 62.2 -37.2 63.5 -37.2 0.3 0 0.5 1.1 0.5 2.5 0 2.2 -0.4 2.5 -3.5 2.5 -2.8 0 -3.5 0.4 -3.5 2 0 1.5 -0.7 2 -2.5 2 -1.6 0 -2.5 0.6 -2.5 1.5 0 1 -1.1 1.5 -3.5 1.5 -2.8 0 -3.5 0.4 -3.5 2 0 1.6 -0.7 2 -3.5 2 -2.8 0 -3.5 0.4 -3.5 2 0 1.5 -0.7 2 -2.5 2 -1.6 0 -2.5 0.6 -2.5 1.5 0 1 -1.1 1.5 -3.5 1.5 -2.8 0 -3.5 0.4 -3.5 2 0 1.6 -0.7 2 -3.5 2 -2.8 0 -3.5 0.4 -3.5 2 0 1.5 -0.7 2 -2.5 2 -1.6 0 -2.5 0.6 -2.5 1.5 0 1 -1.1 1.5 -3.5 1.5 -2.8 0 -3.5 0.4 -3.5 2 0 1.6 -0.7 2 -3.5 2 -1.9 0 -3.5 -0.3 -3.5 -0.8z"/>
  <path d="M113 86.2 c0 -0.7 91.2 -54.2 92.4 -54.2 0.3 0 0.6 1.1 0.6 2.5 0 2.2 -0.4 2.5 -3.5 2.5 -2.8 0 -3.5 0.4 -3.5 2 0 1.5 -0.7 2 -2.5 2 -1.6 0 -2.5 0.6 -2.5 1.5 0 1 -1.1 1.5 -3.5 1.5 -2.8 0 -3.5 0.4 -3.5 2 0 1.6 -0.7 2 -3.5 2 -2.8 0 -3.5 0.4 -3.5 2 0 1.5 -0.7 2 -2.5 2 -1.6 0 -2.5 0.6 -2.5 1.5 0 1 -1.1 1.5 -3.5 1.5 -2.8 0 -3.5 0.4 -3.5 2 0 1.5 -0.7 2 -2.5 2 -1.6 0 -2.5 0.6 -2.5 1.5 0 1 -1.1 1.5 -3.5 1.5 -2.8 0 -3.5 0.4 -3.5 2 0 1.5 -0.7 2 -2.5 2 -1.6 0 -2.5 0.6 -2.5 1.5 0 0.9 -0.9 1.5 -2.5 1.5 -1.6 0 -2.5 0.6 -2.5 1.5 0 1 -1.1 1.5 -3.5 1.5 -2.8 0 -3.5 0.4 -3.5 2 0 1.6 -0.7 2 -3.5 2 -2.8 0 -3.5 0.4 -3.5 2 0 1.5 -0.7 2 -2.5 2 -1.6 0 -2.5 0.6 -2.5 1.5 0 1 -1.1 1.5 -3.5 1.5 -2.8 0 -3.5 0.4 -3.5 2 0 1.6 -0.7 2 -3.5 2 -1.9 0 -3.5 -0.3 -3.5 -0.8z"/>
 </g>
 <g fill="#b5b5b5">
 </g>
 <g fill="#bdbdbd">
 </g>
 <g fill="#c5c5c5">
 </g>
 <g fill="#cecece">
 </g>
 <g fill="#d6d6d6">
  <path d="M242.6 483.8 c0.1 -1.8 0.3 -3.9 0.3 -4.5 0.1 -1.5 3.1 -1.8 3.1 -0.3 0 0.6 0.9 1 2 1 1.1 0 2 -0.6 2 -1.4 0 -1.5 2.1 -2.6 5.1 -2.6 1 0 1.9 -0.7 1.9 -1.5 0 -1 1.1 -1.5 3.5 -1.5 2.8 0 3.5 -0.4 3.5 -2 0 -1.5 0.7 -2 2.5 -2 1.5 0 2.5 -0.6 2.5 -1.4 0 -1.5 2.1 -2.6 5.1 -2.6 1 0 1.9 -0.7 1.9 -1.5 0 -0.9 0.9 -1.5 2.5 -1.5 1.5 0 2.5 -0.6 2.5 -1.4 0 -1.5 2.1 -2.6 5.1 -2.6 1 0 1.9 -0.7 1.9 -1.5 0 -0.9 0.9 -1.5 2.5 -1.5 1.5 0 2.5 -0.6 2.5 -1.4 0 -1.5 2.1 -2.6 5.1 -2.6 1 0 1.9 -0.6 1.9 -1.4 0 -1.5 2.1 -2.6 5.1 -2.6 1 0 1.9 -0.7 1.9 -1.5 0 -0.9 0.9 -1.5 2.5 -1.5 1.5 0 2.5 -0.6 2.5 -1.4 0 -1.5 2.1 -2.6 5.1 -2.6 1 0 1.9 -0.6 1.9 -1.4 0 -0.8 1 -1.8 2.2 -2.2 1.2 -0.3 2.8 -1.3 3.6 -2 0.7 -0.8 2.4 -1.4 3.8 -1.4 1.4 0 2.4 -0.6 2.4 -1.4 0 -1.5 2.1 -2.6 5.1 -2.6 1 0 1.9 -0.7 1.9 -1.5 0 -0.9 0.9 -1.5 2.5 -1.5 1.5 0 2.5 -0.6 2.5 -1.4 0 -1.5 2.1 -2.6 5.1 -2.6 1 0 1.9 -0.6 1.9 -1.4 0 -1.5 2.1 -2.6 5.1 -2.6 1 0 1.9 -0.7 1.9 -1.5 0 -1 1.1 -1.5 3.5 -1.5 2.8 0 3.5 -0.4 3.5 -2 0 -1.5 0.7 -2 2.5 -2 1.5 0 2.5 -0.6 2.5 -1.4 0 -1.5 2.1 -2.6 5.1 -2.6 1 0 1.9 -0.7 1.9 -1.5 0 -0.9 0.9 -1.5 2.5 -1.5 1.5 0 2.5 -0.6 2.5 -1.4 0 -1.5 2.1 -2.6 5.1 -2.6 1 0 1.9 -0.7 1.9 -1.5 0 -1 1.1 -1.5 3.5 -1.5 2.8 0 3.5 -0.4 3.5 -2 0 -1.5 0.7 -2 2.5 -2 1.6 0 2.5 -0.6 2.5 -1.5 0 -0.8 0.5 -1.5 1.1 -1.5 0.6 0 1.7 -0.7 2.5 -1.5 0.9 -0.8 3.1 -1.5 5 -1.5 2.7 0 3.4 -0.4 3.4 -2 0 -1.5 0.7 -2 2.5 -2 1.5 0 2.5 -0.6 2.5 -1.4 0 -1.5 2.1 -2.6 5.1 -2.6 1 0 1.9 -0.7 1.9 -1.5 0 -0.9 0.9 -1.5 2.5 -1.5 1.5 0 2.5 -0.6 2.5 -1.4 0 -1.5 2.1 -2.6 5.1 -2.6 1 0 1.9 -0.7 1.9 -1.5 0 -0.9 0.9 -1.5 2.5 -1.5 1.5 0 2.5 -0.6 2.5 -1.4 0 -1.5 2.1 -2.6 5.1 -2.6 1 0 1.9 -0.6 1.9 -1.4 0 -1.5 2.1 -2.6 5.1 -2.6 1 0 1.9 -0.7 1.9 -1.5 0 -0.9 0.9 -1.5 2.5 -1.5 1.5 0 2.5 -0.6 2.5 -1.4 0 -1.5 2.1 -2.6 5.1 -2.6 1 0 1.9 -0.6 1.9 -1.4 0 -1.4 2.1 -2.6 4.6 -2.6 0.8 0 1.4 0.8 1.4 1.8 -0.1 1.2 -10.7 7.8 -35.8 22.3 -19.6 11.4 -71.4 41.4 -115.1 66.8 -43.7 25.3 -79.5 46.1 -79.6 46.1 -0.1 0 0 -1.5 0.1 -3.2z"/>
  <path d="M243.1 421 c0.1 -6 0.6 -10.3 1.3 -10.9 0.6 -0.5 37.1 -21.8 81.1 -47.4 44 -25.6 80.5 -46.9 81 -47.4 0.6 -0.4 10.2 -6.2 21.5 -12.7 11.3 -6.6 26.1 -15.2 33 -19.3 11.3 -6.6 12.5 -7.1 12.8 -5.2 0.5 2.8 -0.7 3.9 -8.5 7.9 -3.7 1.9 -7.3 4.1 -8.1 4.8 -0.7 0.6 -2.4 1.2 -3.8 1.2 -1.3 0 -2.4 0.6 -2.4 1.3 0 1.3 -13.8 9.7 -15.9 9.7 -0.6 0 -1.1 0.4 -1.1 0.8 0 0.4 -2.6 2.1 -5.7 3.7 -3.2 1.7 -6 3.3 -6.3 3.6 -1.5 1.8 -12 6.9 -14.3 6.9 -2 0 -2.7 0.5 -2.7 2 0 1.5 -0.7 2 -2.5 2 -1.5 0 -2.5 0.6 -2.5 1.4 0 1.5 -2.1 2.6 -5.1 2.6 -1 0 -1.9 0.7 -1.9 1.5 0 0.9 -0.9 1.5 -2.5 1.5 -1.5 0 -2.5 0.6 -2.5 1.4 0 1.5 -2.1 2.6 -5.1 2.6 -1 0 -1.9 0.7 -1.9 1.5 0 0.9 -0.9 1.5 -2.5 1.5 -1.5 0 -2.5 0.6 -2.5 1.4 0 1.5 -2.1 2.6 -5.1 2.6 -1 0 -1.9 0.7 -1.9 1.5 0 0.9 -0.9 1.5 -2.5 1.5 -1.5 0 -2.5 0.6 -2.5 1.4 0 1.5 -2.1 2.6 -5.1 2.6 -1 0 -1.9 0.6 -1.9 1.4 0 0.8 -1 1.8 -2.2 2.2 -1.2 0.3 -2.8 1.3 -3.6 2 -0.7 0.8 -2.4 1.4 -3.8 1.4 -1.4 0 -2.4 0.6 -2.4 1.4 0 1.5 -2.1 2.6 -5.1 2.6 -1 0 -1.9 0.7 -1.9 1.5 0 0.9 -0.9 1.5 -2.5 1.5 -1.5 0 -2.5 0.6 -2.5 1.4 0 1.5 -2.1 2.6 -5.1 2.6 -1 0 -1.9 0.7 -1.9 1.5 0 0.9 -0.9 1.5 -2.5 1.5 -1.5 0 -2.5 0.6 -2.5 1.4 0 1.5 -2.1 2.6 -5.1 2.6 -1 0 -1.9 0.7 -1.9 1.5 0 0.9 -0.9 1.5 -2.5 1.5 -1.5 0 -2.5 0.6 -2.5 1.4 0 1.5 -2.1 2.6 -5.1 2.6 -1 0 -1.9 0.7 -1.9 1.5 0 0.9 -0.9 1.5 -2.5 1.5 -1.5 0 -2.5 0.6 -2.5 1.4 0 1.5 -2.1 2.6 -5.1 2.6 -1 0 -1.9 0.7 -1.9 1.5 0 0.9 -0.9 1.5 -2.5 1.5 -1.5 0 -2.5 0.6 -2.5 1.4 0 1.5 -2.1 2.6 -5.1 2.6 -1 0 -1.9 0.6 -1.9 1.4 0 0.8 -1 1.8 -2.2 2.2 -1.2 0.3 -2.8 1.3 -3.6 2 -0.7 0.8 -2.4 1.4 -3.8 1.4 -1.4 0 -2.4 0.6 -2.4 1.4 0 1.5 -2.1 2.6 -5.1 2.6 -1 0 -1.9 0.7 -1.9 1.5 0 0.9 -0.9 1.5 -2.5 1.5 -1.5 0 -2.5 0.6 -2.5 1.4 0 1.5 -2.1 2.6 -5.1 2.6 -1.7 0 -1.9 0.8 -1.9 10 0 9.4 -0.1 10 -2 10 -2 0 -2.1 -0.5 -1.9 -10z"/>
  <path d="M242.6 352.8 c0.1 -1.8 0.3 -3.9 0.3 -4.5 0.2 -2.3 3.1 -1.4 3.2 1 0 1.5 0.2 1.7 0.6 0.7 0.8 -2 2.4 -3 5.1 -3 1.3 0 2.2 -0.6 2.2 -1.5 0 -0.9 0.9 -1.5 2.5 -1.5 1.5 0 2.5 -0.6 2.5 -1.4 0 -1.5 2.1 -2.6 5.1 -2.6 1 0 1.9 -0.7 1.9 -1.5 0 -1 1.1 -1.5 3.5 -1.5 2.8 0 3.5 -0.4 3.5 -2 0 -1.5 0.7 -2 2.5 -2 1.6 0 2.5 -0.6 2.5 -1.5 0 -0.9 0.9 -1.5 2.5 -1.5 1.5 0 2.5 -0.6 2.5 -1.4 0 -1.5 2.1 -2.6 5.1 -2.6 1 0 1.9 -0.6 1.9 -1.4 0 -0.8 1 -1.8 2.2 -2.2 1.2 -0.3 2.8 -1.3 3.6 -2 0.7 -0.8 2.4 -1.4 3.8 -1.4 1.4 0 2.4 -0.6 2.4 -1.4 0 -1.5 2.1 -2.6 5.1 -2.6 1 0 1.9 -0.7 1.9 -1.5 0 -0.9 0.9 -1.5 2.5 -1.5 1.5 0 2.5 -0.6 2.5 -1.4 0 -1.5 2.1 -2.6 5.1 -2.6 1 0 1.9 -0.7 1.9 -1.5 0 -1 1.1 -1.5 3.5 -1.5 2.8 0 3.5 -0.4 3.5 -2 0 -1.5 0.7 -2 2.5 -2 1.6 0 2.5 -0.6 2.5 -1.5 0 -0.9 0.9 -1.5 2.5 -1.5 1.5 0 2.5 -0.6 2.5 -1.4 0 -1.5 2.1 -2.6 5.1 -2.6 1 0 1.9 -0.6 1.9 -1.4 0 -0.8 1 -1.8 2.2 -2.2 1.2 -0.3 2.8 -1.3 3.6 -2 0.7 -0.8 2.7 -1.4 4.3 -1.4 1.9 0 2.9 -0.5 2.9 -1.5 0 -0.9 1.7 -2.3 3.8 -3.3 2 -0.9 3.9 -2 4.2 -2.3 0.9 -1.1 28.1 -16.9 29.1 -16.9 0.5 0 1.9 -0.9 3.1 -2 1.2 -1.1 3 -2 3.9 -2 1 0 1.9 -0.4 2.1 -0.9 0.4 -1.1 19.3 -12.1 20.7 -12.1 0.6 0 1.1 -0.4 1.1 -1 0 -0.5 1.1 -1 2.5 -1 1.5 0 2.5 -0.6 2.5 -1.4 0 -0.8 1 -1.8 2.2 -2.2 1.2 -0.3 2.8 -1.3 3.6 -2 0.7 -0.8 2.4 -1.4 3.8 -1.4 1.4 0 2.4 -0.6 2.4 -1.4 0 -1.5 2.1 -2.6 5.1 -2.6 1 0 1.9 -0.7 1.9 -1.5 0 -0.9 0.9 -1.5 2.5 -1.5 1.5 0 2.5 -0.6 2.5 -1.4 0 -0.8 1 -1.8 2.2 -2.2 1.2 -0.3 2.8 -1.3 3.6 -2 0.7 -0.8 2.4 -1.4 3.8 -1.4 1.4 0 2.4 -0.6 2.4 -1.4 0 -1.4 2.1 -2.6 4.6 -2.6 0.8 0 1.4 0.8 1.4 1.8 -0.1 1.1 -4.3 4.1 -13.2 9.2 -7.2 4.1 -17.8 10.4 -23.7 13.9 -14.2 8.6 -75.3 44.1 -75.8 44.1 -0.2 0 -26.6 15.3 -58.8 34 -32.1 18.7 -58.6 34 -58.8 34 -0.2 0 -0.2 -1.5 -0.1 -3.2z"/>
  <path d="M10 350.5 c0 -2.7 4 -5.7 15 -11.2 3 -1.6 5.7 -3.1 6 -3.4 0.8 -0.9 31.1 -18.5 34.5 -20.1 1.7 -0.7 3.6 -1.9 4.4 -2.6 0.7 -0.7 2.6 -1.6 4.2 -1.9 1.6 -0.3 2.9 -1.1 2.9 -1.8 0 -1.4 2.2 -2.5 5.1 -2.5 1 0 1.9 -0.6 1.9 -1.4 0 -1.5 2.1 -2.6 5.1 -2.6 1 0 1.9 -0.7 1.9 -1.5 0 -0.9 0.9 -1.5 2.5 -1.5 1.5 0 2.5 -0.6 2.5 -1.4 0 -1.5 2.1 -2.6 5.1 -2.6 1 0 1.9 -0.7 1.9 -1.5 0 -0.9 0.9 -1.5 2.5 -1.5 1.5 0 2.5 -0.6 2.5 -1.4 0 -1.5 2.1 -2.6 5.1 -2.6 1 0 1.9 -0.7 1.9 -1.5 0 -1 1 -1.5 3 -1.5 2 0 3 -0.5 3 -1.5 0 -0.8 0.6 -1.5 1.4 -1.5 0.8 0 1.6 -0.4 1.8 -0.9 0.3 -0.9 39.5 -24.1 44.3 -26.3 1.7 -0.7 3.6 -1.8 4.3 -2.5 0.7 -0.7 2.4 -1.3 3.8 -1.3 1.4 0 2.4 -0.6 2.4 -1.4 0 -1.5 2.1 -2.6 5.1 -2.6 1 0 1.9 -0.7 1.9 -1.5 0 -0.8 0.7 -1.5 1.5 -1.5 0.8 0 1.5 -0.4 1.5 -1 0 -0.5 1.6 -1 3.5 -1 2.8 0 3.5 -0.4 3.5 -2 0 -1.5 0.7 -2 2.5 -2 1.5 0 2.5 -0.6 2.5 -1.4 0 -1.5 2.1 -2.6 5.1 -2.6 1 0 1.9 -0.7 1.9 -1.5 0 -0.9 0.9 -1.5 2.5 -1.5 1.5 0 2.5 -0.6 2.5 -1.4 0 -1.5 2.1 -2.6 5.1 -2.6 1 0 1.9 -0.6 1.9 -1.4 0 -1.5 2.1 -2.6 5.1 -2.6 1 0 1.9 -0.7 1.9 -1.5 0 -0.9 0.9 -1.5 2.5 -1.5 1.5 0 2.5 -0.6 2.5 -1.5 0 -0.8 1.1 -1.7 2.5 -2.1 2.4 -0.6 2.5 -0.9 2.5 -9.5 0 -8.3 0.1 -8.9 2 -8.9 2 0 2.1 0.6 1.9 9.5 -0.1 7.3 -0.5 9.7 -1.8 10.8 -0.9 0.8 -11.7 7.2 -24.1 14.4 -12.4 7.2 -33.5 19.5 -47 27.5 -28.1 16.6 -44 25.8 -44.6 25.8 -0.6 0 -45.8 26.3 -46.4 27 -0.3 0.4 -9.7 6 -21 12.5 -11.3 6.5 -25.2 14.6 -31 18 -16 9.4 -15 9 -15 6z"/>
  <path d="M470 332 c0 -11.5 0.1 -12 2.1 -12 2 0 2 0.5 1.8 10.3 -0.3 11.9 -0.6 13.7 -2.5 13.7 -1.1 0 -1.4 -2.4 -1.4 -12z"/>
  <path d="M10.1 298.3 c0.3 -11.5 0.7 -13.3 2.5 -13.3 1.1 0 1.4 2.4 1.4 11.5 0 11 -0.1 11.5 -2.1 11.5 -2 0 -2 -0.5 -1.8 -9.7z"/>
  <path d="M243.1 290 c0.2 -11.6 -1.4 -9.7 16.4 -20 6.1 -3.4 22.9 -13.3 37.5 -22 35.8 -21.2 59.1 -34.7 61.3 -35.5 1.3 -0.6 1.7 -0.2 1.7 1.7 0 1.9 -1.4 3.2 -7.4 6.6 -4 2.3 -7.9 4.2 -8.5 4.2 -0.6 0 -1.1 0.4 -1.1 0.9 0 0.5 -1.5 1.5 -3.2 2.2 -1.8 0.7 -3.9 1.9 -4.6 2.6 -0.7 0.7 -2.4 1.3 -3.8 1.3 -1.3 0 -2.4 0.6 -2.4 1.3 0 1.1 -20.6 13.7 -22.4 13.7 -0.4 0 -1.4 0.7 -2.2 1.5 -0.9 0.8 -2.6 1.5 -4 1.5 -1.4 0 -2.4 0.6 -2.4 1.5 0 1.7 -3 3.5 -5.9 3.5 -1.2 0 -2.1 0.7 -2.1 1.5 0 0.9 -0.9 1.5 -2.5 1.5 -1.5 0 -2.5 0.6 -2.5 1.4 0 1.5 -2.1 2.6 -5.1 2.6 -1 0 -1.9 0.7 -1.9 1.5 0 0.9 -0.9 1.5 -2.5 1.5 -1.5 0 -2.5 0.6 -2.5 1.4 0 1.5 -2.1 2.6 -5.1 2.6 -1 0 -1.9 0.6 -1.9 1.4 0 1.5 -2.1 2.6 -5.1 2.6 -1 0 -1.9 0.7 -1.9 1.5 0 0.9 -0.9 1.5 -2.5 1.5 -1.5 0 -2.5 0.6 -2.5 1.4 0 1.5 -2.1 2.6 -5.1 2.6 -1.7 0 -1.9 0.8 -1.9 10 0 9.4 -0.1 10 -2 10 -2 0 -2.1 -0.5 -1.9 -10z"/>
  <path d="M11 277.3 c0.1 -1.2 4.1 -4.1 12.3 -8.7 6.7 -3.8 21 -12.2 31.7 -18.6 10.7 -6.4 25.4 -15 32.5 -19.2 7.2 -4.2 18.1 -10.6 24.3 -14.2 6.3 -3.6 11.6 -6.6 11.9 -6.6 0.2 0 6.2 -3.3 13.1 -7.4 42 -24.4 101 -58.5 102.8 -59.4 2.1 -1.1 2.2 -1 1.9 2.6 -0.2 2 -0.4 4.3 -0.4 5 -0.1 1.7 -3.1 1.5 -3.1 -0.3 0 -0.8 -0.9 -1.5 -2 -1.5 -1.1 0 -2 0.6 -2 1.4 0 1.5 -2.1 2.6 -5.1 2.6 -1 0 -1.9 0.7 -1.9 1.5 0 0.9 -0.9 1.5 -2.5 1.5 -1.5 0 -2.5 0.6 -2.5 1.4 0 1.5 -2.1 2.6 -5.1 2.6 -1 0 -1.9 0.6 -1.9 1.4 0 1.5 -2.1 2.6 -5.1 2.6 -1 0 -1.9 0.7 -1.9 1.5 0 0.9 -0.9 1.5 -2.5 1.5 -1.5 0 -2.5 0.6 -2.5 1.4 0 1.5 -2.1 2.6 -5.1 2.6 -1 0 -1.9 0.7 -1.9 1.5 0 0.9 -0.9 1.5 -2.5 1.5 -1.5 0 -2.5 0.6 -2.5 1.4 0 1.5 -2.1 2.6 -5.1 2.6 -1 0 -1.9 0.6 -1.9 1.4 0 1.5 -2.1 2.6 -5.1 2.6 -1 0 -1.9 0.7 -1.9 1.5 0 0.9 -0.9 1.5 -2.5 1.5 -1.5 0 -2.5 0.6 -2.5 1.4 0 1.5 -2.1 2.6 -5.1 2.6 -1 0 -1.9 0.7 -1.9 1.5 0 1 -1.1 1.5 -3.5 1.5 -2.8 0 -3.5 0.4 -3.5 2 0 1.6 -0.7 2 -3.5 2 -2.8 0 -3.5 0.4 -3.5 2 0 1.5 -0.7 2 -2.5 2 -1.5 0 -2.5 0.6 -2.5 1.4 0 1.5 -2.1 2.6 -5.1 2.6 -1 0 -1.9 0.7 -1.9 1.5 0 0.9 -0.9 1.5 -2.5 1.5 -1.5 0 -2.5 0.6 -2.5 1.4 0 1.6 -2.1 2.6 -5.6 2.6 -1.5 0 -2.4 0.6 -2.4 1.5 0 0.9 -1.7 2.3 -3.7 3.3 -2.1 0.9 -4.4 2.2 -5.1 2.9 -0.6 0.6 -2.2 1.5 -3.4 1.9 -1.2 0.4 -2.8 1.3 -3.6 2 -0.7 0.8 -2.4 1.4 -3.8 1.4 -1.3 0 -2.4 0.6 -2.4 1.3 0 1.1 -13.6 9.7 -15.5 9.7 -0.3 0 -1.3 0.7 -2.1 1.5 -0.9 0.8 -2.6 1.5 -4 1.5 -1.3 0 -2.4 0.6 -2.4 1.3 0 1.3 -13.8 9.7 -15.9 9.7 -0.6 0 -1.1 0.4 -1.1 0.8 0 1.2 -5.6 4.2 -7.9 4.2 -1.2 0 -2.1 0.6 -2.1 1.5 0 0.9 -0.9 1.5 -2.5 1.5 -1.5 0 -2.5 0.6 -2.5 1.4 0 1.5 -2.1 2.6 -5.1 2.6 -1 0 -1.9 0.7 -1.9 1.5 0 0.9 -0.9 1.5 -2.5 1.5 -1.5 0 -2.5 0.6 -2.5 1.4 0 1.5 -2.1 2.6 -5.1 2.6 -1 0 -1.9 0.7 -1.9 1.5 0 0.9 -0.9 1.5 -2.5 1.5 -1.5 0 -2.5 0.6 -2.5 1.4 0 1.5 -2.1 2.6 -5.1 2.6 -1 0 -1.9 0.6 -1.9 1.4 0 1.4 -2.1 2.6 -4.6 2.6 -0.8 0 -1.4 -0.8 -1.4 -1.7z"/>
  <path d="M10.2 219.4 c0.2 -2.2 1.2 -3.4 4.3 -4.9 2.2 -1.1 4.2 -2.3 4.5 -2.6 1.1 -1.3 28.5 -16.9 29.7 -16.9 0.7 0 1.3 -0.4 1.3 -0.8 0 -1.5 23.6 -14.2 26.3 -14.2 2 0 2.7 -0.5 2.7 -2 0 -1.5 0.7 -2 2.5 -2 1.5 0 2.5 -0.6 2.5 -1.4 0 -0.8 1 -1.8 2.2 -2.2 1.2 -0.3 2.8 -1.3 3.6 -2 0.7 -0.8 2.9 -1.4 4.8 -1.4 2.7 0 3.4 -0.4 3.4 -2 0 -1.5 0.7 -2 2.5 -2 1.6 0 2.5 -0.6 2.5 -1.5 0 -1 1.1 -1.5 3.5 -1.5 2.8 0 3.5 -0.4 3.5 -2 0 -1.5 0.7 -2 2.5 -2 1.5 0 2.5 -0.6 2.5 -1.4 0 -0.8 1 -1.8 2.2 -2.2 1.2 -0.3 2.8 -1.3 3.6 -2 0.7 -0.8 2.9 -1.4 4.8 -1.4 2.7 0 3.4 -0.4 3.4 -2 0 -1.5 0.7 -2 2.5 -2 1.6 0 2.5 -0.6 2.5 -1.5 0 -0.9 0.9 -1.5 2.5 -1.5 1.5 0 2.5 -0.6 2.5 -1.4 0 -1.5 2.1 -2.6 5.1 -2.6 1 0 1.9 -0.6 1.9 -1.4 0 -1.5 2.1 -2.6 5.1 -2.6 1 0 1.9 -0.6 1.9 -1.4 0 -1.5 2.1 -2.6 5.1 -2.6 1 0 1.9 -0.7 1.9 -1.5 0 -1 1.1 -1.5 3.5 -1.5 2.8 0 3.5 -0.4 3.5 -2 0 -1.5 0.7 -2 2.5 -2 1.6 0 2.5 -0.6 2.5 -1.5 0 -0.9 0.9 -1.5 2.5 -1.5 1.5 0 2.5 -0.6 2.5 -1.4 0 -1.5 2.1 -2.6 5.1 -2.6 1 0 1.9 -0.6 1.9 -1.4 0 -0.8 1 -1.8 2.2 -2.2 1.2 -0.3 2.8 -1.3 3.6 -2 0.7 -0.8 2.4 -1.4 3.8 -1.4 1.4 0 2.4 -0.6 2.4 -1.4 0 -1.5 2.1 -2.6 5.1 -2.6 1 0 1.9 -0.7 1.9 -1.5 0 -0.9 0.9 -1.5 2.5 -1.5 1.5 0 2.5 -0.6 2.5 -1.4 0 -1.5 2.1 -2.6 5.1 -2.6 1 0 1.9 -0.7 1.9 -1.5 0 -1 1.1 -1.5 3.5 -1.5 2.8 0 3.5 -0.4 3.5 -2 0 -1.5 0.7 -2 2.5 -2 1.5 0 2.5 -0.6 2.5 -1.4 0 -1.5 2.1 -2.6 5.1 -2.6 1 0 1.9 -0.7 1.9 -1.5 0 -0.8 0.7 -1.5 1.5 -1.5 1.2 0 1.5 -1.7 1.5 -9 0 -8.4 0.1 -9 2.1 -9 1.9 0 2 0.5 1.8 9.9 l-0.3 9.9 -43 25 c-23.7 13.8 -60.4 35 -81.6 47.3 -21.2 12.3 -38.7 22.6 -39 22.9 -0.3 0.4 -13.8 8.4 -30.1 17.8 -16.3 9.4 -31.3 18.1 -33.4 19.3 l-3.7 2.2 0.4 -2.9z"/>
  <path d="M470 201 c0 -11.5 0.1 -12 2.1 -12 2 0 2 0.5 1.8 10.3 -0.3 11.9 -0.6 13.7 -2.5 13.7 -1.1 0 -1.4 -2.4 -1.4 -12z"/>
  <path d="M364 210.2 c0 -0.4 9.6 -6.4 21.3 -13.1 11.6 -6.8 21.4 -12.7 21.7 -13 0.3 -0.4 4.1 -2.8 8.5 -5.3 4.4 -2.5 13 -7.5 19 -11 8.5 -5 34 -19.8 38.8 -22.5 0.4 -0.2 0.7 0.7 0.7 2.2 0 1.5 -0.7 2.8 -1.7 3.2 -1 0.4 -2.4 1.3 -3.1 2 -0.7 0.7 -2.4 1.3 -3.8 1.3 -1.3 0 -2.4 0.6 -2.4 1.3 0 1.1 -13.6 9.7 -15.5 9.7 -0.3 0 -1.3 0.7 -2.1 1.5 -0.9 0.8 -2.6 1.5 -4 1.5 -1.3 0 -2.4 0.6 -2.4 1.3 0 1.3 -13.8 9.7 -15.9 9.7 -0.6 0 -1.1 0.4 -1.1 0.9 0 0.5 -1.5 1.5 -3.2 2.2 -1.8 0.7 -3.9 1.9 -4.7 2.7 -0.7 0.7 -2.6 1.6 -4.2 1.9 -1.6 0.3 -2.9 1.2 -2.9 1.9 0 0.8 -1 1.4 -2.5 1.4 -1.6 0 -2.5 0.6 -2.5 1.5 0 0.9 -0.9 1.5 -2.5 1.5 -1.5 0 -2.5 0.6 -2.5 1.4 0 1.5 -2.1 2.6 -5.1 2.6 -1 0 -1.9 0.6 -1.9 1.4 0 1.5 -2.1 2.6 -5.1 2.6 -1 0 -1.9 0.7 -1.9 1.5 0 0.9 -0.9 1.5 -2.5 1.5 -1.5 0 -2.5 0.6 -2.5 1.4 0 1.5 -2.1 2.6 -5.1 2.6 -1 0 -1.9 0.7 -1.9 1.5 0 1 -1.1 1.5 -3.5 1.5 -1.9 0 -3.5 -0.4 -3.5 -0.8z"/>
  <path d="M10.1 167.3 c0.3 -11.5 0.7 -13.3 2.5 -13.3 1.1 0 1.4 2.4 1.4 11.5 0 11 -0.1 11.5 -2.1 11.5 -2 0 -2 -0.5 -1.8 -9.7z"/>
  <path d="M11 146.3 c0.1 -1.3 19.8 -13.2 68.8 -41.6 37.8 -21.8 86.9 -50.3 109.2 -63.3 22.3 -13 43.3 -25.1 46.6 -27 l6.2 -3.5 -0.3 3.8 c-0.2 2.1 -0.4 4.4 -0.4 5.1 -0.1 1.7 -3.1 1.5 -3.1 -0.3 0 -0.8 -0.9 -1.5 -2 -1.5 -1.1 0 -2 0.6 -2 1.4 0 1.5 -2.1 2.6 -5.1 2.6 -1 0 -1.9 0.7 -1.9 1.5 0 0.9 -0.9 1.5 -2.5 1.5 -1.5 0 -2.5 0.6 -2.5 1.4 0 1.5 -2.1 2.6 -5.1 2.6 -1 0 -1.9 0.6 -1.9 1.4 0 1.5 -2.1 2.6 -5.1 2.6 -1 0 -1.9 0.7 -1.9 1.5 0 0.9 -0.9 1.5 -2.5 1.5 -1.5 0 -2.5 0.6 -2.5 1.4 0 1.5 -2.1 2.6 -5.1 2.6 -1 0 -1.9 0.7 -1.9 1.5 0 0.9 -0.9 1.5 -2.5 1.5 -1.5 0 -2.5 0.6 -2.5 1.4 0 1.5 -2.1 2.6 -5.1 2.6 -1 0 -1.9 0.6 -1.9 1.4 0 1.5 -2.1 2.6 -5.1 2.6 -1 0 -1.9 0.7 -1.9 1.5 0 0.9 -0.9 1.5 -2.5 1.5 -1.5 0 -2.5 0.6 -2.5 1.4 0 1.5 -2.1 2.6 -5.1 2.6 -1 0 -1.9 0.7 -1.9 1.5 0 1 -1.1 1.5 -3.5 1.5 -2.8 0 -3.5 0.4 -3.5 2 0 1.5 -0.7 2 -2.5 2 -1.6 0 -2.5 0.6 -2.5 1.5 0 0.9 -0.9 1.5 -2.5 1.5 -1.6 0 -2.5 0.6 -2.5 1.5 0 0.9 -0.9 1.5 -2.5 1.5 -1.5 0 -2.5 0.6 -2.5 1.4 0 1.5 -2.1 2.6 -5.1 2.6 -1 0 -1.9 0.6 -1.9 1.4 0 1.5 -2.1 2.6 -5.1 2.6 -1 0 -1.9 0.7 -1.9 1.5 0 0.9 -0.9 1.5 -2.5 1.5 -1.5 0 -2.5 0.6 -2.5 1.4 0 1.5 -2.1 2.6 -5.1 2.6 -1 0 -1.9 0.6 -1.9 1.4 0 1.5 -2.1 2.6 -5.1 2.6 -1 0 -1.9 0.7 -1.9 1.5 0 0.9 -0.9 1.5 -2.5 1.5 -1.5 0 -2.5 0.6 -2.5 1.4 0 1.5 -2.1 2.6 -5.1 2.6 -1 0 -1.9 0.7 -1.9 1.5 0 0.9 -0.9 1.5 -2.5 1.5 -1.5 0 -2.5 0.6 -2.5 1.4 0 1.5 -2.1 2.6 -5.1 2.6 -1 0 -1.9 0.6 -1.9 1.4 0 1.5 -2.1 2.6 -5.1 2.6 -1 0 -1.9 0.7 -1.9 1.5 0 0.9 -0.9 1.5 -2.5 1.5 -1.5 0 -2.5 0.6 -2.5 1.4 0 1.5 -2.1 2.6 -5.1 2.6 -1 0 -1.9 0.6 -1.9 1.4 0 1.5 -2.1 2.6 -5.1 2.6 -1 0 -1.9 0.7 -1.9 1.5 0 0.9 -0.9 1.5 -2.5 1.5 -1.5 0 -2.5 0.6 -2.5 1.4 0 1.5 -2.1 2.6 -5.1 2.6 -1 0 -1.9 0.6 -1.9 1.4 0 1.5 -2.1 2.6 -5.1 2.6 -1 0 -1.9 0.7 -1.9 1.5 0 0.9 -0.9 1.5 -2.5 1.5 -1.5 0 -2.5 0.6 -2.5 1.4 0 1.5 -2.1 2.6 -5.1 2.6 -1 0 -1.9 0.7 -1.9 1.5 0 0.9 -0.9 1.5 -2.5 1.5 -1.5 0 -2.5 0.6 -2.5 1.4 0 1.5 -2.1 2.6 -5.1 2.6 -1 0 -1.9 0.6 -1.9 1.4 0 1.4 -2.1 2.6 -4.6 2.6 -0.8 0 -1.4 -0.8 -1.4 -1.7z"/>
 </g>
 <g fill="#dedede">
 </g>
 <g fill="#e6e6e6">
 </g>
 <g fill="#efefef">
 </g>
 <g fill="#f7f7f7">
  <path d="M243.2 456.3 c0.1 -16.4 0.3 -33.5 0.6 -38 l0.3 -8.1 9.2 -5.3 c5.1 -2.9 50.8 -29.6 101.7 -59.3 108 -62.9 117.7 -68.6 118.5 -68.6 0.7 0 0.4 36.3 -0.4 58.9 l-0.6 17.3 -21.5 12.5 c-35.3 20.6 -45.4 26.4 -70.5 41 -74.2 43.2 -136.6 79.3 -137 79.3 -0.3 0 -0.5 -13.4 -0.3 -29.7z"/>
  <path d="M243.2 325.4 c0.1 -16.5 0.3 -33.6 0.6 -38.1 l0.3 -8.1 25.5 -14.9 c14 -8.1 32.1 -18.7 40.2 -23.4 26.9 -15.8 46.6 -27.1 54.7 -31.7 10.4 -5.8 23.3 -13.3 42.5 -24.7 8.5 -5.1 21.1 -12.5 28 -16.5 6.9 -4 17.7 -10.4 24.1 -14.1 6.4 -3.8 12.3 -7.1 13.3 -7.5 1.5 -0.6 1.6 1.2 1.5 20.2 -0.1 11.5 -0.4 28.7 -0.8 38.3 l-0.6 17.3 -17.5 10.3 c-9.6 5.6 -24.2 14.1 -32.5 19 -15.1 8.8 -18.3 10.7 -25.2 14.6 -2.1 1.2 -11.7 6.7 -21.3 12.3 -9.6 5.7 -26 15.2 -36.5 21.3 -10.4 6.1 -35.7 20.8 -56.2 32.7 -20.4 11.9 -37.9 21.9 -38.8 22.2 -1.4 0.6 -1.5 -2.2 -1.3 -29.2z"/>
  <path d="M10.1 330.3 c0.1 -12 0.5 -29.2 0.8 -38.2 l0.6 -16.3 24 -14.1 c13.2 -7.7 27.8 -16.2 32.5 -19 16.9 -10 32.9 -19.2 55.5 -32.2 12.7 -7.3 44.1 -25.4 69.8 -40.4 25.8 -14.9 47 -27.1 47.3 -27.1 0.5 0 0.2 55.3 -0.4 67.7 l-0.3 8.2 -25.2 14.7 c-13.9 8.1 -32.4 18.8 -41.2 23.9 -8.8 5 -24.1 13.9 -34 19.7 -17.1 10 -40.2 23.5 -79.5 46.3 -9.6 5.6 -23.6 13.6 -31 18 -7.4 4.3 -14.4 8.4 -15.5 9.1 -1.1 0.8 -2.3 1.4 -2.7 1.4 -0.5 0 -0.7 -9.8 -0.7 -21.7z"/>
  <path d="M10.4 183.3 c0.4 -20.8 1 -38.1 1.4 -38.5 0.4 -0.4 30.8 -18.2 67.7 -39.5 36.9 -21.4 88.1 -51.2 113.8 -66.1 25.7 -15 47 -27.2 47.3 -27.2 0.5 0 0.2 56.6 -0.4 68.2 l-0.4 7.8 -9.1 5.3 c-12.1 7.1 -67.8 39.4 -88.7 51.5 -9.1 5.2 -23 13.3 -31 18 -21 12.2 -44.1 25.7 -54.5 31.7 -4.9 2.9 -17.2 10 -27.2 15.9 -9.9 5.8 -18.4 10.6 -18.9 10.6 -0.4 0 -0.4 -17 0 -37.7z"/>
 </g>
 <g fill="#ffffff">
 </g>
</svg>