<?xml version="1.0" encoding="utf-8"?>
<!-- Generator: Adobe Illustrator 25.2.0, SVG Export Plug-In . SVG Version: 6.00 Build 0)  -->
<svg version="1.1" id="Layer_1" xmlns="http://www.w3.org/2000/svg" xmlns:xlink="http://www.w3.org/1999/xlink" x="0px" y="0px"
	 viewBox="0 0 1332.54 1252.92" style="enable-background:new 0 0 1332.54 1252.92;" xml:space="preserve">
<style type="text/css">
	.st0{fill:#F5F5F5;}
	.st1{fill:none;stroke:#22B4E5;stroke-width:13;stroke-miterlimit:10;enable-background:new    ;}
</style>
<path class="st0" d="M161.58,242.89c10.37,10.15,20.08,19.59,29.66,29.14c27.21,27.19,54.52,54.28,81.41,81.78
	c5.94,6.09,9.63,6.36,15.75,0.15c34.64-35.14,69.5-70.05,104.66-104.66c6.36-6.26,6.49-10.15,0.07-16.47
	c-34.49-33.97-68.61-68.34-102.86-102.58c-2.35-2.35-4.51-4.9-8.49-9.26c9.31-2.53,16.69-5.37,24.31-6.46
	c61.31-8.74,116.18,5.52,161.36,48.88c45.51,43.63,64.25,97.51,56.5,160.3c-0.47,3.69,0.12,7.85-1.41,11.02
	c-6.17,12.68,0.37,20.23,8.91,28.77C664.66,496.27,797.6,629.21,930.39,762.4c6.81,6.83,13.1,8.64,22.24,6.46
	c85.52-20.16,177.81,28.05,211.38,110.11c16.69,40.76,19.44,82.3,7.28,124.74c-0.25,0.84-0.89,1.56-2.1,3.62
	c-3.19-2.55-6.36-4.66-8.99-7.28c-34.29-34.17-68.69-68.26-102.63-102.81c-6.46-6.59-10.3-6.12-16.47,0.15
	c-34.62,35.14-69.5,70.02-104.61,104.66c-6.09,6.02-5.87,9.66,0.1,15.55c34.24,33.77,68.09,67.89,102.06,101.91
	c2.8,2.8,5.45,5.74,10.08,10.62c-12.06,2.77-21.99,6.24-32.16,7.21c-73.84,7.11-134.62-17.26-178.23-78.09
	c-32.58-45.51-41.94-96.57-28.8-151.29c1.49-6.17-0.64-9.85-4.68-13.89c-51.2-51.11-102.24-102.34-153.39-153.49
	c-84.29-84.29-168.62-168.55-252.88-252.86c-4.7-4.7-8.59-8.2-16.74-6.46c-58.88,12.58-113.43,2.13-160.23-36.35
	c-54.77-44.99-77.5-103.72-67.7-174.39c1.11-7.95,3.27-15.75,5-23.62C159.18,246.14,159.92,245.44,161.58,242.89z"/>
<path class="st1" d="M655.77,1207.94c-30.73,0-61.48-0.2-92.21,0.15c-7.65,0.07-10.62-2.18-11.91-10.15
	c-5.65-35.18-12.28-70.22-18.22-105.36c-1.24-7.33-6.88-8-11.89-9.95c-25.92-10.15-53.21-17.8-77.35-31.15
	c-19.81-10.94-33.23-9.36-50.09,4.28c-21.89,17.7-46.13,32.46-68.98,49c-6.21,4.48-9.95,3.52-15-1.58
	c-43.73-44.05-87.53-87.97-131.65-131.6c-5.74-5.67-5.55-9.38-1.14-15.55c20.23-28.25,39.84-56.92,60.02-85.2
	c4.04-5.65,4.18-10.2,0.89-16.07c-17.31-30.98-30.26-63.73-40.43-97.68c-1.09-3.64-6.44-7.73-10.4-8.54
	c-23.99-4.78-48.18-8.69-72.3-12.9c-10.99-1.93-21.94-4.04-32.96-5.82c-5.94-0.97-8.17-3.96-8.17-10.08
	c0.1-62.69,0.05-125.41-0.15-188.13c-0.02-7.55,3.57-10.23,10.47-11.34c32.11-5.3,64.15-11.04,96.27-16.19
	c4.16-0.67,9.63-0.05,13.02,2.18c47.74,31.12,100.13,43.83,156.66,39.67c8.99-0.67,15.15,1.96,21.15,8.39
	c11.41,12.26,23.84,23.57,35.18,35.88c2.9,3.17,5.05,8.77,4.68,13c-9.93,110.58,56.36,214.9,160.4,252.93
	c33.87,12.38,68.56,16.52,104.24,14.06c7.85-0.54,13.4,1.63,18.79,7.4c11.86,12.68,24.66,24.49,36.52,37.19
	c2.77,2.97,4.93,8.17,4.58,12.11c-5.13,56.68,7.5,109.1,37.66,157.16c4.9,7.8,5.52,14.68,3.74,23.52
	c-6.04,30.06-11.37,60.29-16.14,90.57c-1.29,8.07-4.58,10.15-12.08,10.1c-31.05-0.27-62.07-0.12-93.12-0.12
	C655.77,1208.04,655.77,1208.01,655.77,1207.94z"/>
<path class="st1" d="M674.59,43.08c30.73-0.02,61.48,0.17,92.21-0.15c7.73-0.07,11.32,1.54,12.68,10.2
	c5.5,34.89,11.86,69.68,18.37,104.39c0.59,3.22,3.79,7.63,6.69,8.54c35.56,11.22,70.05,24.83,102.88,42.71
	c2.72,1.49,8.47,0,11.49-2.06c28.92-19.78,57.72-39.77,86.22-60.19c6.39-4.58,10.37-4.16,15.77,1.31
	c43.95,44.27,88.02,88.44,132.35,132.32c5.37,5.32,4.36,8.89,0.74,14.04c-20.38,28.9-40.46,57.99-60.99,86.79
	c-3.61,5.05-3.86,9.21-0.94,14.44c17.51,31.2,30.83,64.15,41.05,98.45c0.97,3.22,5.42,7.01,8.79,7.63
	c34.71,6.59,69.5,12.8,104.34,18.6c7.68,1.29,10.45,4.43,10.42,12.16c-0.22,61.78-0.25,123.56,0.05,185.33
	c0.05,7.58-2.13,11.32-9.83,12.6c-32.39,5.42-64.67,11.44-97.11,16.66c-4.36,0.69-9.95-0.89-13.77-3.32
	c-48.11-30.26-100.21-43.73-156.93-38.23c-6.73,0.67-11.76-0.89-16.56-5.92c-12.41-13.05-25.63-25.33-37.81-38.58
	c-3.1-3.34-5.32-9.31-4.9-13.79c9.81-108.55-55.71-212.82-157.72-251.12c-35.21-13.2-71.29-18.08-108.67-15.13
	c-4.51,0.37-10.47-1.91-13.82-5c-13.62-12.68-26.82-25.85-39.47-39.52c-3.1-3.34-5.27-9.31-4.9-13.79
	c4.78-56.73-8.34-108.87-38.16-157.18c-3.1-5-4.8-12.36-3.89-18.05c5.15-32.11,11.54-64.03,16.91-96.15
	c1.09-6.46,3.59-8.15,9.58-8.1C611.25,43.18,642.92,43.08,674.59,43.08z"/>
</svg>
